<?xml version="1.0" encoding="UTF-8"?>
<svg xmlns="http://www.w3.org/2000/svg" id="a" width="65px" height="65px" viewBox="0 0 65 65"><circle cx="43" cy="30" r="19" fill="#ccc" stroke-width="0"/><path d="m57,40c-1.35-2.65-3.36-4.95-6-6.3v-6.7c-3.59,0-6.55,1.96-8,5h-19c-7.18,0-13,5.82-13,13v2c0,5.01,2.84,9.36,7,11.53v4.47h6l1-2c.42.04,18,0,18,0l1,2h5v-4c4.49-1.76,8.11-5.14,9-10l4-2v-7h-5Z" fill="#f9d7f7" stroke-width="0"/><rect x="18.5" y="13.5" width="28" height="17" transform="translate(10.5 54.5) rotate(-90)" fill="#a9ba5a" stroke-width="0"/><circle cx="32.5" cy="25.5" r="4.5" fill="#ffec95" stroke-width="0"/><path d="m20.13,57.04c-.15,0-.3-.03-.44-.1-4.38-2.16-6.73-6.48-6.3-11.57.05-.55.52-.97,1.08-.91.55.05.96.53.91,1.08-.37,4.3,1.53,7.8,5.19,9.61.5.24.7.84.45,1.34-.17.35-.53.56-.9.56Z" fill="#fff" stroke-width="0"/><path d="m11,41H4c-1.1,0-2-.9-2-2v-1c0-1.1.9-2,2-2h0c1.1,0,2,.9,2,2v6" fill="none" stroke-width="0"/><path d="m16,10c.19,0,.39-.06.55-.17l3-2c.46-.31.58-.93.28-1.39-.31-.46-.93-.58-1.39-.28l-1.45.96V1c0-.55-.45-1-1-1s-1,.45-1,1v6.13l-1.45-.96c-.46-.31-1.08-.18-1.39.28-.31.46-.18,1.08.28,1.39l3,2c.17.11.36.17.55.17Z" fill="#4c241d" stroke-width="0"/><path d="m50,6c-.55,0-1,.45-1,1v6.13l-1.45-.96c-.46-.31-1.08-.18-1.39.28-.31.46-.18,1.08.28,1.39l3,2c.17.11.36.17.55.17s.39-.06.55-.17l3-2c.46-.31.58-.93.28-1.39-.31-.46-.93-.58-1.39-.28l-1.45.96v-6.13c0-.55-.45-1-1-1Z" fill="#4c241d" stroke-width="0"/><path d="m9.45,26.83c.17.11.36.17.55.17s.39-.06.55-.17l3-2c.46-.31.58-.93.28-1.39-.31-.46-.93-.58-1.39-.28l-1.45.96v-6.13c0-.55-.45-1-1-1s-1,.45-1,1v6.13l-1.45-.96c-.46-.31-1.08-.18-1.39.28-.31.46-.18,1.08.28,1.39l3,2Z" fill="#4c241d" stroke-width="0"/><circle cx="27" cy="11" r="1" fill="#4c241d" stroke-width="0"/><path d="m44,64h5c.55,0,1-.45,1-1v-3.33c4.7-2.03,7.9-5.63,8.88-9.99l3.57-1.78c.34-.17.55-.52.55-.89v-7c0-.55-.45-1-1-1h-4.4c-1.43-2.58-3.35-4.6-5.6-5.9v-6.1c0-.55-.45-1-1-1-3.7,0-6.87,1.86-8.61,5h-.39V8c0-.55-.45-1-1-1h-17c-.55,0-1,.45-1,1v23.05c-5.58.39-10.19,3.98-12.08,8.95h-3.92v-2c0-1.65-1.35-3-3-3s-3,1.35-3,3v1c0,1.65,1.35,3,3,3h1v2c0,.55.45,1,1,1s1-.45,1-1v-2h3.33c-.21.97-.33,1.97-.33,3v2c0,5.03,2.67,9.61,7,12.12v3.88c0,.55.45,1,1,1h6c.38,0,.72-.21.89-.55l.72-1.44c2.74.02,12.66,0,16.77,0l.72,1.45c.17.34.52.55.89.55ZM5,40h-1c-.55,0-1-.45-1-1v-1c0-.55.45-1,1-1s1,.45,1,1v2ZM25,9h15v26h-15V9Zm18,51c-6.92.01-17.39.03-17.91,0-.42-.04-.8.18-.98.55l-.72,1.45h-4.38v-3.47c0-.37-.21-.71-.54-.89-3.99-2.08-6.46-6.16-6.46-10.64v-2c0-6.3,4.79-11.44,11-11.94v1.94h-3c-.55,0-1,.45-1,1s.45,1,1,1h25c.55,0,1-.45,1-1s-.45-1-1-1h-3v-2h1c.39,0,.74-.22.9-.57,1.18-2.47,3.41-4.06,6.1-4.37v5.64c0,.38.21.72.54.89,2.27,1.17,4.2,3.2,5.57,5.87.17.33.52.54.89.54h4v5.38l-3.45,1.72c-.28.14-.48.4-.54.71-1.03,5.6-5.69,8.2-8.38,9.25-.38.15-.64.52-.64.93v3h-3.38l-.72-1.45c-.17-.34-.52-.55-.89-.55h0Z" fill="#4c241d" stroke-width="0"/><path d="m32.5,20c-3.03,0-5.5,2.47-5.5,5.5s2.47,5.5,5.5,5.5,5.5-2.47,5.5-5.5-2.47-5.5-5.5-5.5Zm0,9c-1.93,0-3.5-1.57-3.5-3.5s1.57-3.5,3.5-3.5,3.5,1.57,3.5,3.5-1.57,3.5-3.5,3.5Z" fill="#4c241d" stroke-width="0"/><circle cx="49.5" cy="39.5" r="1.5" fill="#4c241d" stroke-width="0"/></svg>
