<?xml version="1.0" encoding="UTF-8"?>
<svg xmlns="http://www.w3.org/2000/svg" id="a" width="65px" height="65px" viewBox="0 0 65 65"><circle cx="25.5" cy="27.5" r="21.5" fill="#a9f8f6"/><polygon points="10 5.84 11.82 9.18 15.16 11 11.82 12.82 10 16.16 8.18 12.82 4.84 11 8.18 9.18 10 5.84" fill="#9dc1e4"/><polygon points="31 52.15 32.71 55.29 35.85 57 32.71 58.71 31 61.85 29.29 58.71 26.15 57 29.29 55.29 31 52.15" fill="#f53e28"/><polygon points="6 49.01 7.41 51.59 9.99 53 7.41 54.41 6 56.99 4.59 54.41 2.01 53 4.59 51.59 6 49.01" fill="#ffce56"/><polygon points="20 17.24 24.51 26.37 34.59 27.84 27.3 34.95 29.02 45 20 40.25 10.98 45 12.7 34.95 5.41 27.84 15.49 26.37 20 17.24" fill="#bd53b5"/><polygon points="47 2.73 50.7 10.22 58.97 11.43 52.99 17.26 54.4 25.5 47 21.61 39.6 25.5 41.01 17.26 35.03 11.43 43.3 10.22 47 2.73" fill="#ffce56"/><polygon points="47 27.73 50.7 35.22 58.97 36.43 52.99 42.26 54.4 50.5 47 46.61 39.6 50.5 41.01 42.26 35.03 36.43 43.3 35.22 47 27.73" fill="#02eae6"/><path d="m4.36,11.88l3.08,1.68,1.68,3.08c.18.32.51.52.88.52s.7-.2.88-.52l1.68-3.08,3.08-1.68c.32-.18.52-.51.52-.88s-.2-.7-.52-.88l-3.08-1.68-1.68-3.08c-.35-.64-1.4-.64-1.75,0l-1.68,3.08-3.08,1.68c-.32.18-.52.51-.52.88s.2.7.52.88Zm4.29-1.82c.17-.09.31-.23.4-.4l.95-1.73.95,1.73c.09.17.23.31.4.4l1.73.95-1.73.95c-.17.09-.31.23-.4.4l-.95,1.73-.95-1.73c-.09-.17-.23-.31-.4-.4l-1.73-.95,1.73-.95Z" fill="#4c241d"/><path d="m31.88,62.33l1.57-2.88,2.88-1.57c.32-.18.52-.51.52-.88s-.2-.7-.52-.88l-2.88-1.57-1.57-2.88c-.35-.64-1.4-.64-1.75,0l-1.57,2.88-2.88,1.57c-.32.18-.52.51-.52.88s.2.7.52.88l2.88,1.57,1.57,2.88c.18.32.51.52.88.52s.7-.2.88-.52Zm-1.71-4.09c-.09-.17-.23-.31-.4-.4l-1.53-.84,1.53-.84c.17-.09.31-.23.4-.4l.84-1.53.84,1.53c.09.17.23.31.4.4l1.53.84-1.53.84c-.17.09-.31.23-.4.4l-.84,1.53-.84-1.53Z" fill="#4c241d"/><path d="m6,57.99c.37,0,.7-.2.88-.52l1.27-2.32,2.32-1.27c.32-.18.52-.51.52-.88s-.2-.7-.52-.88l-2.32-1.27-1.27-2.32c-.35-.64-1.4-.64-1.75,0l-1.27,2.32-2.32,1.27c-.32.18-.52.51-.52.88s.2.7.52.88l2.32,1.27,1.27,2.32c.18.32.51.52.88.52Zm-1.9-4.99l.97-.53c.17-.09.31-.23.4-.4l.53-.97.53.97c.09.17.23.31.4.4l.97.53-.97.53c-.17.09-.31.23-.4.4l-.53.97-.53-.97c-.09-.17-.23-.31-.4-.4l-.97-.53Z" fill="#4c241d"/><path d="m10.39,45.8c.31.22.72.25,1.05.08l8.55-4.5,8.55,4.5c.15.08.31.11.47.11.21,0,.41-.06.59-.19.31-.22.46-.6.4-.98l-1.63-9.53,6.92-6.75c.27-.27.37-.66.25-1.03-.12-.36-.43-.63-.81-.68l-9.56-1.39-4.28-8.67c-.34-.68-1.46-.68-1.79,0l-4.28,8.67-9.56,1.39c-.38.05-.69.32-.81.68-.12.36-.02.76.25,1.03l6.92,6.75-1.63,9.53c-.06.38.09.75.4.98Zm-2.84-17.27l8.08-1.17c.33-.05.61-.25.75-.55l3.61-7.32,3.61,7.32c.15.3.43.5.75.55l8.08,1.17-5.85,5.7c-.24.23-.34.56-.29.89l1.38,8.05-7.23-3.8c-.15-.08-.31-.11-.47-.11s-.32.04-.47.11l-7.23,3.8,1.38-8.05c.06-.32-.05-.66-.29-.89l-5.85-5.7Z" fill="#4c241d"/><path d="m59.12,10.44l-7.75-1.13-3.47-7.03c-.34-.68-1.46-.68-1.79,0l-3.47,7.03-7.75,1.13c-.38.05-.69.32-.81.68s-.02.76.25,1.03l5.61,5.47-1.32,7.72c-.06.38.09.75.4.98.31.22.72.25,1.05.08l6.94-3.65,6.94,3.65c.15.08.31.11.47.11.21,0,.41-.06.59-.19.31-.22.46-.6.4-.98l-1.32-7.72,5.61-5.47c.27-.27.37-.66.25-1.03s-.43-.63-.81-.68Zm-6.83,6.11c-.24.23-.34.56-.29.89l1.07,6.24-5.61-2.95c-.15-.08-.31-.11-.47-.11s-.32.04-.47.11l-5.61,2.95,1.07-6.24c.06-.32-.05-.66-.29-.89l-4.54-4.42,6.27-.91c.33-.05.61-.25.75-.55l2.8-5.68,2.8,5.68c.15.3.43.5.75.55l6.27.91-4.54,4.42Z" fill="#4c241d"/><path d="m59.93,36.12c-.12-.36-.43-.63-.81-.68l-7.75-1.13-3.47-7.03c-.34-.68-1.46-.68-1.79,0l-3.47,7.03-7.75,1.13c-.38.05-.69.32-.81.68s-.02.76.25,1.03l5.61,5.47-1.32,7.72c-.06.38.09.75.4.98.31.22.72.25,1.05.08l6.94-3.65,6.94,3.65c.15.08.31.11.47.11.21,0,.41-.06.59-.19.31-.22.46-.6.4-.98l-1.32-7.72,5.61-5.47c.27-.27.37-.66.25-1.03Zm-7.64,5.43c-.24.23-.34.56-.29.89l1.07,6.24-5.61-2.95c-.15-.08-.31-.11-.47-.11s-.32.04-.47.11l-5.61,2.95,1.07-6.24c.06-.32-.05-.66-.29-.89l-4.54-4.42,6.27-.91c.33-.05.61-.25.75-.55l2.8-5.68,2.8,5.68c.15.3.43.5.75.55l6.27.91-4.54,4.42Z" fill="#4c241d"/><path d="m63.71,53.29c-.39-.39-1.02-.39-1.41,0l-.79.79-.79-.79c-.39-.39-1.02-.39-1.41,0s-.39,1.02,0,1.41l.79.79-.79.79c-.39.39-.39,1.02,0,1.41.2.2.45.29.71.29s.51-.1.71-.29l.79-.79.79.79c.2.2.45.29.71.29s.51-.1.71-.29c.39-.39.39-1.02,0-1.41l-.79-.79.79-.79c.39-.39.39-1.02,0-1.41Z" fill="#4c241d"/><path d="m2.5,38.91l.79.79c.2.2.45.29.71.29s.51-.1.71-.29c.39-.39.39-1.02,0-1.41l-.79-.79.79-.79c.39-.39.39-1.02,0-1.41s-1.02-.39-1.41,0l-.79.79-.79-.79c-.39-.39-1.02-.39-1.41,0s-.39,1.02,0,1.41l.79.79-.79.79c-.39.39-.39,1.02,0,1.41.2.2.45.29.71.29s.51-.1.71-.29l.79-.79Z" fill="#4c241d"/></svg>
