<?xml version="1.0" encoding="UTF-8"?>
<svg xmlns="http://www.w3.org/2000/svg" xmlns:xlink="http://www.w3.org/1999/xlink" width="60px" height="60px" viewBox="0 0 60 60" version="1.1">
    <!-- Generator: Sketch 52.6 (67491) - http://www.bohemiancoding.com/sketch -->
    <title>063 - Logo</title>
    <desc>Created with Sketch.</desc>
    <g id="Page-1" stroke="none" stroke-width="1" fill="none" fill-rule="evenodd">
        <g id="063---Logo">
            <circle id="Oval" fill="#F4F4F4" cx="30" cy="30" r="29"/>
            <path d="M30,1 C29.4966667,1 28.9966667,1.01266667 28.5,1.038 C43.9192225,1.82812792 56.0158989,14.5605465 56.0158989,30 C56.0158989,45.4394535 43.9192225,58.1718721 28.5,58.962 C28.9973333,58.9873333 29.4973333,59 30,59 C46.0162576,58.9999998 58.9999996,46.0162576 58.9999996,30 C58.9999996,13.9837424 46.0162576,1.00000024 30,1 Z" id="Path" fill="#CED7DB"/>
            <path d="M46.77,32.77 C45.6896841,39.3085266 40.9081495,44.6232368 34.5197752,46.3862134 C28.1314009,48.14919 21.3008503,46.0390249 17.02,40.98 L24.29,33.71 C24.6830079,33.3200221 25.3169921,33.3200221 25.71,33.71 L28.5,36.5 L33.29,31.71 C33.6830079,31.3200221 34.3169921,31.3200221 34.71,31.71 L37.5,34.5 L42.29,29.71 C42.6830079,29.3200221 43.3169921,29.3200221 43.71,29.71 L46.77,32.77 Z" id="Path" fill="#60A817"/>
            <path d="M43.71,29.71 C43.3169921,29.3200221 42.6830079,29.3200221 42.29,29.71 L41.5,30.5 L43.77,32.77 C42.5129333,40.3790492 36.2912366,46.1885934 28.614,46.922 C29.073,46.96 29.531,47 30,47 C38.3196188,47.0011176 45.4168503,40.9788394 46.77,32.77 L43.71,29.71 Z" id="Path" fill="#549314"/>
            <path d="M47,30 C46.9996039,30.9280858 46.9226765,31.8545585 46.77,32.77 L43.71,29.71 C43.3169921,29.3200221 42.6830079,29.3200221 42.29,29.71 L37.5,34.5 L34.71,31.71 C34.3169921,31.3200221 33.6830079,31.3200221 33.29,31.71 L28.5,36.5 L25.71,33.71 C25.3169921,33.3200221 24.6830079,33.3200221 24.29,33.71 L17.02,40.98 C12.1645163,35.2391214 11.6570103,26.9905237 15.7721056,20.6977183 C19.8872009,14.404913 27.6473174,11.5628156 34.8532725,13.7093523 C42.0592276,15.8558891 46.9991781,22.4811299 47,30 Z" id="Path" fill="#02A8F3"/>
            <path d="M30,13 C29.494,13 29,13.032 28.5,13.076 C37.2712615,13.8491558 43.9987719,21.1947291 44,30 L46.77,32.77 C47.5892355,27.8434447 46.1986163,22.8060186 42.9679867,18.9974589 C39.7373572,15.1888992 34.9942038,12.9952767 30,13 Z" id="Path" fill="#0377BB"/>
            <circle id="Oval" fill="#FFDB00" cx="25" cy="24" r="3"/>
            <path d="M30,0 C13.4314575,-1.01453063e-15 2.02906125e-15,13.4314575 0,30 C-2.02906125e-15,46.5685425 13.4314575,60 30,60 C46.5685425,60 60,46.5685425 60,30 C59.981263,13.4392249 46.5607751,0.0187370435 30,0 Z M30,58 C14.536027,58 2,45.463973 2,30 C2,14.536027 14.536027,2 30,2 C45.463973,2 58,14.536027 58,30 C57.9823655,45.4566626 45.4566626,57.9823655 30,58 Z" id="Shape" fill="#000000" fill-rule="nonzero"/>
            <path d="M30,48 C38.8091329,47.9840557 46.3145966,41.5995681 47.743,32.907 C47.7553798,32.8564456 47.7634091,32.8049241 47.767,32.753 C49.0473096,24.5514567 44.5501635,16.5386245 36.8823415,13.3591576 C29.2145194,10.1796907 20.366777,12.6590571 15.4677259,19.3600871 C10.5686748,26.0611171 10.8902294,35.2440581 16.246,41.586 C16.2659506,41.6208695 16.2883397,41.654286 16.313,41.686 C16.331,41.704 16.356,41.71 16.376,41.727 C19.7842404,45.7060606 24.7608188,47.9974638 30,48 Z M30,46 C25.6143099,45.9982024 21.4230893,44.1896149 18.413,41 L25,34.417 L27.086,36.5 L23.293,40.293 C23.0330434,40.5440745 22.9287874,40.9158779 23.0203028,41.2655073 C23.1118183,41.6151368 23.3848632,41.8881817 23.7344927,41.9796972 C24.0841221,42.0712126 24.4559255,41.9669566 24.707,41.707 L34,32.414 L36.086,34.5 L32.293,38.293 C32.0330434,38.5440745 31.9287874,38.9158779 32.0203028,39.2655073 C32.1118183,39.6151368 32.3848632,39.8881817 32.7344927,39.9796972 C33.0841221,40.0712126 33.4559255,39.9669566 33.707,39.707 L43.007,30.417 L45.696,33.106 C44.204472,40.5948016 37.6358838,45.9907864 30,46 Z M30,14 C38.8322157,14.0104696 45.9895304,21.1677843 46,30 C46,30.188 45.978,30.371 45.972,30.557 L44.417,29 C43.6332621,28.2201947 42.3667379,28.2201947 41.583,29 L37.5,33.086 L35.414,31 C34.6330003,30.2192361 33.3669997,30.2192361 32.586,31 L28.5,35.086 L26.417,33 C25.6332621,32.2201947 24.3667379,32.2201947 23.583,33 L17.126,39.46 C13.5397476,34.6073792 12.9949349,28.1477417 15.7177581,22.7630069 C18.4405812,17.378272 23.9660135,13.9880899 30,14 Z" id="Shape" fill="#000000" fill-rule="nonzero"/>
            <path d="M7.329,25.977 C7.40035722,25.9920625 7.47307072,25.9997695 7.546,26 C8.01423311,25.9994513 8.41939367,25.6740763 8.521,25.217 C10.0410956,18.4060759 14.7007844,12.7194229 21.0799901,9.89009229 C27.4591959,7.06076172 34.8021387,7.42396013 40.871,10.869 C41.1819625,11.0532591 41.5681558,11.0553691 41.881113,10.8745187 C42.1940703,10.6936682 42.3850752,10.3580095 42.3806985,9.9965818 C42.3763218,9.63515412 42.1772448,9.30421904 41.86,9.131 C35.2396214,5.3717924 27.2287366,4.97501574 20.2692871,8.06161864 C13.3098376,11.1482215 8.22656765,17.3524197 6.569,24.783 C6.51122408,25.0421342 6.55886852,25.3136073 6.70143154,25.5375813 C6.84399456,25.7615553 7.0697727,25.9196434 7.329,25.977 Z" id="Path" fill="#000000"/>
            <path d="M46.166,12.261 C45.7578616,11.8887601 45.1252399,11.9178616 44.753,12.326 C44.3807601,12.7341384 44.4098616,13.3667601 44.818,13.739 C48.1737283,16.7826119 50.5012789,20.7933649 51.479,25.217 C51.5806063,25.6740763 51.9857669,25.9994513 52.454,26 C52.5269293,25.9997695 52.5996428,25.9920625 52.671,25.977 C52.9302273,25.9196434 53.1560054,25.7615553 53.2985685,25.5375813 C53.4411315,25.3136073 53.4887759,25.0421342 53.431,24.783 C52.3649798,19.957189 49.8263695,15.5816243 46.166,12.261 Z" id="Path" fill="#000000"/>
            <path d="M52.671,34.023 C52.13201,33.9039324 51.5984815,34.2441016 51.479,34.783 C49.9589044,41.5939241 45.2992156,47.2805771 38.9200099,50.1099077 C32.5408041,52.9392383 25.1978613,52.5760399 19.129,49.131 C18.8180375,48.9467409 18.4318442,48.9446309 18.118887,49.1254813 C17.8059297,49.3063318 17.6149248,49.6419905 17.6193015,50.0034182 C17.6236782,50.3648459 17.8227552,50.695781 18.14,50.869 C24.7603786,54.6282076 32.7712634,55.0249843 39.7307129,51.9383814 C46.6901624,48.8517785 51.7734323,42.6475803 53.431,35.217 C53.4887759,34.9578658 53.4411315,34.6863927 53.2985685,34.4624187 C53.1560054,34.2384447 52.9302273,34.0803566 52.671,34.023 Z" id="Path" fill="#000000"/>
            <path d="M8.521,34.783 C8.44898768,34.4286138 8.19125408,34.1407173 7.8469648,34.0300816 C7.50267552,33.9194459 7.1254783,34.0033104 6.86050357,34.2494075 C6.59552885,34.4955046 6.48406543,34.8654869 6.569,35.217 C7.63502024,40.042811 10.1736305,44.4183757 13.834,47.739 C14.0980193,47.979797 14.4704468,48.06145 14.8109928,47.9532011 C15.1515387,47.8449522 15.4084661,47.563247 15.4849928,47.2142011 C15.5615195,46.8651552 15.4460193,46.501797 15.182,46.261 C11.8262717,43.2173881 9.49872113,39.2066351 8.521,34.783 Z" id="Path" fill="#000000"/>
            <circle id="Oval" fill="#000000" cx="5" cy="30" r="1"/>
            <circle id="Oval" fill="#000000" cx="9" cy="30" r="1"/>
            <circle id="Oval" fill="#000000" cx="51" cy="30" r="1"/>
            <circle id="Oval" fill="#000000" cx="55" cy="30" r="1"/>
            <path d="M20,25 L21.142,25 C21.2348199,25.3580374 21.3779091,25.7011148 21.567,26.019 L20.757,26.828 C20.4970434,27.0790745 20.3927874,27.4508779 20.4843028,27.8005073 C20.5758183,28.1501368 20.8488632,28.4231817 21.1984927,28.5146972 C21.5481221,28.6062126 21.9199255,28.5019566 22.171,28.242 L22.981,27.433 C23.2988852,27.6220909 23.6419626,27.7651801 24,27.858 L24,29 C24,29.5522847 24.4477153,30 25,30 C25.5522847,30 26,29.5522847 26,29 L26,27.858 C26.3580374,27.7651801 26.7011148,27.6220909 27.019,27.433 L27.829,28.242 C28.0800745,28.5019566 28.4518779,28.6062126 28.8015073,28.5146972 C29.1511368,28.4231817 29.4241817,28.1501368 29.5156972,27.8005073 C29.6072126,27.4508779 29.5029566,27.0790745 29.243,26.828 L28.433,26.019 C28.6220909,25.7011148 28.7651801,25.3580374 28.858,25 L30,25 C30.5522847,25 31,24.5522847 31,24 C31,23.4477153 30.5522847,23 30,23 L28.858,23 C28.7651801,22.6419626 28.6220909,22.2988852 28.433,21.981 L29.243,21.172 C29.5029566,20.9209255 29.6072126,20.5491221 29.5156972,20.1994927 C29.4241817,19.8498632 29.1511368,19.5768183 28.8015073,19.4853028 C28.4518779,19.3937874 28.0800745,19.4980434 27.829,19.758 L27.019,20.567 C26.7011148,20.3779091 26.3580374,20.2348199 26,20.142 L26,19 C26,18.4477153 25.5522847,18 25,18 C24.4477153,18 24,18.4477153 24,19 L24,20.142 C23.6419626,20.2348199 23.2988852,20.3779091 22.981,20.567 L22.171,19.758 C21.9199255,19.4980434 21.5481221,19.3937874 21.1984927,19.4853028 C20.8488632,19.5768183 20.5758183,19.8498632 20.4843028,20.1994927 C20.3927874,20.5491221 20.4970434,20.9209255 20.757,21.172 L21.567,21.981 C21.3779091,22.2988852 21.2348199,22.6419626 21.142,23 L20,23 C19.4477153,23 19,23.4477153 19,24 C19,24.5522847 19.4477153,25 20,25 Z M25,22 C26.1045695,22 27,22.8954305 27,24 C27,25.1045695 26.1045695,26 25,26 C23.8954305,26 23,25.1045695 23,24 C23,22.8954305 23.8954305,22 25,22 Z" id="Shape" fill="#000000" fill-rule="nonzero"/>
        </g>
    </g>
</svg>
