<?xml version="1.0" encoding="UTF-8"?>
<svg id="Layer_2" xmlns="http://www.w3.org/2000/svg" viewBox="0 0 1088.1 957.75">
  <defs>
    <style>
      .cls-1, .cls-2, .cls-3 {
        stroke: #ff3a65;
      }

      .cls-1, .cls-2, .cls-3, .cls-4, .cls-5, .cls-6 {
        fill: none;
        stroke-miterlimit: 10;
      }

      .cls-1, .cls-2, .cls-5, .cls-6 {
        stroke-linecap: round;
      }

      .cls-1, .cls-4 {
        stroke-width: 6px;
      }

      .cls-2 {
        stroke-width: 15px;
      }

      .cls-7 {
        fill: #ff7692;
      }

      .cls-8 {
        fill: #404b5b;
      }

      .cls-3, .cls-5 {
        stroke-width: 8px;
      }

      .cls-9 {
        fill: #ff3a65;
      }

      .cls-10 {
        fill: #a841b7;
      }

      .cls-11 {
        fill: #54a5e8;
      }

      .cls-12 {
        fill: #59657a;
      }

      .cls-4 {
        stroke: #a841b7;
      }

      .cls-13 {
        fill: #fed001;
      }

      .cls-14 {
        fill: #fff;
      }

      .cls-5, .cls-6 {
        stroke: #fed001;
      }

      .cls-6 {
        stroke-width: 17px;
      }

      .cls-15 {
        fill: #848aaf;
      }

      .cls-16 {
        fill: #efc1f7;
      }

      .cls-17 {
        fill: #fefefe;
      }

      .cls-18 {
        fill: #e8a2ff;
      }

      .cls-19 {
        fill: #e6e8f5;
      }

      .cls-20 {
        fill: #df3359;
      }

      .cls-21 {
        fill: #ffd600;
      }

      .cls-22 {
        fill: #c8ccdb;
      }

      .cls-23 {
        fill: #f18c01;
      }

      .cls-24 {
        fill: #ffed63;
      }

      .cls-25 {
        fill: #7bc0ef;
      }

      .cls-26 {
        fill: #a7abd1;
      }
    </style>
  </defs>
  <g id="Layer_1-2" data-name="Layer_1">
    <g>
      <path class="cls-16" d="M1058.59,694.12c-27.76,89.68-103.13,149.99-194.25,167.33-84.2,16.03-172.01,23.49-252.64,34.61-99.55,13.62-140.43,25.66-191.19,38.65-93.41,23.93-181.99,40.12-265.59-8.45-44.93-26.08-80.27-66.84-104.89-112.59C18.12,754.36-1,684.66.04,617.14c2.66-171.8,125.92-320.02,277.49-396.44,45.04-22.71,39.15-16.2,102.33-34.94,28.51-8.46,64.22-20.14,91.05-32.75,48.68-22.84,92.2-50.13,137.41-79.16,39.72-25.51,83.89-48.1,131.11-48.14,46.66-.04,91.2,22.4,125.99,53.5,79.38,70.93,130.01,180.71,162.83,279.98,33.21,100.53,62.45,231.22,30.34,334.93Z"/>
      <path class="cls-18" d="M917.83,837.38c-51.11,60.22-128.86,85.26-206.07,75.23-110.34-14.3-217.4-44.58-328.23-56.99-109.21-12.24-231.1.34-311.61-90.02-31.86-35.75-51.09-81.6-59.51-128.72-7.25-40.64-7.82-81.25-3.03-118.54C29.03,365.28,145.27,255.89,288.25,206.19c.64-.24,2.52-.88,3.63-1.25,67.21-22.86,138.67-29.29,207.67-22.67,13.03,1.25,26.52-.25,39.67-.72,10.52-.38,21.05-1.01,31.5-2.29,49.19-6.03,95.14-17.43,143.06-29.86,42.12-10.93,87.28-18.02,128.64-4.5,40.88,13.36,73.43,45.82,94.96,83.04,49.14,84.91,61.94,195.58,62.16,291.94.24,104.54-13.77,238.09-81.71,317.5Z"/>
      <circle class="cls-4" cx="774.48" cy="110.59" r="15.82"/>
      <path class="cls-8" d="M142.54,203.87h804.14c11.04,0,20,8.96,20,20v599.04H122.54V223.87c0-11.04,8.96-20,20-20Z"/>
      <rect class="cls-11" x="178.81" y="260.15" width="731.59" height="478.35" rx="6" ry="6"/>
      <path class="cls-12" d="M178.81,267.21v464.22c0,3.9,3.17,7.07,7.07,7.07h163.97c-4.09,26.84-6.84,54.97-8.09,84.41H122.54V227.43c0-13.02,10.54-23.56,23.56-23.56h685.35c-36.95,11.87-83.83,29.85-133.89,56.27H185.88c-3.9,0-7.07,3.17-7.07,7.07Z"/>
      <path class="cls-25" d="M697.55,260.14c-141.28,74.57-307.85,216.47-347.71,478.35h-163.97c-3.9,0-7.07-3.17-7.07-7.07v-464.22c0-3.9,3.17-7.07,7.07-7.07h511.67Z"/>
      <path class="cls-14" d="M910.4,714.45v15.6c0,4.66-3.78,8.44-8.44,8.44H187.26c-4.66,0-8.44-3.78-8.44-8.44v-27.24c9.69-10.52,23.61-17.12,39.06-17.12.9,0,1.79.1,2.67.14-5.66-10.05-8.91-21.62-8.91-33.96,0-38.35,31.09-69.44,69.44-69.44s69.44,31.09,69.44,69.44c0,3.08-.28,6.09-.66,9.07,15.57.75,28.42,11.44,32.44,25.93,5.18-3.46,11.38-5.49,18.06-5.49,10.2,0,19.19,4.78,25.18,12.1,7.86-17.6,25.51-29.9,46.05-29.9,9.85,0,19.01,2.86,26.77,7.74-.39-2.53-.66-5.11-.66-7.74,0-27.87,22.59-50.45,50.45-50.45s50.45,22.58,50.45,50.45c0,3.66-.41,7.23-1.15,10.66,2.19-.46,4.46-.73,6.8-.73,7.82,0,14.91,2.88,20.54,7.47,6.98-16.42,23.26-27.94,42.22-27.94,5.63,0,10.99,1.06,15.97,2.91,8.26-12.48,22.4-20.72,38.49-20.72,9.93,0,19.11,3.17,26.63,8.51,4.02-34.53,33.32-61.33,68.92-61.33,38.35,0,69.44,31.09,69.44,69.44,0,12.66-3.45,24.51-9.37,34.74,14.83,3.81,27.03,14.18,33.29,27.84Z"/>
      <path class="cls-19" d="M1014.52,766.63h-351.53c-3.73,0-7.31,1.48-9.95,4.12l-19.9,19.9c-2.64,2.64-6.22,4.12-9.95,4.12h-157.17c-3.73,0-7.31-1.48-9.95-4.12l-19.9-19.9c-2.64-2.64-6.22-4.12-9.95-4.12H74.7c-4.66,0-8.44,3.78-8.44,8.44v45.02c0,17.09,13.86,30.95,30.95,30.95h894.79c17.09,0,30.95-13.86,30.95-30.95v-45.02c0-4.66-3.78-8.44-8.44-8.44Z"/>
      <path class="cls-14" d="M627.14,690.11c-45.51-45.53-40.62-226.08-40.62-226.08h-82.98s4.89,180.55-40.62,226.08"/>
      <circle class="cls-14" cx="292.06" cy="528.93" r="20.48"/>
      <circle class="cls-14" cx="221.73" cy="549.41" r="14"/>
      <circle class="cls-14" cx="234.12" cy="460.91" r="31.29"/>
      <path class="cls-14" d="M82.68,770.51h-5.74s-4.71.82-4.71,6.56v41.99c0,2.15.32,4.29.97,6.34,2,6.39,7.68,18.45,21.98,18.45h24.17s-26.84-3.33-26.84-23.07v-50.27h-9.83Z"/>
      <path class="cls-14" d="M1006.42,770.51h5.74s4.71.82,4.71,6.56v41.99c0,2.15-.32,4.29-.97,6.34-2,6.39-7.68,18.45-21.98,18.45h-24.17s26.84-3.33,26.84-23.07c0-12.15,0-50.27,0-50.27h9.83Z"/>
      <path class="cls-19" d="M265.41,591.88s-42.4,18.03-43.63,50.8c-1.23,32.78,21.82,53.26,21.82,53.26,0,0-26.12-62.69,21.82-104.07Z"/>
      <path class="cls-19" d="M212.15,689.95s-19.05,3.38-30.11,19.21c0,0,30.11-16.75,52.08-11.68,0,0-7.37-9.22-21.97-7.53Z"/>
      <path class="cls-19" d="M344.5,664.47c-8.33.29-16.77,4.09-21.58,11.08-5.11,7.42-4.83,17.12-1.01,25.04.38.79.78,1.59,1.27,2.32-.37-.56.01-2.45.06-3.06.65-8.71,5.7-16.62,12.6-21.8,7.96-5.97,18.11-7.6,27.8-6.23,0,0-.56-1.15-.61-1.22-.82-1.23-2.2-2.1-3.47-2.79-4.46-2.41-9.78-3.52-15.06-3.34Z"/>
      <path class="cls-19" d="M404.05,686.56c-13.76-1.58-26.53,5.05-33,17.26-.04.07-.07.14-.11.21-1.43,2.74-3,6.14-3,9.32,2.54-3.35,5.51-6.45,8.67-9.22,2.61-2.29,5.34-4.29,8.55-5.62,12.34-5.08,27.21-5.26,39.36.61.35.17.8.33,1.08.61-.47-.47-.8-1.29-1.21-1.84-1.16-1.58-2.52-3.01-3.99-4.3-4.63-4.06-10.38-6.34-16.36-7.03Z"/>
      <rect class="cls-14" x="472.42" y="800.64" width="147.8" height="8.19" rx="3.48" ry="3.48"/>
      <circle class="cls-14" cx="933.71" cy="533.15" r="45.74"/>
      <path class="cls-14" d="M826.28,467.26c13.12,0,23.76-10.64,23.76-23.76s-10.64-23.76-23.76-23.76-23.76,10.64-23.76,23.76,10.64,23.76,23.76,23.76Z"/>
      <circle class="cls-14" cx="839.11" cy="518.61" r="16.8"/>
      <path class="cls-19" d="M833.56,593.59c-4.97-1.23-10.15-1.79-15.17-1.71-6.99.11-13.95,1.43-20.44,3.73-12.73,4.52-19.99,12.09-23.47,17.93,8.8-4.95,18.44-9.37,28.41-12.14,15.41-4.29,33.45-1.32,47.04,6.08.7.38,1.41.72,2.1,1.11,2.72,1.57,5.44,3.16,7.99,4.95-.22-.16-.36-1.37-.46-1.63-.57-1.52-1.47-2.96-2.49-4.28-5.5-7.08-14.13-11.73-23.5-14.04Z"/>
      <path class="cls-19" d="M672.9,657.71c-18.76-3.57-36.87,6.27-44.2,22.63-2.17,4.84-4.11,10.42-4.18,15.75,2.31-4.45,4.91-8.78,7.67-13,4.9-7.48,10.55-15.18,19.62-18.47,8.84-3.21,18.82-3.4,27.89-.94,4.97,1.35,10.6,3.21,15.03,5.81-1.21-.71-2.27-2.28-3.34-3.19-5.26-4.41-11.71-7.31-18.49-8.59Z"/>
      <path class="cls-19" d="M451.11,672.87c16.98-11.02,42.38-4.68,54.3,11.05,3.14,4.14,5.01,8.65,5.36,13.87.31,4.55-.4,9.1-1.39,13.55.27-1.2-.81-3.78-1.13-5.03-.48-1.89-1.03-3.76-1.65-5.61-4.47-13.21-15.73-22.71-29.33-25.45-6.01-1.21-12.17-1.35-18.28-1.06-5.16.24-10.61.88-14.73,4.33-.2.17-.39.34-.57.52,2.23-2.28,4.71-4.41,7.42-6.17Z"/>
      <circle class="cls-9" cx="129.16" cy="803.15" r="6.62"/>
      <circle class="cls-13" cx="155.64" cy="803.15" r="6.62"/>
      <path class="cls-23" d="M602.75,499.48c0,28.71-38.59,89.76-51.95,110.04-2.23,3.38-6.75,3.38-8.98,0-13.36-20.28-51.95-81.32-51.95-110.04,0-34.72,25.27-62.87,56.44-62.87s56.44,28.15,56.44,62.87Z"/>
      <path class="cls-21" d="M587.02,490.83c0,20.08-27.84,62.77-37.47,76.95-1.61,2.36-4.87,2.36-6.48,0-9.64-14.18-37.47-56.87-37.47-76.95,0-24.28,18.23-43.97,40.71-43.97s40.71,19.68,40.71,43.97Z"/>
      <path class="cls-24" d="M577.69,477.72c0,14.09-21.45,44.06-28.88,54.01-1.24,1.66-3.75,1.66-4.99,0-7.43-9.95-28.88-39.92-28.88-54.01,0-17.04,14.05-30.86,31.37-30.86s31.37,13.82,31.37,30.86Z"/>
      <path class="cls-9" d="M640.69,288.43s47.37,43.47,48.51,98.5c.78,37.62-20.31,77.54-33.74,99.02-3.31,5.29-11.43,3.44-12.09-2.77-2.74-25.62-11.14-70.23-36.73-85.74-36.73-22.26,34.05-109.02,34.05-109.02Z"/>
      <path class="cls-20" d="M613.65,402.76c1.51,1.4,2.94,2.91,4.3,4.52,21.17-31.7,32-71.53,37.5-102.55-1.66-2.08-3.26-3.99-4.74-5.7-5.57,33.39-16.32,72.73-37.06,103.73Z"/>
      <path class="cls-7" d="M659.9,320.2c7,9.72,12.65,20.46,16.78,31.79,4.24,11.54,7.07,23.97,7.48,36.44.41,12.67-1.9,25.26-5.59,37.3-2.85,9.29-6.44,18.72-11.37,27.07,1.22-2.08,1.66-5.76,2.32-8.21.85-3.14,1.67-6.3,2.43-9.47,4.47-18.57,7.82-38.42,5.41-57.57-2.47-19.65-9.71-39.32-17.46-57.36Z"/>
      <path class="cls-26" d="M493.57,414.8h105.5v29c0,4.97-4.03,9-9,9h-87.5c-4.97,0-9-4.03-9-9v-29h0Z"/>
      <rect class="cls-15" x="493.56" y="414.8" width="105.5" height="18.22"/>
      <path class="cls-9" d="M451.95,288.43s-47.37,43.47-48.51,98.5c-.78,37.62,20.31,77.54,33.74,99.02,3.31,5.29,11.43,3.44,12.09-2.77,2.74-25.62,11.14-70.23,36.73-85.74,36.73-22.26-34.05-109.02-34.05-109.02Z"/>
      <path class="cls-19" d="M656.66,229.07C656.66,39.57,546.32,0,546.32,0c0,0-110.35,39.57-110.35,229.07,0,0-2.19,119.85,51.79,185.53,2.07,2.52,5.18,3.97,8.44,3.97h100.24c3.26,0,6.37-1.45,8.44-3.97,53.98-65.68,51.79-185.53,51.79-185.53Z"/>
      <path class="cls-20" d="M478.99,402.76c-1.51,1.4-2.94,2.91-4.3,4.52-21.17-31.7-32-71.53-37.5-102.55,1.66-2.08,3.26-3.99,4.74-5.7,5.57,33.39,16.32,72.73,37.06,103.73Z"/>
      <path class="cls-20" d="M637.25,107.22s-15.91,4.41-41.12,7.57c-.01-.04-.02-.08-.03-.12-11.16-40.31-29.73-78.12-49.79-114.67,0,0,59.28,21.26,90.94,107.22Z"/>
      <path class="cls-9" d="M596.13,114.79c-14.08,1.76-31.07,3.13-49.82,3.13-52.31,0-90.94-10.7-90.94-10.7C487.03,21.26,546.31,0,546.31,0c20.05,36.55,38.63,74.36,49.79,114.67.01.04.02.08.03.12Z"/>
      <path class="cls-7" d="M432.74,320.2c-7,9.72-12.65,20.46-16.78,31.79-4.24,11.54-7.07,23.97-7.48,36.44-.41,12.67,1.9,25.26,5.59,37.3,2.85,9.29,6.44,18.72,11.37,27.07-1.22-2.08-1.66-5.76-2.32-8.21-.85-3.14-1.67-6.3-2.43-9.47-4.47-18.57-7.82-38.42-5.41-57.57,2.47-19.65,9.71-39.32,17.46-57.36Z"/>
      <path class="cls-22" d="M604.87,414.59c-2.07,2.52-5.17,3.96-8.43,3.96h-47.61c6.37-15.28,12.42-30.7,18.05-46.26,29.38-81.13,52.91-171.89,29.25-257.5,25.22-3.16,41.12-7.57,41.12-7.57,11.53,31.32,19.41,71.24,19.41,121.85,0,0,2.2,119.84-51.79,185.53Z"/>
      <circle class="cls-9" cx="546.31" cy="211.94" r="60.31"/>
      <circle class="cls-25" cx="546.31" cy="211.94" r="46.42"/>
      <path class="cls-11" d="M592.74,211.95c0,25.63-20.79,46.42-46.43,46.42-13.62,0-25.86-5.86-34.36-15.2,7.53,5.26,16.68,8.35,26.56,8.35,25.64,0,46.43-20.79,46.43-46.43,0-12.02-4.56-22.96-12.06-31.21,12,8.39,19.86,22.31,19.86,38.07Z"/>
      <circle class="cls-17" cx="530.89" cy="191.77" r="15.02"/>
      <g>
        <path class="cls-14" d="M496.88,379.18l-15.96,5.1c3.99,8.16,8.21,15.86,12.64,22.99h24.6s-9.54-8.24-21.28-28.09Z"/>
        <path class="cls-14" d="M489.58,365.74c-19.99-40.05-41.86-112.51-34.21-231.99,0,0-16.55,70.02-10.27,124.62,4.49,39.06,15.06,78.63,29.51,112.16l14.97-4.79Z"/>
      </g>
      <path class="cls-9" d="M545.92,501.51h0c-2.54,0-4.63-2.34-4.71-5.29l-5.01-185.56c-.17-6.36,4.23-11.63,9.72-11.63h0c5.49,0,9.89,5.27,9.72,11.63l-5.01,185.56c-.08,2.95-2.16,5.29-4.71,5.29Z"/>
      <line class="cls-5" x1="341.35" y1="356.31" x2="341.35" y2="489.05"/>
      <line class="cls-2" x1="748.63" y1="348.43" x2="748.63" y2="481.17"/>
      <line class="cls-1" x1="706.89" y1="457.95" x2="706.89" y2="590.7"/>
      <line class="cls-6" x1="377.64" y1="466.6" x2="377.64" y2="599.35"/>
      <circle class="cls-3" cx="49.87" cy="524.33" r="22.37"/>
      <circle class="cls-5" cx="324.52" cy="137.49" r="22.37"/>
      <circle class="cls-3" cx="1039.24" cy="699.45" r="22.37"/>
      <polygon class="cls-9" points="87.06 309.52 49.87 348.43 95.79 386.5 87.06 309.52"/>
      <polygon class="cls-10" points="60.63 643.91 33.07 713.35 107.24 711.34 60.63 643.91"/>
      <polygon class="cls-9" points="882.89 133.75 826.28 176.74 880.1 191.77 882.89 133.75"/>
      <polygon class="cls-10" points="1068.48 521.7 1022.96 578.89 1088.1 613.54 1068.48 521.7"/>
      <polygon class="cls-13" points="1055.53 356.31 1009.5 422.68 1065.15 439.61 1055.53 356.31"/>
    </g>
  </g>
</svg>