<?xml version="1.0" encoding="UTF-8"?>
<svg id="Layer_2" xmlns="http://www.w3.org/2000/svg" xmlns:xlink="http://www.w3.org/1999/xlink" viewBox="0 0 396 162">
  <defs>
    <style>
      .cls-1 {
        fill: none;
      }

      .cls-2 {
        filter: url(#drop-shadow-1);
      }

      .cls-2, .cls-3, .cls-4, .cls-5 {
        fill: #83781b;
      }

      .cls-3 {
        filter: url(#drop-shadow-3);
      }

      .cls-4 {
        filter: url(#drop-shadow-2);
      }

      .cls-5 {
        filter: url(#drop-shadow-4);
      }

      .cls-6 {
        fill: #fefffc;
      }

      .cls-7 {
        fill: #fbfedf;
      }

      .cls-8 {
        clip-path: url(#clippath);
      }
    </style>
    <clipPath id="clippath">
      <rect class="cls-1" y="0" width="396" height="162"/>
    </clipPath>
    <filter id="drop-shadow-1" x="239" y="-24" width="196" height="111" filterUnits="userSpaceOnUse">
      <feOffset dx="-3" dy="1"/>
      <feGaussianBlur result="blur" stdDeviation="2"/>
      <feFlood flood-color="#101d5b" flood-opacity=".6"/>
      <feComposite in2="blur" operator="in"/>
      <feComposite in="SourceGraphic"/>
    </filter>
    <filter id="drop-shadow-2" x="-23" y="16" width="203" height="213" filterUnits="userSpaceOnUse">
      <feOffset dx="0" dy="-2"/>
      <feGaussianBlur result="blur-2" stdDeviation="2"/>
      <feFlood flood-color="#071b54" flood-opacity=".72"/>
      <feComposite in2="blur-2" operator="in"/>
      <feComposite in="SourceGraphic"/>
    </filter>
    <filter id="drop-shadow-3" x="-64" y="32" width="227" height="201" filterUnits="userSpaceOnUse">
      <feOffset dx="1" dy="-3"/>
      <feGaussianBlur result="blur-3" stdDeviation="2"/>
      <feFlood flood-color="#0c111c" flood-opacity=".6"/>
      <feComposite in2="blur-3" operator="in"/>
      <feComposite in="SourceGraphic"/>
    </filter>
    <filter id="drop-shadow-4" x="275" y="-14" width="145" height="88" filterUnits="userSpaceOnUse">
      <feOffset dx="-3" dy="4"/>
      <feGaussianBlur result="blur-4" stdDeviation="2"/>
      <feFlood flood-color="#0c111c" flood-opacity=".6"/>
      <feComposite in2="blur-4" operator="in"/>
      <feComposite in="SourceGraphic"/>
    </filter>
  </defs>
  <g id="Objects">
    <g id="Banner">
      <g id="Banner-2" data-name="Banner">
        <rect class="cls-6" y="0" width="396" height="162"/>
        <path class="cls-7" d="M362.29,0c-5.22,8.33-9.06,18.63-10.23,31.32-5.12,55.39-20.19,76.68-70.17,96.74-12.71,5.1-23.58,11.8-32.69,19.87-4.87,4.31-9.23,9.01-13.1,14.07H11s.04-.09.06-.13c11.11-23.22,29.86-41.36,56.98-52.25,49.98-20.06,65.04-41.35,70.16-96.74.43-4.6,1.2-8.89,2.27-12.88h221.82Z"/>
      </g>
      <g class="cls-8">
        <path class="cls-2" d="M431.6-6.94l-5.65,86.01c-48.21-1.93-66.25-16.74-77.29-33.81-.63-.98-1.31-1.97-2.03-2.96-10.27-14.15-20.77-56.19-98.43-61.29-7.24-.48,183.4,12.05,183.4,12.05Z"/>
        <path class="cls-4" d="M173.97,224.54L-5.25,146.04S-16.05,24-16.05,24c13.36,3.05,26.84,5.59,40.18,8.73,11.47,2.7,23.48,5.41,32.92,12.89,10.62,8.43,17.61,21.38,18.85,34.87,3.62,39.17,14.28,54.23,49.63,68.42,26.18,10.51,41.33,30.59,46.77,56.3,1.27,5.93,1.84,12.35,1.68,19.33Z"/>
        <path class="cls-3" d="M156,220.19l-215,9.24S-31.08,41-31.08,41c19.18,3.96,38.42,7.69,57.55,11.89,17.17,3.77,31.74,17.77,35.77,34.94,3.53,15.03,3.47,30.28,11.88,43.84,7.55,12.17,20.16,19.46,33.13,24.7,24.18,9.76,41.23,24.37,46.78,46.91,1.3,5.2,1.97,10.82,1.97,16.9Z"/>
        <path class="cls-5" d="M416.84-3.27l-4.39,66.89c-34.88-1.33-43.76-14.87-51.69-28.1-.45-.76-.94-1.53-1.46-2.29-7.38-10.97-18.97-41.52-75.15-45.22-5.23-.34,132.69,8.72,132.69,8.72Z"/>
      </g>
    </g>
  </g>
</svg>