<?xml version="1.0" encoding="UTF-8"?><svg id="a" xmlns="http://www.w3.org/2000/svg" width="2000" height="1280.37" xmlns:xlink="http://www.w3.org/1999/xlink" viewBox="0 0 2000 1280.37"><defs><linearGradient id="b" x1="195.38" y1="583.31" x2="195.38" y2="356.54" gradientUnits="userSpaceOnUse"><stop offset="0" stop-color="#4af4bf"/><stop offset="1" stop-color="#80ffdb"/></linearGradient><linearGradient id="c" x1="974.26" y1="379.32" x2="974.26" y2="1232" gradientUnits="userSpaceOnUse"><stop offset="0" stop-color="#bbaefc"/><stop offset="1" stop-color="#8d78db"/></linearGradient><linearGradient id="d" x1="1227.94" y1="291.89" x2="1227.94" y2="28.31" xlink:href="#b"/><linearGradient id="e" x1="1052.62" y1="577.97" x2="1052.62" y2="457.71" gradientUnits="userSpaceOnUse"><stop offset="0" stop-color="#e9eaea"/><stop offset="1" stop-color="#fff"/></linearGradient><linearGradient id="f" x1="1005.22" y1="825.42" x2="1253.21" y2="825.42" xlink:href="#b"/><linearGradient id="g" x1="1122.65" y1="891.43" x2="1296.25" y2="891.43" xlink:href="#e"/><linearGradient id="h" x1="253.68" y1="1240.46" x2="253.68" y2="1132.08" xlink:href="#c"/><linearGradient id="i" x1="1397.06" y1="750" x2="1875" y2="750" xlink:href="#e"/><linearGradient id="j" x1="1814.23" y1="365.29" x2="1646.18" y2="588.71" xlink:href="#b"/><linearGradient id="k" x1="1691.18" y1="1232.69" x2="1691.18" y2="1033.76" xlink:href="#e"/><linearGradient id="l" x1="710.35" y1="1142.35" x2="710.35" y2="678.96" xlink:href="#e"/><linearGradient id="m" x1="710.35" y1="696.48" x2="710.35" y2="923.79" xlink:href="#c"/><linearGradient id="n" x1="574.32" y1="1040.44" x2="846.38" y2="1040.44" xlink:href="#c"/><linearGradient id="o" x1="369.02" y1="1091.91" x2="116.94" y2="1091.91" xlink:href="#c"/><linearGradient id="p" x1="265.86" y1="963.61" x2="265.86" y2="718.09" xlink:href="#b"/></defs><rect x="43.6" y="1242.73" width="1956.4" height="37.64" rx="18.82" ry="18.82" fill="#613a8e" opacity=".5"/><path d="m390.76,493.7c0,52.21-42.33,94.54-94.54,94.54H81.93c-45.25,0-81.93-36.68-81.93-81.93s36.68-81.93,81.93-81.93c2.19,0,4.37.09,6.53.26-.15-2.17-.23-4.36-.23-6.57,0-52.21,42.33-94.54,94.54-94.54,46.51,0,85.18,33.59,93.08,77.84,6.55-1.45,13.37-2.21,20.37-2.21,52.21,0,94.54,42.33,94.54,94.54Z" fill="url(#b)"/><path d="m1683.82,375v784.72c0,45.81-37.12,82.93-82.93,82.93H347.63c-45.81,0-82.93-37.12-82.93-82.93V375h1419.12Z" fill="url(#c)"/><path d="m1683.82,310.87v64.13H264.71v-64.13c0-45.81,37.12-82.93,82.93-82.93h1253.26c45.81,0,82.93,37.12,82.93,82.93Z" fill="#784aa3"/><path d="m1455.88,198.53c0,60.91-49.38,110.29-110.29,110.29h-250c-52.79,0-95.59-42.79-95.59-95.59s42.79-95.59,95.59-95.59c2.56,0,5.1.1,7.62.31-.18-2.53-.26-5.09-.26-7.66,0-60.91,49.38-110.29,110.29-110.29,54.26,0,99.38,39.19,108.59,90.81,7.65-1.69,15.6-2.57,23.76-2.57,60.91,0,110.29,49.38,110.29,110.29Z" fill="url(#d)"/><line x1="1352.94" y1="308.82" x2="1345.59" y2="308.82" fill="none" stroke="#80ffdb" stroke-miterlimit="10"/><circle cx="419.12" cy="514.71" r="73.53" fill="#ccc5ff"/><circle cx="411.76" cy="507.35" r="29.41" fill="none" stroke="#f2f2f2" stroke-linecap="round" stroke-linejoin="round" stroke-width="10"/><line x1="455.88" y1="551.47" x2="432.56" y2="528.15" fill="none" stroke="#f2f2f2" stroke-linecap="round" stroke-linejoin="round" stroke-width="10"/><rect x="529.81" y="441.18" width="1045.62" height="147.06" rx="73.53" ry="73.53" fill="url(#e)" opacity=".7"/><rect x="1005.22" y="781.66" width="247.99" height="87.53" rx="16.55" ry="16.55" fill="url(#f)"/><path d="m1135.78,964h-13.13v-16.39c0-10.4,6.57-19.77,16.34-23.32l136.43-49.61c4.6-1.67,7.7-6.09,7.7-10.98v-20.02c0-6.45-5.24-11.69-11.69-11.69h-18.21v-13.13h18.21c13.69,0,24.82,11.13,24.82,24.82v20.02c0,10.4-6.57,19.77-16.34,23.32l-136.43,49.61c-4.6,1.67-7.7,6.09-7.7,10.98v16.39Z" fill="url(#g)"/><rect x="1107.34" y="964" width="43.76" height="94.82" rx="9.59" ry="9.59" fill="#bbaefc"/><path d="m1048.99,781.66v-120.35c0-10.07,8.16-18.23,18.23-18.23h0c10.07,0,18.23,8.16,18.23,18.23v62c0,8.06,6.53,14.59,14.59,14.59h0c8.06,0,14.59-6.53,14.59-14.59v-40.12c0-10.07,8.16-18.23,18.23-18.23h0c10.07,0,18.23,8.16,18.23,18.23v62c0,8.06,6.53,14.59,14.59,14.59h0c8.06,0,14.59-6.53,14.59-14.59v-10.94c0-10.07,8.16-18.23,18.23-18.23h0c10.07,0,18.23,8.16,18.23,18.23v47.41s-167.76,0-167.76,0Z" fill="#bbaefc"/><rect x="1167.07" y="1169.12" width="191.18" height="73.53" rx="36.76" ry="36.76" fill="#784aa3"/><path d="m1262.66,1169.12s7.35-58.82-22.06-80.88c-29.41-22.06-44.12,7.35-29.41,36.76,14.71,29.41,51.47,44.12,51.47,44.12Z" fill="#80ffdb"/><path d="m1262.66,1169.12s7.35-58.82,44.12-58.82c22.06,0,14.71,51.47-44.12,58.82Z" fill="#80ffdb"/><path d="m314.62,1242.65h-121.89c-9.53,0-17.8-6.55-19.98-15.83l-25.69-109.17h213.24l-25.69,109.17c-2.18,9.27-10.46,15.83-19.98,15.83Z" fill="url(#h)"/><rect x="235.29" y="985.29" width="36.76" height="80.88" fill="#784aa3"/><path d="m1970.59,707.87v84.26c0,25.46-20.65,46.1-46.1,46.1h-49.49v-176.47h49.49c25.46,0,46.1,20.65,46.1,46.1Z" fill="#80ffdb"/><path d="m1875,661.76v176.47h-431.84c-25.46,0-46.1-20.65-46.1-46.1v-84.26c0-25.46,20.65-46.1,46.1-46.1h431.84Z" fill="url(#i)"/><rect x="1433.82" y="691.18" width="117.65" height="117.65" rx="10.12" ry="10.12" fill="#8d78db"/><rect x="1580.88" y="691.18" width="117.65" height="117.65" rx="10.12" ry="10.12" fill="#784aa3"/><rect x="1727.94" y="691.18" width="117.65" height="117.65" rx="10.12" ry="10.12" fill="#4af4bf"/><circle cx="1922.79" cy="713.24" r="18.38" fill="#fff"/><path d="m1397.06,941.18v-6.91c0-4.3,3.49-7.79,7.79-7.79h6.91" fill="none" stroke="#80ffdb" stroke-linecap="round" stroke-linejoin="round" stroke-width="5"/><line x1="1426.47" y1="926.47" x2="1441.18" y2="926.47" fill="none" stroke="#80ffdb" stroke-linecap="round" stroke-linejoin="round" stroke-width="5"/><line x1="1455.88" y1="926.47" x2="1470.59" y2="926.47" fill="none" stroke="#80ffdb" stroke-linecap="round" stroke-linejoin="round" stroke-width="5"/><line x1="1485.29" y1="926.47" x2="1500" y2="926.47" fill="none" stroke="#80ffdb" stroke-linecap="round" stroke-linejoin="round" stroke-width="5"/><line x1="1514.71" y1="926.47" x2="1529.41" y2="926.47" fill="none" stroke="#80ffdb" stroke-linecap="round" stroke-linejoin="round" stroke-width="5"/><line x1="1544.12" y1="926.47" x2="1558.82" y2="926.47" fill="none" stroke="#80ffdb" stroke-linecap="round" stroke-linejoin="round" stroke-width="5"/><line x1="1573.53" y1="926.47" x2="1588.24" y2="926.47" fill="none" stroke="#80ffdb" stroke-linecap="round" stroke-linejoin="round" stroke-width="5"/><path d="m1602.94,926.47h6.91c4.3,0,7.79,3.49,7.79,7.79v6.91" fill="none" stroke="#80ffdb" stroke-linecap="round" stroke-linejoin="round" stroke-width="5"/><line x1="1617.65" y1="955.88" x2="1617.65" y2="970.59" fill="none" stroke="#80ffdb" stroke-linecap="round" stroke-linejoin="round" stroke-width="5"/><line x1="1397.06" y1="955.88" x2="1397.06" y2="970.59" fill="none" stroke="#80ffdb" stroke-linecap="round" stroke-linejoin="round" stroke-width="5"/><line x1="1397.06" y1="985.29" x2="1397.06" y2="1000" fill="none" stroke="#80ffdb" stroke-linecap="round" stroke-linejoin="round" stroke-width="5"/><line x1="1397.06" y1="1014.71" x2="1397.06" y2="1029.41" fill="none" stroke="#80ffdb" stroke-linecap="round" stroke-linejoin="round" stroke-width="5"/><line x1="1397.06" y1="1044.12" x2="1397.06" y2="1058.82" fill="none" stroke="#80ffdb" stroke-linecap="round" stroke-linejoin="round" stroke-width="5"/><line x1="1397.06" y1="1073.53" x2="1397.06" y2="1088.24" fill="none" stroke="#80ffdb" stroke-linecap="round" stroke-linejoin="round" stroke-width="5"/><line x1="1397.06" y1="1102.94" x2="1397.06" y2="1117.65" fill="none" stroke="#80ffdb" stroke-linecap="round" stroke-linejoin="round" stroke-width="5"/><path d="m1397.06,1132.35v6.91c0,4.3,3.49,7.79,7.79,7.79h6.91" fill="none" stroke="#80ffdb" stroke-linecap="round" stroke-linejoin="round" stroke-width="5"/><polyline points="1426.47 1147.06 1433.82 1147.06 1441.18 1147.06" fill="none" stroke="#80ffdb" stroke-linecap="round" stroke-linejoin="round" stroke-width="5"/><line x1="1455.88" y1="1147.06" x2="1470.59" y2="1147.06" fill="none" stroke="#80ffdb" stroke-linecap="round" stroke-linejoin="round" stroke-width="5"/><line x1="1485.29" y1="1147.06" x2="1500" y2="1147.06" fill="none" stroke="#80ffdb" stroke-linecap="round" stroke-linejoin="round" stroke-width="5"/><line x1="1514.71" y1="1147.06" x2="1529.41" y2="1147.06" fill="none" stroke="#80ffdb" stroke-linecap="round" stroke-linejoin="round" stroke-width="5"/><circle cx="352.94" cy="308.82" r="29.41" fill="#f2f2f2"/><circle cx="441.18" cy="308.82" r="29.41" fill="#8d78db"/><circle cx="529.41" cy="308.82" r="29.41" fill="#80ffdb"/><path d="m1753.95,338.94l-118.96,154.72c-16.64,21.64-17.54,50.41-4.53,72.59l-12.81,16.66c-8.21,10.68-6.21,26,4.47,34.21,10.68,8.21,26,6.21,34.21-4.47l12.81-16.66c24.78,6.88,52.35-1.39,68.99-23.03l118.96-154.72-103.15-79.31Z" fill="url(#j)"/><rect x="1714.67" y="334.86" width="211.43" height="48.79" rx="24.4" ry="24.4" transform="translate(596.23 -1035.13) rotate(37.56)" fill="#8d78db"/><path d="m1879.87,208.71h0c40.39,0,73.19,32.79,73.19,73.19v73.19h-146.38v-73.19c0-40.39,32.79-73.19,73.19-73.19Z" transform="translate(561.4 -1087.42) rotate(37.56)" fill="#784aa3"/><path d="m1824.52,1242.65h-266.69c-15.7,0-28.42-12.72-28.42-28.42v-171.1c0-15.7,12.72-28.42,28.42-28.42h24.28c7.44,0,13.47-6.03,13.47-13.47v-18.73c0-7.84,9.02-12.25,15.21-7.44l47.32,36.8c2.37,1.84,5.28,2.84,8.27,2.84h158.13c15.7,0,28.42,12.72,28.42,28.42v171.1c0,15.7-12.72,28.42-28.42,28.42Z" fill="url(#k)"/><rect x="500.79" y="661.76" width="419.12" height="492.65" rx="15.31" ry="15.31" fill="url(#l)"/><rect x="537.56" y="691.18" width="345.59" height="242.65" rx="10.04" ry="10.04" fill="url(#m)"/><circle cx="802.26" cy="764.71" r="44.12" fill="#f2f2f2"/><rect x="574.32" y="985.29" width="272.06" height="110.29" rx="15.78" ry="15.78" fill="url(#n)"/><path d="m765.5,933.82h-213.18s14.65-132.35,110.24-132.35c42.49,0,67.54,26.15,82.28,55.21,18.4,36.31,20.66,77.15,20.66,77.15Z" fill="#80ffdb"/><path d="m861.03,933.82h-95.53s-2.26-40.84-20.66-77.15c9.28-9.71,23.09-18.44,42.72-18.44,66.18,0,73.47,95.59,73.47,95.59Z" fill="#4af4bf"/><rect x="611.09" y="1029.41" width="198.53" height="22.06" rx="7.5" ry="7.5" fill="#784aa3"/><rect x="1573.53" y="1058.82" width="235.29" height="22.06" rx="7.5" ry="7.5" fill="#bbaefc"/><rect x="1573.53" y="1117.65" width="235.29" height="22.06" rx="7.5" ry="7.5" fill="#bbaefc"/><rect x="1573.53" y="1176.47" width="161.76" height="22.06" rx="7.5" ry="7.5" fill="#bbaefc"/><rect x="125" y="1066.18" width="257.35" height="51.47" rx="11.19" ry="11.19" fill="url(#o)"/><path d="m409.66,879.01c1.51,13.06,2.1,24.37,2.1,32.75,0,51.47-36.76,73.53-88.24,73.53h-132.35c-36.76,0-110.29-7.35-110.29-102.94,0-57.54,36.78-85.68,69.21-92.81,7.49-37.01,32.46-91.01,114.62-91.01,37.4,0,65.59,14.49,86.72,36.16,18.13-8.12,52.01-13.28,82.4,37.37,36.44,60.74,7.68,96.38-24.16,106.96Z" fill="url(#p)"/><rect x="235.29" y="985.29" width="36.76" height="29.41" fill="#613a8e"/><circle cx="161.76" cy="911.76" r="29.41" fill="#784aa3" opacity=".2"/><circle cx="272.06" cy="772.06" r="44.12" fill="#784aa3" opacity=".2"/><circle cx="382.35" cy="786.76" r="14.71" fill="#784aa3" opacity=".2"/><circle cx="345.59" cy="919.12" r="29.41" fill="#784aa3" opacity=".2"/><circle cx="272.06" cy="875" r="14.71" fill="#784aa3" opacity=".2"/><circle cx="191.18" cy="830.88" r="7.35" fill="#784aa3" opacity=".2"/><circle cx="235.29" cy="948.53" r="14.71" fill="#784aa3" opacity=".2"/><circle cx="125" cy="852.94" r="14.71" fill="#784aa3" opacity=".2"/><circle cx="360.29" cy="838.24" r="7.35" fill="#784aa3" opacity=".2"/></svg>