<?xml version="1.0" encoding="UTF-8"?>
<svg id="Layer_2" xmlns="http://www.w3.org/2000/svg" viewBox="0 0 1413.28 1010">
  <defs>
    <style>
      .cls-1 {
        stroke-width: 2.54px;
      }

      .cls-1, .cls-2, .cls-3, .cls-4, .cls-5, .cls-6 {
        fill: #fff;
      }

      .cls-1, .cls-4, .cls-7, .cls-5, .cls-8, .cls-9, .cls-10 {
        stroke: #a7abd1;
      }

      .cls-1, .cls-7, .cls-8, .cls-11, .cls-9, .cls-10 {
        stroke-miterlimit: 10;
      }

      .cls-12 {
        fill: #b5d8f7;
      }

      .cls-13 {
        fill: #ff5752;
      }

      .cls-14 {
        fill: #57a1ff;
      }

      .cls-15 {
        fill: #abefdb;
      }

      .cls-16 {
        fill: #ffc208;
      }

      .cls-2, .cls-3, .cls-4, .cls-17, .cls-7, .cls-18, .cls-8, .cls-11, .cls-9, .cls-19, .cls-20 {
        stroke-linecap: round;
      }

      .cls-2, .cls-3, .cls-4, .cls-17, .cls-5, .cls-18, .cls-19, .cls-20 {
        stroke-linejoin: round;
      }

      .cls-2, .cls-3, .cls-17, .cls-20 {
        stroke: #494a78;
      }

      .cls-2, .cls-7, .cls-19, .cls-10 {
        stroke-width: 7.61px;
      }

      .cls-3, .cls-4, .cls-17, .cls-5, .cls-18, .cls-8, .cls-11, .cls-9, .cls-20 {
        stroke-width: 5.07px;
      }

      .cls-21 {
        fill: #84d589;
      }

      .cls-22 {
        fill: #8abff9;
      }

      .cls-17 {
        stroke-dasharray: 10.27 17.97;
      }

      .cls-17, .cls-18, .cls-11, .cls-9, .cls-19, .cls-10, .cls-20 {
        fill: none;
      }

      .cls-7, .cls-8, .cls-23 {
        fill: #e6e8f5;
      }

      .cls-24 {
        fill: #dda60b;
      }

      .cls-25 {
        fill: #eeca4f;
      }

      .cls-26 {
        fill: #20a881;
      }

      .cls-18 {
        stroke: #5c629e;
      }

      .cls-11 {
        stroke: #ffc208;
      }

      .cls-27 {
        fill: #1e68ba;
      }

      .cls-28 {
        fill: #ce3c3c;
      }

      .cls-29 {
        fill: #29c69c;
      }

      .cls-30 {
        fill: #f7e3b0;
      }

      .cls-19 {
        stroke: #fff;
      }

      .cls-31 {
        fill: #5c629e;
      }

      .cls-32 {
        fill: #f7d0d0;
      }

      .cls-33 {
        fill: #87e8cc;
      }

      .cls-34 {
        fill: #494a78;
      }

      .cls-35 {
        fill: #fcacac;
      }

      .cls-36 {
        fill: #f5f4fc;
      }

      .cls-37 {
        fill: #f9d97d;
      }

      .cls-38 {
        fill: #a7abd1;
      }
    </style>
  </defs>
  <g id="Layer_1-2" data-name="Layer_1">
    <path class="cls-36" d="M1102.37,63.25C1019.25,15.77,921.54-5.94,824.64,1.4c-83.71,6.34-165.66,34.65-236.4,80.96-74.64,48.86-140.23,110.66-220.65,150.61-91.9,45.65-183.46,71.55-245.66,162.5-60.61,88.62-76.51,205.17-69.89,311.22,3.88,62.2,20.44,124.84,56.07,175.32,68.63,97.23,190.66,117.06,299.98,122.75,133.65,6.96,269.11,9.8,401.92-9.66,197.43-28.92,467.56-126.17,517.4-352.08,29.68-134.5,10.15-282.92-53.91-404.21-40.08-75.89-100.3-135.08-171.13-175.55Z"/>
    <rect class="cls-33" x="1072.39" y="495.89" width="44.4" height="164.93" rx="5" ry="5" transform="translate(238.43 -315.85) rotate(18.39)"/>
    <rect class="cls-20" x="1072.39" y="495.89" width="44.4" height="164.93" rx="5" ry="5" transform="translate(238.43 -315.85) rotate(18.39)"/>
    <line class="cls-20" x1="1133.67" y1="531.19" x2="1121.63" y2="527.18"/>
    <line class="cls-20" x1="1109.6" y1="523.18" x2="1103.58" y2="521.18"/>
    <line class="cls-20" x1="1127.67" y1="549.25" x2="1115.63" y2="545.24"/>
    <line class="cls-20" x1="1121.66" y1="567.3" x2="1109.62" y2="563.3"/>
    <line class="cls-20" x1="1097.59" y1="559.3" x2="1091.57" y2="557.3"/>
    <line class="cls-20" x1="1115.66" y1="585.36" x2="1103.62" y2="581.36"/>
    <line class="cls-20" x1="1109.65" y1="603.42" x2="1097.61" y2="599.42"/>
    <line class="cls-20" x1="1085.58" y1="595.41" x2="1079.56" y2="593.41"/>
    <line class="cls-20" x1="1103.65" y1="621.48" x2="1091.61" y2="617.47"/>
    <line class="cls-20" x1="1097.64" y1="639.53" x2="1085.61" y2="635.53"/>
    <line class="cls-20" x1="1073.57" y1="631.53" x2="1067.55" y2="629.53"/>
    <path class="cls-16" d="M1255.97,805.6h-86.27c-8.41,0-12.69-6.82-12.69-15.22v-150.97c0-2.8,2.27-5.07,5.07-5.07h104.03c2.8,0,5.07,2.27,5.07,5.07v150.97c0,8.41-6.82,15.22-15.22,15.22Z"/>
    <path class="cls-16" d="M1042.84,672.39h-25.37l-5.62-84.32c-.39-5.86,4.26-10.82,10.13-10.82h16.36c5.87,0,10.52,4.97,10.13,10.82l-5.62,84.32Z"/>
    <path class="cls-20" d="M1042.84,672.39h-25.37l-5.62-84.32c-.39-5.86,4.26-10.82,10.13-10.82h16.36c5.87,0,10.52,4.97,10.13,10.82l-5.62,84.32Z"/>
    <line class="cls-20" x1="1030.15" y1="596.27" x2="1012.39" y2="596.27"/>
    <path class="cls-38" d="M1049.18,558.21c0,10.51-8.52,19.03-19.03,19.03s-19.03-8.52-19.03-19.03c0-8.96,13.85-34.94,17.92-42.39.48-.88,1.74-.88,2.23,0,4.07,7.44,17.92,33.42,17.92,42.39Z"/>
    <path class="cls-31" d="M1049.18,558.21c0,10.5-8.53,19.03-19.03,19.03s-18.95-8.45-19.03-18.89c3.36,3.01,7.81,4.85,12.69,4.85,10.5,0,19.03-8.51,19.03-19.03,0-2.96-1.51-7.75-3.68-13.14,4.92,10.04,10.02,21.74,10.02,27.19Z"/>
    <path class="cls-20" d="M1049.18,558.21c0,10.51-8.52,19.03-19.03,19.03s-19.03-8.52-19.03-19.03c0-8.96,13.85-34.94,17.92-42.39.48-.88,1.74-.88,2.23,0,4.07,7.44,17.92,33.42,17.92,42.39Z"/>
    <path class="cls-24" d="M1271.19,639.4v150.97c0,8.41-6.81,15.22-15.22,15.22h-16.49v-171.27h26.64c2.8,0,5.07,2.27,5.07,5.07Z"/>
    <path class="cls-23" d="M789.1,799.25c-50.75-19.03-50.75-76.12-50.75-76.12h-101.49s0,57.09-50.75,76.12h202.98Z"/>
    <path class="cls-31" d="M738.36,723.13s-76.12,12.69-88.81,50.75h-38.06s25.37,0,25.37-50.75h101.49Z"/>
    <rect class="cls-23" x="383.13" y="241.04" width="608.95" height="482.09" rx="16" ry="16"/>
    <rect class="cls-38" x="478.28" y="241.04" width="456.72" height="25.37"/>
    <rect class="cls-20" x="383.13" y="241.04" width="608.95" height="482.09" rx="16" ry="16"/>
    <path class="cls-20" d="M789.1,799.25c-50.75-19.03-50.75-76.12-50.75-76.12h-101.49s0,57.09-50.75,76.12h202.98Z"/>
    <path class="cls-23" d="M560.06,773.88h255.1c6.62,0,12,5.38,12,12v15.72c0,2.21-1.79,4-4,4h-271.1c-2.21,0-4-1.79-4-4v-15.72c0-6.62,5.38-12,12-12Z"/>
    <path class="cls-20" d="M560.06,773.88h255.1c6.62,0,12,5.38,12,12v15.72c0,2.21-1.79,4-4,4h-271.1c-2.21,0-4-1.79-4-4v-15.72c0-6.62,5.38-12,12-12Z"/>
    <rect class="cls-29" x="408.51" y="266.42" width="558.21" height="355.22" rx="2" ry="2"/>
    <rect class="cls-26" x="478.28" y="266.42" width="456.72" height="355.22"/>
    <rect class="cls-20" x="408.51" y="266.42" width="558.21" height="355.22" rx="2" ry="2"/>
    <path class="cls-6" d="M471.25,177.61h432.72c6.62,0,12,5.38,12,12v432.03h-456.72V189.61c0-6.62,5.38-12,12-12Z"/>
    <line class="cls-3" x1="1283.88" y1="805.6" x2="104.03" y2="805.6"/>
    <line class="cls-3" x1="53.28" y1="805.6" x2="2.54" y2="805.6"/>
    <path class="cls-31" d="M915.97,192.84v22.84h-456.72v-22.84c0-8.41,6.81-15.22,15.22-15.22h426.27c8.41,0,15.22,6.81,15.22,15.22Z"/>
    <circle class="cls-13" cx="490.97" cy="196.64" r="6.34"/>
    <circle class="cls-25" cx="516.34" cy="196.64" r="6.34"/>
    <circle class="cls-21" cx="541.72" cy="196.64" r="6.34"/>
    <rect class="cls-23" x="459.25" y="215.67" width="456.72" height="57.09"/>
    <rect class="cls-6" x="484.63" y="234.7" width="405.97" height="25.37" rx="10" ry="10"/>
    <path class="cls-20" d="M471.25,177.61h432.72c6.62,0,12,5.38,12,12v432.03h-456.72V189.61c0-6.62,5.38-12,12-12Z"/>
    <line class="cls-20" x1="459.25" y1="215.67" x2="915.97" y2="215.67"/>
    <rect class="cls-23" x="497.31" y="298.13" width="190.3" height="101.49"/>
    <rect class="cls-23" x="497.31" y="456.72" width="380.6" height="139.55"/>
    <rect class="cls-31" x="497.31" y="399.63" width="190.3" height="25.37"/>
    <line class="cls-2" x1="522.69" y1="507.46" x2="529.03" y2="507.46"/>
    <line class="cls-19" x1="548.06" y1="507.46" x2="662.24" y2="507.46"/>
    <line class="cls-2" x1="522.69" y1="526.49" x2="529.03" y2="526.49"/>
    <line class="cls-19" x1="548.06" y1="526.49" x2="662.24" y2="526.49"/>
    <line class="cls-2" x1="522.69" y1="545.52" x2="529.03" y2="545.52"/>
    <line class="cls-19" x1="548.06" y1="545.52" x2="662.24" y2="545.52"/>
    <line class="cls-2" x1="522.69" y1="564.55" x2="529.03" y2="564.55"/>
    <line class="cls-19" x1="548.06" y1="564.55" x2="662.24" y2="564.55"/>
    <circle class="cls-13" cx="592.46" cy="348.88" r="38.06"/>
    <path class="cls-6" d="M586.16,332.16l24.25,14.55c1.64.99,1.64,3.37,0,4.35l-24.25,14.55c-1.69,1.01-3.84-.2-3.84-2.18v-29.1c0-1.97,2.15-3.19,3.84-2.18Z"/>
    <polygon class="cls-14" points="700.3 577.24 700.3 526.49 725.67 539.18 725.67 577.24 700.3 577.24"/>
    <polygon class="cls-14" points="751.04 577.24 751.04 513.81 776.42 526.49 776.42 577.24 751.04 577.24"/>
    <polygon class="cls-12" points="751.04 577.24 751.04 513.81 725.67 539.18 725.67 577.24 751.04 577.24"/>
    <polygon class="cls-12" points="801.79 577.24 801.79 494.78 776.42 526.49 776.42 577.24 801.79 577.24"/>
    <polygon class="cls-12" points="852.54 577.24 852.54 482.09 827.16 513.81 827.16 577.24 852.54 577.24"/>
    <polygon class="cls-14" points="801.79 577.24 801.79 494.78 827.16 513.81 827.16 577.24 801.79 577.24"/>
    <circle class="cls-16" cx="700.3" cy="526.49" r="6.34"/>
    <circle class="cls-16" cx="725.67" cy="539.18" r="6.34"/>
    <circle class="cls-16" cx="751.04" cy="513.81" r="6.34"/>
    <circle class="cls-16" cx="776.42" cy="526.49" r="6.34"/>
    <circle class="cls-16" cx="801.79" cy="494.78" r="6.34"/>
    <circle class="cls-16" cx="827.16" cy="513.81" r="6.34"/>
    <circle class="cls-16" cx="852.54" cy="482.09" r="6.34"/>
    <rect class="cls-23" x="712.98" y="298.13" width="164.93" height="126.87" rx="2" ry="2"/>
    <rect class="cls-6" x="725.67" y="310.82" width="25.37" height="25.37" rx="3" ry="3"/>
    <line class="cls-9" x1="763.73" y1="317.16" x2="789.1" y2="317.16"/>
    <line class="cls-9" x1="763.73" y1="329.85" x2="808.13" y2="329.85"/>
    <line class="cls-9" x1="820.82" y1="329.85" x2="852.54" y2="329.85"/>
    <rect class="cls-6" x="725.67" y="348.88" width="25.37" height="25.37" rx="3" ry="3"/>
    <line class="cls-9" x1="763.73" y1="355.22" x2="789.1" y2="355.22"/>
    <line class="cls-9" x1="763.73" y1="367.91" x2="808.13" y2="367.91"/>
    <line class="cls-9" x1="820.82" y1="367.91" x2="852.54" y2="367.91"/>
    <rect class="cls-6" x="725.67" y="386.94" width="25.37" height="25.37" rx="3" ry="3"/>
    <line class="cls-9" x1="763.73" y1="393.28" x2="789.1" y2="393.28"/>
    <line class="cls-9" x1="763.73" y1="405.97" x2="808.13" y2="405.97"/>
    <line class="cls-9" x1="820.82" y1="405.97" x2="852.54" y2="405.97"/>
    <rect class="cls-38" x="516.34" y="469.4" width="152.24" height="12.69" rx="2" ry="2"/>
    <line class="cls-3" x1="1302.91" y1="805.6" x2="1315.6" y2="805.6"/>
    <line class="cls-3" x1="1340.97" y1="805.6" x2="1410.74" y2="805.6"/>
    <path class="cls-20" d="M1255.97,805.6h-86.27c-8.41,0-12.69-6.82-12.69-15.22v-150.97c0-2.8,2.27-5.07,5.07-5.07h104.03c2.8,0,5.07,2.27,5.07,5.07v150.97c0,8.41-6.82,15.22-15.22,15.22Z"/>
    <path class="cls-20" d="M1273.38,658.09c23.84-7.03,47.03-3.48,56.1,22.11,7.2,20.33,4.11,46.7-12.38,61.81-8.95,8.21-21.06,9.54-31.23,15.62-7.74,4.62-13.38,13.18-14.72,22.6"/>
    <line class="cls-20" x1="1169.7" y1="577.24" x2="1169.7" y2="615.3"/>
    <line class="cls-20" x1="1169.7" y1="545.52" x2="1169.7" y2="558.21"/>
    <line class="cls-20" x1="1188.73" y1="513.81" x2="1188.73" y2="526.49"/>
    <line class="cls-20" x1="1188.73" y1="545.52" x2="1188.73" y2="615.3"/>
    <circle class="cls-6" cx="1214.1" cy="716.79" r="38.06"/>
    <circle class="cls-10" cx="1173.24" cy="123.47" r="114.18"/>
    <circle class="cls-23" cx="1173.24" cy="123.47" r="114.18"/>
    <path class="cls-1" d="M1173.24,224.6c-55.76,0-101.13-45.37-101.13-101.13s45.37-101.13,101.13-101.13,101.13,45.37,101.13,101.13-45.37,101.13-101.13,101.13Z"/>
    <line class="cls-7" x1="1173.24" y1="34.66" x2="1173.24" y2="47.35"/>
    <line class="cls-8" x1="1173.24" y1="34.66" x2="1173.24" y2="41"/>
    <line class="cls-8" x1="1173.24" y1="205.93" x2="1173.24" y2="212.27"/>
    <line class="cls-8" x1="1128.84" y1="46.56" x2="1132.01" y2="52.05"/>
    <line class="cls-8" x1="1214.48" y1="194.88" x2="1217.65" y2="200.38"/>
    <line class="cls-8" x1="1096.34" y1="79.06" x2="1101.83" y2="82.24"/>
    <line class="cls-8" x1="1244.66" y1="164.7" x2="1250.15" y2="167.87"/>
    <line class="cls-8" x1="1084.44" y1="123.47" x2="1090.78" y2="123.47"/>
    <line class="cls-8" x1="1255.71" y1="123.47" x2="1262.05" y2="123.47"/>
    <line class="cls-8" x1="1096.34" y1="167.87" x2="1101.83" y2="164.7"/>
    <line class="cls-8" x1="1244.66" y1="82.24" x2="1250.15" y2="79.06"/>
    <line class="cls-8" x1="1128.84" y1="200.38" x2="1132.01" y2="194.88"/>
    <line class="cls-8" x1="1214.48" y1="52.05" x2="1217.65" y2="46.56"/>
    <line class="cls-7" x1="1173.24" y1="212.27" x2="1173.24" y2="199.59"/>
    <line class="cls-7" x1="1084.44" y1="123.47" x2="1097.13" y2="123.47"/>
    <line class="cls-7" x1="1249.36" y1="123.47" x2="1262.05" y2="123.47"/>
    <path class="cls-23" d="M1166.9,117.12l3.81-53.37c.22-3.14,4.84-3.14,5.06,0l3.81,53.37h-12.69Z"/>
    <path class="cls-23" d="M1163.97,115.12l-46.41,61.8c-1.77,2.36,1.24,5.34,3.58,3.53l61.24-47.24-18.41-18.09Z"/>
    <path class="cls-38" d="M1173.24,142.5c-10.49,0-19.03-8.54-19.03-19.03s8.54-19.03,19.03-19.03,19.03,8.54,19.03,19.03-8.54,19.03-19.03,19.03Z"/>
    <line class="cls-8" x1="1172.47" y1="123.47" x2="1236.02" y2="64.28"/>
    <rect class="cls-38" x="129.4" y="469.4" width="260.07" height="336.19" rx="12" ry="12"/>
    <rect class="cls-6" x="142.09" y="482.09" width="234.7" height="279.1" rx="8" ry="8"/>
    <rect class="cls-20" x="129.4" y="469.4" width="260.07" height="336.19" rx="12" ry="12"/>
    <circle class="cls-31" cx="256.27" cy="780.22" r="12.69"/>
    <path class="cls-13" d="M185.58,696.13c-1.87,4.67-6.43,7.98-11.77,7.98-7,0-12.69-5.68-12.69-12.69s5.68-12.69,12.69-12.69c2.04,0,3.96.49,5.67,1.35l2.83-5.67c-2.56-1.28-5.44-2.03-8.5-2.03-10.5,0-19.03,8.53-19.03,19.03s8.53,19.03,19.03,19.03c8.01,0,14.85-4.96,17.66-11.97l-5.89-2.35Z"/>
    <path class="cls-16" d="M299.76,696.13c-1.87,4.67-6.43,7.98-11.77,7.98-7,0-12.69-5.68-12.69-12.69s5.68-12.69,12.69-12.69c2.04,0,3.96.49,5.67,1.35l2.83-5.67c-2.56-1.28-5.44-2.03-8.5-2.03-10.5,0-19.03,8.53-19.03,19.03s8.53,19.03,19.03,19.03c8.01,0,14.85-4.96,17.66-11.97l-5.89-2.35Z"/>
    <path class="cls-29" d="M340.37,703.19c-4.67-1.87-7.98-6.43-7.98-11.77,0-7,5.68-12.69,12.69-12.69s12.69,5.68,12.69,12.69c0,2.04-.49,3.96-1.35,5.67l5.67,2.83c1.28-2.56,2.03-5.44,2.03-8.5,0-10.5-8.53-19.03-19.03-19.03s-19.03,8.53-19.03,19.03c0,8.01,4.96,14.85,11.97,17.66l2.35-5.89Z"/>
    <path class="cls-14" d="M221.57,682.82c-3.41,3.7-4.43,9.24-2.13,14.06,3.02,6.32,10.6,9,16.92,5.98,6.32-3.02,9-10.6,5.98-16.92-.88-1.84-2.15-3.36-3.66-4.53l3.89-5c2.26,1.76,4.17,4.04,5.49,6.8,4.53,9.48.51,20.85-8.97,25.37-9.48,4.53-20.85.51-25.37-8.97-3.45-7.22-1.92-15.54,3.19-21.09l4.66,4.3Z"/>
    <circle class="cls-23" cx="1004.78" cy="234.7" r="50.75"/>
    <circle class="cls-20" cx="1004.78" cy="234.7" r="50.75"/>
    <rect class="cls-6" x="979.4" y="215.67" width="50.75" height="38.06" rx="2" ry="2"/>
    <rect class="cls-20" x="979.4" y="215.67" width="50.75" height="38.06" rx="2" ry="2"/>
    <line class="cls-20" x1="979.4" y1="234.7" x2="1030.15" y2="234.7"/>
    <line class="cls-9" x1="161.12" y1="723.13" x2="186.49" y2="723.13"/>
    <line class="cls-9" x1="161.12" y1="735.82" x2="186.49" y2="735.82"/>
    <line class="cls-9" x1="218.21" y1="723.13" x2="243.58" y2="723.13"/>
    <line class="cls-9" x1="218.21" y1="735.82" x2="243.58" y2="735.82"/>
    <line class="cls-9" x1="275.3" y1="723.13" x2="300.67" y2="723.13"/>
    <line class="cls-9" x1="275.3" y1="735.82" x2="300.67" y2="735.82"/>
    <line class="cls-9" x1="332.39" y1="723.13" x2="357.76" y2="723.13"/>
    <line class="cls-9" x1="332.39" y1="735.82" x2="357.76" y2="735.82"/>
    <rect class="cls-32" x="161.12" y="520.15" width="25.37" height="133.21"/>
    <rect class="cls-35" x="161.12" y="596.27" width="25.37" height="57.09"/>
    <rect class="cls-13" x="161.12" y="615.3" width="25.37" height="38.06"/>
    <rect class="cls-12" x="218.21" y="520.15" width="25.37" height="133.21"/>
    <rect class="cls-22" x="218.21" y="570.9" width="25.37" height="82.46"/>
    <rect class="cls-14" x="218.21" y="634.33" width="25.37" height="19.03"/>
    <rect class="cls-30" x="275.3" y="520.15" width="25.37" height="133.21"/>
    <rect class="cls-37" x="275.3" y="596.27" width="25.37" height="57.09"/>
    <rect class="cls-16" x="275.3" y="615.3" width="25.37" height="38.06"/>
    <rect class="cls-15" x="332.39" y="520.15" width="25.37" height="133.21"/>
    <rect class="cls-33" x="332.39" y="551.87" width="25.37" height="101.49"/>
    <rect class="cls-29" x="332.39" y="634.33" width="25.37" height="19.03"/>
    <line class="cls-3" x1="154.78" y1="830.97" x2="211.87" y2="830.97"/>
    <line class="cls-3" x1="237.24" y1="830.97" x2="712.98" y2="830.97"/>
    <line class="cls-3" x1="751.04" y1="830.97" x2="833.51" y2="830.97"/>
    <line class="cls-3" x1="871.57" y1="830.97" x2="1125.3" y2="830.97"/>
    <circle class="cls-31" cx="988.92" cy="225.19" r="3.17"/>
    <circle class="cls-31" cx="1001.6" cy="225.19" r="3.17"/>
    <path class="cls-6" d="M1273.73,304.48h-55.82c-5.61,0-10.15,4.54-10.15,10.15v30.45c0,5.61,4.54,10.15,10.15,10.15h21.57l25.37,19.03v-19.03h8.88c5.61,0,10.15-4.54,10.15-10.15v-30.45c0-5.61-4.54-10.15-10.15-10.15Z"/>
    <path class="cls-5" d="M1273.73,304.48h-55.82c-5.61,0-10.15,4.54-10.15,10.15v30.45c0,5.61,4.54,10.15,10.15,10.15h21.57l25.37,19.03v-19.03h8.88c5.61,0,10.15-4.54,10.15-10.15v-30.45c0-5.61-4.54-10.15-10.15-10.15Z"/>
    <line class="cls-4" x1="1220.45" y1="323.51" x2="1264.85" y2="323.51"/>
    <line class="cls-4" x1="1220.45" y1="336.19" x2="1245.82" y2="336.19"/>
    <path class="cls-6" d="M1173.51,348.88h55.82c5.61,0,10.15,4.54,10.15,10.15v30.45c0,5.61-4.54,10.15-10.15,10.15h-21.57s-25.37,19.03-25.37,19.03v-19.03s-8.88,0-8.88,0c-5.61,0-10.15-4.54-10.15-10.15v-30.45c0-5.61,4.54-10.15,10.15-10.15Z"/>
    <path class="cls-18" d="M1173.51,348.88h55.82c5.61,0,10.15,4.54,10.15,10.15v30.45c0,5.61-4.54,10.15-10.15,10.15h-21.57s-25.37,19.03-25.37,19.03v-19.03s-8.88,0-8.88,0c-5.61,0-10.15-4.54-10.15-10.15v-30.45c0-5.61,4.54-10.15,10.15-10.15Z"/>
    <line class="cls-18" x1="1176.04" y1="367.91" x2="1220.45" y2="367.91"/>
    <line class="cls-18" x1="1176.04" y1="380.6" x2="1201.42" y2="380.6"/>
    <g>
      <line class="cls-20" x1="256.27" y1="469.4" x2="256.27" y2="464.33"/>
      <path class="cls-17" d="M256.27,446.36V134.48c0-4.2,3.41-7.61,7.61-7.61h417.39c3.5,0,6.34,2.84,6.34,6.34v30.35"/>
      <line class="cls-20" x1="687.61" y1="172.54" x2="687.61" y2="177.61"/>
    </g>
    <line class="cls-11" x1="310.19" y1="38.06" x2="310.19" y2="57.09"/>
    <line class="cls-11" x1="300.67" y1="47.57" x2="319.7" y2="47.57"/>
    <line class="cls-11" x1="291.16" y1="177.61" x2="291.16" y2="196.64"/>
    <line class="cls-11" x1="281.64" y1="187.13" x2="300.67" y2="187.13"/>
    <line class="cls-11" x1="430.71" y1="69.78" x2="430.71" y2="88.81"/>
    <line class="cls-11" x1="421.19" y1="79.29" x2="440.22" y2="79.29"/>
    <line class="cls-11" x1="208.69" y1="272.76" x2="208.69" y2="291.79"/>
    <line class="cls-11" x1="199.18" y1="282.28" x2="218.21" y2="282.28"/>
    <line class="cls-11" x1="310.19" y1="380.6" x2="310.19" y2="399.63"/>
    <line class="cls-11" x1="300.67" y1="390.11" x2="319.7" y2="390.11"/>
    <circle class="cls-13" cx="218.21" cy="374.25" r="6.34"/>
    <circle class="cls-13" cx="287.98" cy="431.34" r="6.34"/>
    <circle class="cls-13" cx="345.07" cy="241.04" r="6.34"/>
    <circle class="cls-13" cx="268.96" cy="76.12" r="6.34"/>
    <circle class="cls-13" cx="370.45" cy="95.15" r="6.34"/>
    <path class="cls-30" d="M954.96,586.97l-.92-32.49c-.07-2.44,3-3.56,4.52-1.65l20.24,25.44"/>
    <path class="cls-34" d="M965.36,561.38c-1.33,1.47-3.02,2.64-5.01,3.37s-4.04.92-6,.65l-.31-10.92c-.07-2.43,3.01-3.56,4.53-1.65l6.8,8.55Z"/>
    <path class="cls-14" d="M1077.51,805.6h-82.05c-7.64,0-14.09-5.66-15.09-13.23l-19.25-145.95c-.4-3.04,1.96-5.74,5.03-5.74h140.66c3.07,0,5.43,2.7,5.03,5.74l-19.25,145.95c-1,7.57-7.45,13.23-15.09,13.23Z"/>
    <rect class="cls-13" x="967.25" y="580.31" width="25.37" height="76.12" transform="translate(-152.67 373.72) rotate(-20.06)"/>
    <rect class="cls-28" x="979.55" y="578.14" width="12.69" height="76.12" transform="translate(-151.57 375.63) rotate(-20.06)"/>
    <rect class="cls-20" x="967.25" y="580.31" width="25.37" height="76.12" transform="translate(-152.67 373.72) rotate(-20.06)"/>
    <path class="cls-27" d="M1111.85,646.41l-19.25,145.96c-.99,7.57-7.45,13.23-15.08,13.23h-18.32c7.64,0,14.09-5.66,15.08-13.23l19.26-145.96c.39-3.03-1.97-5.73-5.04-5.73h18.32c3.06,0,5.43,2.7,5.02,5.73Z"/>
    <polygon class="cls-27" points="1107.59 678.73 1105.08 697.76 967.91 697.76 965.4 678.73 1107.59 678.73"/>
    <path class="cls-20" d="M954.96,586.97l-.92-32.49c-.07-2.44,3-3.56,4.52-1.65l20.24,25.44"/>
    <path class="cls-20" d="M1077.51,805.6h-82.05c-7.64,0-14.09-5.66-15.09-13.23l-19.25-145.95c-.4-3.04,1.96-5.74,5.03-5.74h140.66c3.07,0,5.43,2.7,5.03,5.74l-19.25,145.95c-1,7.57-7.45,13.23-15.09,13.23Z"/>
    <rect class="cls-14" x="954.03" y="640.67" width="164.93" height="38.06" rx="7" ry="7"/>
    <path class="cls-27" d="M1118.95,649.55v20.3c0,4.91-3.97,8.88-8.88,8.88h-19.03c4.91,0,8.88-3.97,8.88-8.88v-20.3c0-4.91-3.97-8.88-8.88-8.88h19.03c4.91,0,8.88,3.97,8.88,8.88Z"/>
    <rect class="cls-20" x="954.03" y="640.67" width="164.93" height="38.06" rx="7" ry="7"/>
    <circle class="cls-6" cx="256.27" cy="469.4" r="12.69"/>
    <circle class="cls-20" cx="256.27" cy="469.4" r="12.69"/>
    <circle class="cls-6" cx="687.61" cy="177.61" r="12.69"/>
    <circle class="cls-20" cx="687.61" cy="177.61" r="12.69"/>
  </g>
</svg>