<?xml version="1.0" encoding="UTF-8"?>
<svg xmlns="http://www.w3.org/2000/svg" xmlns:xlink="http://www.w3.org/1999/xlink" width="48px" height="60px" viewBox="0 0 48 60" version="1.1">
    <!-- Generator: Sketch 51.1 (57501) - http://www.bohemiancoding.com/sketch -->
    <title>022 - Sink</title>
    <desc>Created with Sketch.</desc>
    <defs/>
    <g id="Page-1" stroke="none" stroke-width="1" fill="none" fill-rule="evenodd">
        <g id="022---Sink" fill-rule="nonzero">
            <g id="Icons_copy_2" transform="translate(1.000000, 1.000000)">
                <rect id="Rectangle-path" fill="#FFFFFF" x="0" y="34" width="46" height="4" rx="2"/>
                <path d="M44,34 L41,34 C42.1045695,34 43,34.8954305 43,36 C43,37.1045695 42.1045695,38 41,38 L44,38 C45.1045695,38 46,37.1045695 46,36 C46,34.8954305 45.1045695,34 44,34 Z" id="Shape" fill="#EBEBEB"/>
                <path d="M34.474,52 L11.526,52 C8.84707973,51.9998942 6.4928101,50.2238877 5.757,47.648 L3,38 L43,38 L40.243,47.648 C39.5071899,50.2238877 37.1529203,51.9998942 34.474,52 Z" id="Shape" fill="#EBEBEB"/>
                <path d="M40,38 L37.243,47.648 C36.5071899,50.2238877 34.1529203,51.9998942 31.474,52 L34.474,52 C37.1529203,51.9998942 39.5071899,50.2238877 40.243,47.648 L43,38 L40,38 Z" id="Shape" fill="#D8D8D8"/>
                <path d="M20,52 L26,52 L26,55 C26,56.6568542 24.6568542,58 23,58 C21.3431458,58 20,56.6568542 20,55 L20,52 Z" id="Shape" fill="#DBDCDE"/>
                <ellipse id="Oval" fill="#EBEBEB" cx="23" cy="15" rx="14" ry="15"/>
                <path d="M23,0 C22.4987055,0.000827549908 21.9978752,0.0305434795 21.5,0.089 C28.526,0.891 34,7.259 34,15 C34,22.741 28.526,29.109 21.5,29.911 C21.9978752,29.9694565 22.4987055,29.9991725 23,30 C30.732,30 37,23.284 37,15 C37,6.716 30.732,0 23,0 Z" id="Shape" fill="#D8D8D8"/>
            </g>
            <g id="Icons" transform="translate(1.000000, 1.000000)" fill="#FFFFFF">
                <path d="M2,38 L3,38 L5.757,47.648 C6.4928101,50.2238877 8.84707973,51.9998942 11.526,52 L14.526,52 C11.8470797,51.9998942 9.4928101,50.2238877 8.757,47.648 L6,38 L5,38 C3.8954305,38 3,37.1045695 3,36 C3,34.8954305 3.8954305,34 5,34 L2,34 C0.8954305,34 0,34.8954305 0,36 C0,37.1045695 0.8954305,38 2,38 Z" id="Shape"/>
                <path d="M24.5,0.089 C24.0021248,0.0305434795 23.5012945,0.000827549908 23,4.4408921e-16 C15.268,0 9,6.716 9,15 C9,23.284 15.268,30 23,30 C23.5012945,29.9991725 24.0021248,29.9694565 24.5,29.911 C17.474,29.109 12,22.741 12,15 C12,7.259 17.474,0.891 24.5,0.089 Z" id="Shape"/>
                <path d="M23,55 L23,52 L20,52 L20,55 C20,56.6568542 21.3431458,58 23,58 C23.5281059,57.9972547 24.0459153,57.8536489 24.5,57.584 C23.574188,57.0525807 23.0023458,56.0674872 23,55 Z" id="Shape"/>
            </g>
            <g id="Icons_copy" fill="#A7A7A7">
                <rect id="Rectangle-path" transform="translate(5.098392, 42.846480) rotate(-15.945000) translate(-5.098392, -42.846480) " x="4.09839214" y="38.8464803" width="2" height="8"/>
                <path d="M5.119,43.846 C4.56671527,43.8487614 4.11676148,43.4032847 4.11400006,42.851 C4.11123863,42.2987153 4.55671527,41.8487615 5.109,41.846 L5.119,41.846 C5.67128475,41.846 6.119,42.2937153 6.119,42.846 C6.119,43.3982847 5.67128475,43.846 5.119,43.846 Z" id="Shape"/>
                <path d="M19,32 C18.4477153,32 18,32.4477153 18,33 L18,34 L3,34 C1.34314575,34 0,35.3431458 0,37 C0,38.6568542 1.34314575,40 3,40 L42.674,40 L40.282,48.374 C39.6624192,50.5162874 37.7040738,51.9931926 35.474,52 L12.526,52 C10.4208496,51.9991043 8.541751,50.6797372 7.826,48.7 C7.721,48.408 7.605,47.979 7.494,47.594 L7.158,46.417 C7.00612169,45.8859782 6.45252179,45.5786217 5.9215,45.7305 C5.39047821,45.8823783 5.08312169,46.4359782 5.235,46.967 L5.571,48.143 C5.688,48.543 5.779,48.902 5.945,49.38 C6.94717616,52.1519767 9.57842284,53.999167 12.526,54 L20,54 L20,56 C20,58.209139 21.790861,60 24,60 C26.209139,60 28,58.209139 28,56 L28,54 L35.474,54 C38.596129,53.9901038 41.3376546,51.9222498 42.205,48.923 L44.754,40 L45,40 C46.6568542,40 48,38.6568542 48,37 C48,35.3431458 46.6568542,34 45,34 L30,34 L30,33 C30,32.4477153 29.5522847,32 29,32 C28.4477153,32 28,32.4477153 28,33 L28,34 L25,34 L25,31.946 C32.805,31.393 39,24.462 39,16 C39,7.178 32.271,0 24,0 C15.729,0 9,7.178 9,16 C9,24.462 15.2,31.393 23,31.946 L23,34 L20,34 L20,33 C20,32.4477153 19.5522847,32 19,32 Z M26,56 C26,57.1045695 25.1045695,58 24,58 C22.8954305,58 22,57.1045695 22,56 L22,54 L26,54 L26,56 Z M11,16 C11,8.28 16.832,2 24,2 C31.168,2 37,8.28 37,16 C37,23.356 31.7,29.392 25,29.945 L25,25 C25,24.4477153 25.4477153,24 26,24 C26.5522847,24 27,24.4477153 27,25 L27,26 C27,26.5522847 27.4477153,27 28,27 C28.5522847,27 29,26.5522847 29,26 L29,25 C29,23.3431458 27.6568542,22 26,22 C24.3431458,22 23,23.3431458 23,25 L23,29.945 C16.3,29.392 11,23.356 11,16 Z M46,37 C46,37.5522847 45.5522847,38 45,38 L3,38 C2.44771525,38 2,37.5522847 2,37 C2,36.4477153 2.44771525,36 3,36 L45,36 C45.5522847,36 46,36.4477153 46,37 Z" id="Shape"/>
            </g>
            <g id="Highlights" transform="translate(16.000000, 6.000000)" fill="#A7A7A7">
                <path d="M1,4 C0.595604102,3.99991365 0.23106595,3.7562725 0.0763220219,3.38265456 C-0.078421906,3.00903662 0.00709208442,2.57899425 0.293,2.293 L1.293,1.293 C1.54407447,1.03304342 1.91587789,0.928787403 2.26550732,1.02030284 C2.61513676,1.11181828 2.88818172,1.38486324 2.97969716,1.73449268 C3.0712126,2.08412211 2.96695658,2.45592553 2.707,2.707 L1.707,3.707 C1.51950727,3.89454937 1.26519481,3.99994336 1,4 Z" id="Shape"/>
                <path d="M1,10 C0.595604102,9.99991365 0.23106595,9.7562725 0.0763220219,9.38265456 C-0.078421906,9.00903662 0.00709208442,8.57899425 0.293,8.293 L7.293,1.293 C7.54407447,1.03304342 7.91587789,0.928787403 8.26550732,1.02030284 C8.61513676,1.11181828 8.88818172,1.38486324 8.97969716,1.73449268 C9.0712126,2.08412211 8.96695658,2.45592553 8.707,2.707 L1.707,9.707 C1.51950727,9.89454937 1.26519481,9.99994336 1,10 Z" id="Shape"/>
            </g>
        </g>
    </g>
</svg>
