<?xml version="1.0" encoding="UTF-8" standalone="no"?>
<svg width="56px" height="60px" viewBox="0 0 56 60" version="1.1" xmlns="http://www.w3.org/2000/svg" xmlns:xlink="http://www.w3.org/1999/xlink">
    <!-- Generator: Sketch 43.1 (39012) - http://www.bohemiancoding.com/sketch -->
    <title>053 - Leaking Pipe</title>
    <desc>Created with Sketch.</desc>
    <defs></defs>
    <g id="Page-1" stroke="none" stroke-width="1" fill="none" fill-rule="evenodd">
        <g id="053---Leaking-Pipe" fill-rule="nonzero">
            <g id="Colour_copy" transform="translate(1.000000, 1.000000)">
                <rect id="Rectangle-path" fill="#D8D8D8" x="2" y="5" width="23" height="10" rx="2"></rect>
                <path d="M23,5 L20,5 C21.1032019,5.0032948 21.9967052,5.89679813 22,7 L22,13 C21.9967052,14.1032019 21.1032019,14.9967052 20,15 L23,15 C24.1032019,14.9967052 24.9967052,14.1032019 25,13 L25,7 C24.9967052,5.89679813 24.1032019,5.0032948 23,5 L23,5 Z" id="Shape" fill="#DBDCDE"></path>
                <path d="M23,15 L21.41,20.55 C21.2238915,21.22897 20.6840434,21.7535032 20,21.92 L7,21.92 C6.31595655,21.7535032 5.77610847,21.22897 5.59,20.55 L4,15 L23,15 Z" id="Shape" fill="#DBDCDE"></path>
                <path d="M20,21.92 C19.8362284,21.9772558 19.6634368,22.0043603 19.49,22 L7.51,22 C7.33656315,22.0043603 7.16377157,21.9772558 7,21.92 L20,21.92 Z" id="Shape" fill="#EBEBEB"></path>
                <rect id="Rectangle-path" fill="#D8D8D8" x="39" y="30" width="10" height="23" rx="2"></rect>
                <path d="M47,30 L44,30 C45.1032019,30.0032948 45.9967052,30.8967981 46,32 L46,51 C45.9967052,52.1032019 45.1032019,52.9967052 44,53 L47,53 C48.1032019,52.9967052 48.9967052,52.1032019 49,51 L49,32 C48.9967052,30.8967981 48.1032019,30.0032948 47,30 Z" id="Shape" fill="#DBDCDE"></path>
                <path d="M39,32 L39,51 L33.45,49.41 C32.77103,49.2238915 32.2464968,48.6840434 32.08,48 L32.08,35 C32.2464968,34.3159566 32.77103,33.7761085 33.45,33.59 L39,32 Z" id="Shape" fill="#DBDCDE"></path>
                <path d="M32.08,35 L32.08,48 C32.0227442,47.8362284 31.9956397,47.6634368 32,47.49 L32,35.51 C31.9956397,35.3365632 32.0227442,35.1637716 32.08,35 L32.08,35 Z" id="Shape" fill="#EBEBEB"></path>
                <path d="M32,47.49 C31.9956397,47.6634368 32.0227442,47.8362284 32.08,48 L21.5,48 C13.4941569,47.9944844 7.00551557,41.5058431 7,33.5 L7,21.92 C7.16377157,21.9772558 7.33656315,22.0043603 7.51,22 L19.49,22 C19.6634368,22.0043603 19.8362284,21.9772558 20,21.92 L20,33.5 C20,34.3284271 20.6715729,35 21.5,35 L32.08,35 C32.0227442,35.1637716 31.9956397,35.3365632 32,35.51 L32,47.49 Z" id="Shape" fill="#D8D8D8"></path>
                <path d="M20,21.92 C19.8362284,21.9772558 19.6634368,22.0043603 19.49,22 L7.51,22 C7.33656315,22.0043603 7.16377157,21.9772558 7,21.92 L20,21.92 Z" id="Shape" fill="#EBEBEB"></path>
                <path d="M32.08,35 L32.08,48 C32.0227442,47.8362284 31.9956397,47.6634368 32,47.49 L32,35.51 C31.9956397,35.3365632 32.0227442,35.1637716 32.08,35 L32.08,35 Z" id="Shape" fill="#EBEBEB"></path>
                <path d="M54,33 L54,50 C54,50.5522847 53.5522847,51 53,51 L49,51 L49,32 L53,32 C53.5522847,32 54,32.4477153 54,33 Z" id="Shape" fill="#EBEBEB"></path>
                <path d="M23,1 L23,5 L4,5 L4,1 C4,0.44771525 4.44771525,0 5,0 L22,0 C22.5522847,0 23,0.44771525 23,1 Z" id="Shape" fill="#EBEBEB"></path>
                <path d="M10,53 C10,55.7614237 7.76142375,58 5,58 C2.23857625,58 8.8817842e-16,55.7614237 4.4408921e-16,53 C4.4408921e-16,47.572 5,44 5,44 C5,44 10,47.572 10,53 Z" id="Shape" fill="#EBEBEB"></path>
                <path d="M5,44 C4.4660549,44.404964 3.96453192,44.8509852 3.5,45.334 C5.61108237,47.3427374 6.86495628,50.0890795 7,53 C6.9944634,55.1764172 5.57761472,57.097664 3.5,57.746 C5.01625578,58.2526858 6.68400908,57.993652 7.97514356,57.0509252 C9.26627804,56.1081984 10.020882,54.5985387 10,53 C10,47.572 5,44 5,44 Z" id="Shape" fill="#D8D8D8"></path>
            </g>
            <g id="Colour" transform="translate(1.000000, 1.000000)" fill="#FFFFFF">
                <path d="M3,53 C3.13453097,50.0889555 4.38848807,47.3424312 6.5,45.334 C6.03546808,44.8509852 5.5339451,44.404964 5,44 L4.967,44.024 L4.902,44.074 L4.869,44.099 C4.759,44.184 4.579,44.329 4.348,44.531 L4.342,44.536 C4.265,44.603 4.185,44.676 4.098,44.755 L4.068,44.782 C2.623,46.112 0,49.064 0,53 C0.00553659626,55.1764172 1.42238528,57.097664 3.5,57.746 L3.5,57.746 C3.72424067,57.8197287 3.95350045,57.8772108 4.186,57.918 C4.45416522,57.9707743 4.72669693,57.9982283 5,58 C5.51007814,57.992879 6.01601378,57.9072072 6.5,57.746 C4.42238528,57.097664 3.0055366,55.1764172 3,53 L3,53 Z" id="Shape"></path>
                <path d="M10,33.5 L10,21.92 C9.31595655,21.7535032 8.77610847,21.22897 8.59,20.55 L7,15 C5.89679813,14.9967052 5.0032948,14.1032019 5,13 L5,7 C5.0032948,5.89679813 5.89679813,5.0032948 7,5 L7,1 C7,0.44771525 7.44771525,0 8,0 L5,0 C4.44771525,0 4,0.44771525 4,1 L4,5 C2.89679813,5.0032948 2.0032948,5.89679813 2,7 L2,13 C2.0032948,14.1032019 2.89679813,14.9967052 4,15 L5.59,20.55 C5.77610847,21.22897 6.31595655,21.7535032 7,21.92 L7,33.5 C7.00551557,41.5058431 13.4941569,47.9944844 21.5,48 L24.5,48 C16.4941569,47.9944844 10.0055156,41.5058431 10,33.5 L10,33.5 Z" id="Shape"></path>
            </g>
            <g id="Icons">
                <rect id="Rectangle-path" fill="#FFFFFF" x="7" y="22.92" width="2" height="8"></rect>
                <circle id="Oval" fill="#A7A7A7" cx="8" cy="26.92" r="1"></circle>
                <path d="M54,32 L50.816,32 C50.3937454,30.8056491 49.2667854,30.0052514 48,30 L42,30 C40.6516155,30.0055709 39.4726167,30.91007 39.118,32.211 L34.176,33.624 C33.4351771,33.8396579 32.8059275,34.3324567 32.419,35 L22.5,35 C22.2238576,35 22,34.7761424 22,34.5 L22,23.581 C22.6675433,23.1940725 23.1603421,22.5648229 23.376,21.824 L24.788,16.882 C26.0893266,16.5277587 26.9943053,15.348668 27,14 L27,8 C26.9947486,6.73321457 26.1943509,5.60625455 25,5.184 L25,2 C25,0.8954305 24.1045695,6.76353751e-17 23,0 L6,0 C4.8954305,-6.76353751e-17 4,0.8954305 4,2 L4,5.184 C2.80564913,5.60625455 2.00525139,6.73321457 2,8 L2,14 C2.00569466,15.348668 2.91067342,16.5277587 4.212,16.882 L5.624,21.825 C5.99639364,23.1099272 7.17120495,23.9956168 8.509,24 L20,24 L20,34.5 C20,35.8807119 21.1192881,37 22.5,37 L32,37 L32,48 L22.5,48 C19.272598,48.0001238 16.1530336,46.8382742 13.712,44.727 L16.555,42.832 C16.8330697,42.6464754 17.00005,42.3342785 17,42 L17,40 L19.586,40 L21.293,41.707 C21.6853789,42.0859722 22.3090848,42.0805524 22.6948186,41.6948186 C23.0805524,41.3090848 23.0859722,40.6853789 22.707,40.293 L20.707,38.293 C20.5195073,38.1054506 20.2651948,38.0000566 20,38 L16.414,38 L14.287,35.873 L15.832,33.555 C16.138518,33.0954991 16.0145009,32.4745181 15.555,32.168 C15.0954991,31.861482 14.474518,31.9854991 14.168,32.445 L12.168,35.445 C11.9034926,35.8416765 11.9558147,36.3699206 12.293,36.707 L15,39.414 L15,41.465 L12.27,43.284 C10.1605547,40.8436705 8.99982479,37.7256732 9,34.5 L9,30.92 C9,30.3677153 8.55228475,29.92 8,29.92 C7.44771525,29.92 7,30.3677153 7,30.92 L7,34.5 C7.00052477,38.4652335 8.52785491,42.2780082 11.265,45.147 L11.265,45.154 C11.3206486,45.234595 11.3880644,45.3063928 11.465,45.367 C14.3714451,48.3312535 18.3485881,50.0010408 22.5,50 L32.419,50 C32.8059275,50.6675433 33.4351771,51.1603421 34.176,51.376 L39.119,52.789 C39.4717155,54.0907822 40.6512861,54.996034 42,55 L48,55 C49.2667854,54.9947486 50.3937454,54.1943509 50.816,53 L54,53 C55.1045695,53 56,52.1045695 56,51 L56,34 C56,32.8954305 55.1045695,32 54,32 Z M25,14 C25,14.5522847 24.5522847,15 24,15 L20,15 L20,7 L24,7 C24.5522847,7 25,7.44771525 25,8 L25,14 Z M11,15 L11,7 L18,7 L18,15 L11,15 Z M6,2 L23,2 L23,5 L6,5 L6,2 Z M4,8 C4,7.44771525 4.44771525,7 5,7 L9,7 L9,15 L5,15 C4.44771525,15 4,14.5522847 4,14 L4,8 Z M7.547,21.275 L6.326,17 L22.674,17 L21.453,21.274 C21.3305608,21.7037572 20.9378586,22.0001208 20.491,22 L8.509,22 C8.06242116,22.0002482 7.66980913,21.7043607 7.547,21.275 Z M41,39 L49,39 L49,46 L41,46 L41,39 Z M42,32 L48,32 C48.5522847,32 49,32.4477153 49,33 L49,37 L41,37 L41,33 C41,32.4477153 41.4477153,32 42,32 Z M34,48.491 L34,36.509 C34.0003258,36.0625122 34.2965993,35.6703376 34.726,35.548 L39,34.326 L39,50.674 L34.725,49.452 C34.2959957,49.3292928 34.0001982,48.9372082 34,48.491 L34,48.491 Z M48,53 L42,53 C41.4477153,53 41,52.5522847 41,52 L41,48 L49,48 L49,52 C49,52.5522847 48.5522847,53 48,53 Z M54,51 L51,51 L51,34 L54,34 L54,51 Z" id="Shape" fill="#A7A7A7"></path>
                <path d="M6.582,44.187 C6.23397529,43.9379184 5.76602471,43.9379184 5.418,44.187 C5.2,44.345 0,48.125 0,54 C4.93781043e-08,57.3137085 2.68629154,59.9999999 6,59.9999999 C9.31370846,59.9999999 12,57.3137085 12,54 C12,48.125 6.8,44.345 6.582,44.187 Z M6,58 C3.790861,58 2,56.209139 2,54 C2,50.228 4.765,47.375 6,46.29 C7.235,47.375 10,50.228 10,54 C10,56.209139 8.209139,58 6,58 Z" id="Shape" fill="#A7A7A7"></path>
            </g>
        </g>
    </g>
</svg>