<?xml version="1.0" encoding="UTF-8"?>
<svg xmlns="http://www.w3.org/2000/svg" xmlns:xlink="http://www.w3.org/1999/xlink" width="61px" height="61px" version="1.1" viewBox="0 0 61 61">
    <!-- Generator: Sketch 50 (54983) - http://www.bohemiancoding.com/sketch -->
    <title>085 - Winter Season</title>
    <desc>Created with Sketch.</desc>
    <defs/>
    <g id="Page-1" stroke="none" stroke-width="1" fill="none" fill-rule="evenodd">
        <g id="085---Winter-Season" fill-rule="nonzero">
            <path d="M59,9 L59,13 L1,13 L1,9 C1,6.79 2.79,5 5,5 L55,5 C57.21,5 59,6.79 59,9 Z" id="Shape" fill="#DBDCDE"/>
            <path d="M55,5 L52,5 C54.21,5 56,6.79 56,9 L56,13 L59,13 L59,9 C59,6.79 57.21,5 55,5 Z" id="Shape" fill="#C0C0C0"/>
            <path d="M59,13 L59,55 C59,57.21 57.21,59 55,59 L5,59 C2.79,59 1,57.21 1,55 L1,13 L59,13 Z" id="Shape" fill="#EBEBEB"/>
            <path d="M56,13 L56,55 C56,57.21 54.21,59 52,59 L55,59 C57.21,59 59,57.21 59,55 L59,13 L56,13 Z" id="Shape" fill="#D8D8D8"/>
            <rect id="Rectangle-path" fill="#C1C2C3" x="28" y="1" width="4" height="8" rx="2"/>
            <rect id="Rectangle-path" fill="#C1C2C3" x="18" y="1" width="4" height="8" rx="2"/>
            <rect id="Rectangle-path" fill="#C1C2C3" x="8" y="1" width="4" height="8" rx="2"/>
            <rect id="Rectangle-path" fill="#C1C2C3" x="48" y="1" width="4" height="8" rx="2"/>
            <rect id="Rectangle-path" fill="#C1C2C3" x="38" y="1" width="4" height="8" rx="2"/>
            <path d="M5,59 L8,59 C5.79,59 4,57.21 4,55 L4,9 C4,6.79 5.79,5 8,5 L5,5 C2.79,5 1,6.79 1,9 L1,55 C1,57.21 2.79,59 5,59 Z" id="Shape" fill="#FFFFFF"/>
            <rect id="Rectangle-path" fill="#FFFFFF" x="0" y="47" width="2" height="8"/>
            <circle id="Oval" fill="#A7A7A7" cx="1" cy="51" r="1"/>
            <path d="M55,4 L53,4 L53,3 C53,1.346 51.654,0 50,0 C48.346,0 47,1.346 47,3 L47,4 L43,4 L43,3 C43,1.346 41.654,0 40,0 C38.346,0 37,1.346 37,3 L37,4 L33,4 L33,3 C33,1.346 31.654,0 30,0 C28.346,0 27,1.346 27,3 L27,4 L23,4 L23,3 C23,1.346 21.654,0 20,0 C18.346,0 17,1.346 17,3 L17,4 L13,4 L13,3 C13,1.346 11.654,0 10,0 C8.346,0 7,1.346 7,3 L7,4 L5,4 C2.243,4 0,6.243 0,9 L0,47 C0,47.552 0.448,48 1,48 C1.552,48 2,47.552 2,47 L2,14 L58,14 L58,55 C58,56.654 56.654,58 55,58 L5,58 C3.346,58 2,56.654 2,55 C2,54.447 1.552,54 1,54 C0.448,54 0,54.447 0,55 C0,57.757 2.243,60 5,60 L55,60 C57.757,60 60,57.757 60,55 L60,9 C60,6.243 57.757,4 55,4 Z M49,3 C49,2.448 49.448,2 50,2 C50.552,2 51,2.448 51,3 L51,7 C51,7.552 50.552,8 50,8 C49.448,8 49,7.552 49,7 L49,3 Z M39,3 C39,2.448 39.449,2 40,2 C40.551,2 41,2.448 41,3 L41,7 C41,7.552 40.551,8 40,8 C39.449,8 39,7.552 39,7 L39,3 Z M29,3 C29,2.448 29.449,2 30,2 C30.551,2 31,2.448 31,3 L31,7 C31,7.552 30.551,8 30,8 C29.449,8 29,7.552 29,7 L29,3 Z M19,3 C19,2.448 19.449,2 20,2 C20.551,2 21,2.448 21,3 L21,7 C21,7.552 20.551,8 20,8 C19.449,8 19,7.552 19,7 L19,3 Z M9,3 C9,2.448 9.449,2 10,2 C10.551,2 11,2.448 11,3 L11,7 C11,7.552 10.551,8 10,8 C9.449,8 9,7.552 9,7 L9,3 Z M2,12 L2,9 C2,7.346 3.346,6 5,6 L7,6 L7,7 C7,8.654 8.346,10 10,10 C11.654,10 13,8.654 13,7 L13,6 L17,6 L17,7 C17,8.654 18.346,10 20,10 C21.654,10 23,8.654 23,7 L23,6 L27,6 L27,7 C27,8.654 28.346,10 30,10 C31.654,10 33,8.654 33,7 L33,6 L37,6 L37,7 C37,8.654 38.346,10 40,10 C41.654,10 43,8.654 43,7 L43,6 L47,6 L47,7 C47,8.654 48.346,10 50,10 C51.654,10 53,8.654 53,7 L53,6 L55,6 C56.654,6 58,7.346 58,9 L58,12 L2,12 Z" id="Shape" fill="#A7A7A7"/>
            <path d="M13.17,41.437 C12.634,41.292 12.087,41.611 11.945,42.144 C11.802,42.677 12.119,43.226 12.652,43.369 L14.418,43.842 L13.045,44.635 C12.566,44.911 12.403,45.523 12.679,46.001 C12.865,46.322 13.2,46.501 13.546,46.501 C13.715,46.501 13.888,46.458 14.045,46.367 L15.419,45.574 L14.946,47.34 C14.803,47.873 15.119,48.422 15.653,48.565 C15.739,48.588 15.827,48.599 15.912,48.599 C16.354,48.599 16.758,48.305 16.877,47.858 L17.868,44.161 L20.615,42.575 L19.41,47.073 C19.267,47.606 19.583,48.155 20.117,48.298 C20.204,48.321 20.291,48.332 20.376,48.332 C20.817,48.332 21.222,48.038 21.341,47.591 L23.064,41.161 L24.508,40.328 C25.595,41.705 27.185,42.661 29,42.922 L29,44.588 L24.293,49.295 C23.902,49.686 23.902,50.318 24.293,50.709 C24.684,51.1 25.316,51.1 25.707,50.709 L29,47.416 L29,50.588 L26.293,53.295 C25.902,53.686 25.902,54.318 26.293,54.709 C26.684,55.1 27.316,55.1 27.707,54.709 L29,53.416 L29,55.002 C29,55.555 29.448,56.002 30,56.002 C30.552,56.002 31,55.555 31,55.002 L31,53.416 L32.293,54.709 C32.488,54.904 32.744,55.002 33,55.002 C33.256,55.002 33.512,54.904 33.707,54.709 C34.098,54.318 34.098,53.686 33.707,53.295 L31,50.588 L31,47.416 L34.293,50.709 C34.488,50.904 34.744,51.002 35,51.002 C35.256,51.002 35.512,50.904 35.707,50.709 C36.098,50.318 36.098,49.686 35.707,49.295 L31,44.588 L31,42.922 C32.815,42.661 34.406,41.705 35.492,40.328 L36.936,41.161 L38.659,47.591 C38.779,48.038 39.182,48.332 39.624,48.332 C39.709,48.332 39.797,48.321 39.883,48.298 C40.417,48.155 40.733,47.607 40.59,47.073 L39.385,42.575 L42.132,44.161 L43.123,47.858 C43.243,48.305 43.646,48.599 44.088,48.599 C44.173,48.599 44.261,48.588 44.347,48.565 C44.881,48.422 45.197,47.874 45.054,47.34 L44.581,45.574 L45.955,46.367 C46.113,46.458 46.285,46.501 46.454,46.501 C46.8,46.501 47.136,46.321 47.321,46.001 C47.597,45.522 47.433,44.911 46.955,44.635 L45.582,43.842 L47.348,43.369 C47.881,43.226 48.198,42.678 48.055,42.144 C47.912,41.61 47.364,41.292 46.83,41.437 L43.132,42.427 L40.385,40.841 L44.883,39.636 C45.417,39.493 45.733,38.945 45.59,38.411 C45.447,37.877 44.899,37.558 44.365,37.704 L37.935,39.427 L36.495,38.595 C36.817,37.792 37,36.917 37,36 C37,35.083 36.818,34.208 36.495,33.405 L37.935,32.573 L44.365,34.296 C44.452,34.319 44.539,34.33 44.624,34.33 C45.065,34.33 45.47,34.036 45.589,33.589 C45.732,33.056 45.416,32.507 44.882,32.364 L40.384,31.159 L43.131,29.573 L46.829,30.563 C46.916,30.586 47.003,30.597 47.089,30.597 C47.53,30.597 47.935,30.302 48.054,29.856 C48.197,29.323 47.88,28.774 47.347,28.631 L45.581,28.158 L46.954,27.365 C47.432,27.089 47.596,26.477 47.32,25.999 C47.044,25.52 46.432,25.355 45.954,25.633 L44.58,26.426 L45.053,24.66 C45.196,24.127 44.88,23.578 44.346,23.435 C43.813,23.289 43.263,23.608 43.121,24.142 L42.13,27.839 L39.383,29.425 L40.588,24.927 C40.731,24.394 40.415,23.845 39.881,23.702 C39.345,23.559 38.799,23.876 38.656,24.409 L36.933,30.839 L35.489,31.672 C34.402,30.295 32.812,29.339 30.997,29.078 L30.997,27.412 L35.704,22.705 C36.095,22.314 36.095,21.682 35.704,21.291 C35.313,20.9 34.681,20.9 34.29,21.291 L30.997,24.584 L30.997,21.412 L33.704,18.705 C34.095,18.314 34.095,17.682 33.704,17.291 C33.313,16.9 32.681,16.9 32.29,17.291 L30.997,18.584 L30.997,16.998 C30.997,16.445 30.549,15.998 29.997,15.998 C29.445,15.998 28.997,16.445 28.997,16.998 L28.997,18.584 L27.704,17.291 C27.313,16.9 26.681,16.9 26.29,17.291 C25.899,17.682 25.899,18.314 26.29,18.705 L28.997,21.412 L28.997,24.584 L25.704,21.291 C25.313,20.9 24.681,20.9 24.29,21.291 C23.899,21.682 23.899,22.314 24.29,22.705 L28.997,27.412 L28.997,29.078 C27.182,29.339 25.591,30.295 24.505,31.672 L23.061,30.839 L21.338,24.409 C21.195,23.875 20.647,23.555 20.113,23.702 C19.579,23.845 19.263,24.393 19.406,24.927 L20.611,29.425 L17.864,27.839 L16.873,24.142 C16.73,23.608 16.18,23.288 15.648,23.435 C15.114,23.578 14.798,24.126 14.941,24.66 L15.414,26.426 L14.04,25.633 C13.561,25.356 12.95,25.521 12.674,25.999 C12.398,26.477 12.562,27.089 13.04,27.365 L14.413,28.158 L12.647,28.631 C12.114,28.774 11.797,29.322 11.94,29.856 C12.06,30.302 12.463,30.597 12.905,30.597 C12.99,30.597 13.077,30.586 13.164,30.563 L16.862,29.573 L19.609,31.159 L15.111,32.364 C14.577,32.507 14.261,33.055 14.404,33.589 C14.524,34.036 14.927,34.33 15.369,34.33 C15.454,34.33 15.542,34.319 15.628,34.296 L22.058,32.573 L23.498,33.405 C23.176,34.208 22.993,35.083 22.993,36 C22.993,36.917 23.175,37.792 23.498,38.595 L22.058,39.427 L15.628,37.704 C15.094,37.56 14.546,37.878 14.403,38.411 C14.26,38.944 14.576,39.493 15.11,39.636 L19.608,40.841 L16.861,42.427 L13.163,41.437 L13.17,41.437 Z M26.276,39.305 L28.999,37.733 L28.999,40.9 C27.92,40.68 26.981,40.099 26.276,39.306 L26.276,39.305 Z M30.999,40.899 L30.999,37.732 L33.722,39.304 C33.017,40.098 32.078,40.679 30.999,40.898 L30.999,40.899 Z M34.999,36 C34.999,36.552 34.888,37.074 34.721,37.572 L31.999,36 L34.721,34.428 C34.887,34.925 34.999,35.447 34.999,36 Z M33.722,32.696 L30.999,34.268 L30.999,31.101 C32.078,31.321 33.017,31.902 33.722,32.695 L33.722,32.696 Z M28.999,31.102 L28.999,34.269 L26.276,32.697 C26.981,31.903 27.92,31.322 28.999,31.103 L28.999,31.102 Z M24.999,36.001 C24.999,35.449 25.11,34.927 25.277,34.429 L27.999,36.001 L25.277,37.573 C25.111,37.076 24.999,36.554 24.999,36.001 Z" id="Shape" fill="#A7A7A7"/>
        </g>
    </g>
</svg>
