<?xml version="1.0" encoding="UTF-8" standalone="no"?>
<svg xmlns="http://www.w3.org/2000/svg" xmlns:xlink="http://www.w3.org/1999/xlink" width="60px" height="60px" viewBox="0 0 60 60" version="1.1">
    <!-- Generator: Sketch 43.1 (39012) - http://www.bohemiancoding.com/sketch -->
    <title>006 - Sink and Mirror</title>
    <desc>Created with Sketch.</desc>
    <defs/>
    <g id="Page-1" stroke="none" stroke-width="1" fill="none" fill-rule="evenodd">
        <g id="006---Sink-and-Mirror" transform="translate(0.000000, -1.000000)" fill-rule="nonzero">
            <g id="Colour_copy" transform="translate(1.000000, 2.000000)">
                <path d="M17.546,29.571 C11.7892866,24.3220752 10.3370554,15.8319029 14.0218904,8.96801533 C17.7067254,2.10412781 25.585532,-1.37673526 33.1412823,0.521052666 C40.6970326,2.41884059 45.9959119,9.2095607 46,17 C46,29.887 31.639,39.444 18.014,30.462 L17.546,29.571 Z" id="Shape" fill="#D8D8D8"/>
                <circle id="Oval" fill="#EBEBEB" cx="29" cy="17" r="13"/>
                <path d="M29,-1.69406589e-21 C28.494,-1.69406589e-21 28,0.032 27.5,0.076 C36.2593443,0.84313638 42.9853033,8.1682326 43.0040137,16.9610854 C43.0227241,25.7539383 36.3280002,33.1075925 27.572,33.912 C33.7939003,34.444988 39.8065733,31.5212233 43.2295413,26.2982538 C46.6525092,21.0752843 46.9337945,14.3953506 43.9620334,8.90310549 C40.9902723,3.41086041 35.2446822,-0.00803281415 29,-1.69406589e-21 Z" id="Shape" fill="#DBDCDE"/>
                <rect id="Rectangle-path" fill="#EBEBEB" x="0" y="42" width="58" height="5" rx="2"/>
                <path d="M56,42 L53,42 C54.1032019,42.0032948 54.9967052,42.8967981 55,44 L55,45 C54.9967052,46.1032019 54.1032019,46.9967052 53,47 L56,47 C57.1032019,46.9967052 57.9967052,46.1032019 58,45 L58,44 C57.9967052,42.8967981 57.1032019,42.0032948 56,42 L56,42 Z" id="Shape" fill="#D8D8D8"/>
                <path d="M49,47 L49,47.4 C49.003569,50.1221983 47.1984059,52.5154688 44.58,53.26 C42.9354919,53.7304113 41.5640388,54.8696607 40.8,56.4 L40.55,56.89 C40.21227,57.5696577 39.518944,57.9995973 38.76,58 L19.24,58 C18.481056,57.9995973 17.78773,57.5696577 17.45,56.89 L17.2,56.4 C16.4359612,54.8696607 15.0645081,53.7304113 13.42,53.26 C10.8048125,52.5107775 9.00182602,50.1203927 9,47.4 L9,47 L49,47 Z" id="Shape" fill="#D8D8D8"/>
                <path d="M46,47 L46,47.4 C46.003569,50.1221983 44.1984059,52.5154688 41.58,53.26 C39.9354919,53.7304113 38.5640388,54.8696607 37.8,56.4 L37.55,56.89 C37.21227,57.5696577 36.518944,57.9995973 35.76,58 L38.76,58 C39.518944,57.9995973 40.21227,57.5696577 40.55,56.89 L40.8,56.4 C41.5640388,54.8696607 42.9354919,53.7304113 44.58,53.26 C47.1984059,52.5154688 49.003569,50.1221983 49,47.4 L49,47 L46,47 Z" id="Shape" fill="#DBDCDE"/>
                <path d="M27,42 L27,31 C27,28.790861 25.209139,27 23,27 C20.790861,27 19,28.790861 19,31 L19,31 C19,32.1045695 18.1045695,33 17,33 C15.8954305,33 15,32.1045695 15,31 L15,31 C15,26.581722 18.581722,23 23,23 C27.418278,23 31,26.581722 31,31 L31,42" id="Shape" fill="#EBEBEB"/>
                <path d="M17,38 L17,42 L11,42 L11,38 C11.0032948,36.8967981 11.8967981,36.0032948 13,36 L15,36 C16.1032019,36.0032948 16.9967052,36.8967981 17,38 L17,38 Z" id="Shape" fill="#EBEBEB"/>
                <path d="M47,38 L47,42 L41,42 L41,38 C41.0032948,36.8967981 41.8967981,36.0032948 43,36 L45,36 C46.1032019,36.0032948 46.9967052,36.8967981 47,38 L47,38 Z" id="Shape" fill="#EBEBEB"/>
            </g>
            <g id="Colour" transform="translate(1.000000, 2.000000)" fill="#FFFFFF">
                <path d="M15,30.9 C14.9767974,31.895212 15.6652774,32.7659985 16.639,32.973 C17.3351414,33.0986946 18.0452779,32.8418854 18.5,32.3 C18.1814676,31.9414758 18.0038118,31.4795706 18,31 C18.0000041,30.1670659 18.1323195,29.3394198 18.392,28.548 C18.5899424,27.9647701 18.4997956,27.3222419 18.149,26.816 C16.0969566,23.9546705 14.9954542,20.521089 15,17 C15.0012281,8.19472906 21.7287385,0.849155774 30.5,0.076 C30.005,0.032 29.506,-5.20959144e-17 29,-5.20959144e-17 C22.4593265,-0.0112896756 16.494288,3.73714118 13.6670622,9.63521976 C10.8398364,15.5332984 11.6536719,22.5311616 15.759,27.623 C15.274277,28.6483863 15.01544,29.765921 15,30.9 Z" id="Shape"/>
                <path d="M2,47 L5,47 C3.89679813,46.9967052 3.0032948,46.1032019 3,45 L3,44 C3.0032948,42.8967981 3.89679813,42.0032948 5,42 L2,42 C0.896798134,42.0032948 0.00329480111,42.8967981 -2.22044605e-16,44 L-2.22044605e-16,45 C0.00329480111,46.1032019 0.896798134,46.9967052 2,47 Z" id="Shape"/>
                <path d="M14,38 C14.0038609,37.0911669 14.6200161,36.2992021 15.5,36.072 C15.3372244,36.0261181 15.1691076,36.0019093 15,36 L13,36 C11.8967981,36.0032948 11.0032948,36.8967981 11,38 L11,42 L14,42 L14,38 Z" id="Shape"/>
                <path d="M13.42,53.26 C15.0645081,53.7304113 16.4359612,54.8696607 17.2,56.4 L17.45,56.89 C17.78773,57.5696577 18.481056,57.9995973 19.24,58 L22.24,58 C21.481056,57.9995973 20.78773,57.5696577 20.45,56.89 L20.2,56.4 C19.4359612,54.8696607 18.0645081,53.7304113 16.42,53.26 C13.8048125,52.5107775 12.001826,50.1203927 12,47.4 L12,47 L9,47 L9,47.4 C9.00182602,50.1203927 10.8048125,52.5107775 13.42,53.26 L13.42,53.26 Z" id="Shape"/>
            </g>
            <g id="Icons">
                <path d="M13.968,10.841 L15.75,11.75 C14.6141917,13.9989405 14.0151794,16.4805628 14,19 L12,19 C12.015856,16.164694 12.6895295,13.3717557 13.968,10.841 L13.968,10.841 Z" id="Shape" fill="#FFFFFF"/>
                <path d="M14.425,12.2 C14.9152321,12.4228637 15.4943153,12.2279421 15.75,11.754 C16.411616,10.442804 17.2567858,9.23262857 18.26,8.16 C18.756837,7.62082 19.2865127,7.11285228 19.846,6.639 C20.4195794,6.18216046 21.0207143,5.76103206 21.646,5.378 C26.8245204,2.20034525 33.3565943,2.23232252 38.5037554,5.46052585 C43.6509164,8.68872919 46.5236571,14.5552761 45.9176274,20.6007117 C45.3115977,26.6461473 41.3315287,31.8257286 35.646,33.968 C35.198979,34.1417984 34.9383023,34.6085001 35.0247436,35.0802644 C35.1111849,35.5520287 35.5203985,35.8959864 36,35.9 C36.1205199,35.8996475 36.2400274,35.8779804 36.353,35.836 C42.7607308,33.4326703 47.2501779,27.6021825 47.9360174,20.7930245 C48.621857,13.9838666 45.3853208,7.37519374 39.5855782,3.74228944 C33.7858355,0.109385149 26.4272393,0.0813665754 20.6,3.67 C19.8967672,4.1007638 19.2211191,4.57501996 18.577,5.09 C17.9467527,5.62237923 17.3502654,6.19348415 16.791,6.8 C15.6636803,8.00712835 14.7132201,9.36800696 13.968,10.842 C13.8386074,11.0809392 13.8143411,11.3629073 13.9010073,11.6204405 C13.9876735,11.8779737 14.1774751,12.0879028 14.425,12.2 L14.425,12.2 Z" id="Shape" fill="#A7A7A7"/>
                <path d="M13.278,16.017 C13.8028757,16.1034363 14.3091416,15.7825575 14.455,15.271 C14.5655452,14.7433666 14.2501303,14.2198564 13.732,14.071 C13.4719029,13.9960103 13.1923233,14.032761 12.9604419,14.1724211 C12.7285605,14.3120813 12.5653396,14.5420255 12.51,14.807 C12.4357804,15.0702478 12.4771248,15.3526432 12.6236941,15.5835661 C12.7702633,15.814489 13.0081993,15.9721057 13.278,16.017 Z" id="Shape" fill="#A7A7A7"/>
                <path d="M14.411,26.791 C14.7480489,26.7904895 15.0621646,26.6202249 15.2465603,26.3380894 C15.430956,26.0559539 15.4608201,25.6999106 15.326,25.391 C14.4450875,23.3758303 13.9935004,21.1992894 14,19 C14,18.4477153 13.5522847,18 13,18 C12.4477153,18 12,18.4477153 12,19 C11.9937124,21.4746911 12.5024989,23.9236092 13.494,26.191 C13.6531192,26.5555881 14.0132018,26.7911929 14.411,26.791 Z" id="Shape" fill="#A7A7A7"/>
                <path d="M39.911,27.479 C40.1252657,27.6363409 40.3933611,27.701894 40.6560549,27.6611765 C40.9187486,27.6204589 41.1544196,27.476822 41.311,27.262 C45.3824112,21.6874235 44.7849961,13.9776261 39.9034187,9.09679684 C35.0218413,4.21596762 27.3119523,3.61973431 21.738,7.692 C21.2920301,8.01784801 21.194652,8.64353005 21.5205,9.08949998 C21.846348,9.5354699 22.4720301,9.63284797 22.918,9.307 C27.695858,5.81795555 34.3033209,6.32991653 38.4867022,10.5132978 C42.6700835,14.6966791 43.1820445,21.304142 39.693,26.082 C39.367554,26.5280005 39.4651407,27.1533607 39.911,27.479 L39.911,27.479 Z" id="Shape" fill="#A7A7A7"/>
                <path d="M20.09,10.522 C19.8756113,10.364763 19.6074331,10.2993724 19.3447306,10.3402789 C19.082028,10.3811854 18.8464294,10.5250213 18.69,10.74 C16.0906815,14.3248171 15.3287552,18.9234145 16.633,23.155 C16.7641326,23.5719758 17.1508909,23.8554636 17.588,23.855 C17.6897365,23.8557603 17.790964,23.8405762 17.888,23.81 C18.1414378,23.731663 18.3533659,23.5558383 18.4771456,23.3212195 C18.6009253,23.0866007 18.6264132,22.8124143 18.548,22.559 C17.4306125,18.9331079 18.0824421,14.9928717 20.308,11.92 C20.4646041,11.7057489 20.5296216,11.4380346 20.4887327,11.1758199 C20.4478437,10.9136053 20.304402,10.6783975 20.09,10.522 Z" id="Shape" fill="#A7A7A7"/>
                <path d="M31.293,10.293 C30.9026181,10.6834999 30.9026181,11.3165001 31.293,11.707 L37.293,17.707 C37.6853789,18.0859722 38.3090848,18.0805524 38.6948186,17.6948186 C39.0805524,17.3090848 39.0859722,16.6853789 38.707,16.293 L32.707,10.293 C32.3165001,9.90261806 31.6834999,9.90261806 31.293,10.293 Z" id="Shape" fill="#A7A7A7"/>
                <path d="M37.293,23.707 C37.6853789,24.0859722 38.3090848,24.0805524 38.6948186,23.6948186 C39.0805524,23.3090848 39.0859722,22.6853789 38.707,22.293 L26.707,10.293 C26.3146211,9.91402779 25.6909152,9.91944763 25.3051814,10.3051814 C24.9194476,10.6909152 24.9140278,11.3146211 25.293,11.707 L37.293,23.707 Z" id="Shape" fill="#A7A7A7"/>
                <path d="M57,43 L49,43 L49,40 C49,38.3431458 47.6568542,37 46,37 L44,37 C42.3431458,37 41,38.3431458 41,40 L41,43 L33,43 L33,33 C33,28.0294373 28.9705627,24 24,24 C19.0294373,24 15,28.0294373 15,33 C15,34.6568542 16.3431458,36 18,36 C19.6568542,36 21,34.6568542 21,33 C21,31.3431458 22.3431458,30 24,30 C25.6568542,30 27,31.3431458 27,33 L27,43 L19,43 L19,40 C19,38.3431458 17.6568542,37 16,37 L14,37 C12.3431458,37 11,38.3431458 11,40 L11,43 L3,43 C1.34314575,43 2.02906125e-16,44.3431458 0,46 L0,47 C2.02906125e-16,48.6568542 1.34314575,50 3,50 L9.049,50 C9.27822178,52.9371743 11.3138177,55.4202022 14.149,56.221 C15.5265284,56.6160417 16.6748728,57.5713626 17.314,58.854 L17.56,59.337 C18.0638153,60.3564044 19.1028924,61.001175 20.24,61 L39.76,61 C40.895809,61.0034392 41.934945,60.3613462 42.44,59.344 L42.695,58.844 C43.3335306,57.5661061 44.4787503,56.614598 45.852,56.221 C48.6769261,55.405088 50.7050731,52.9301759 50.95,50 L57,50 C58.6568542,50 60,48.6568542 60,47 L60,46 C60,44.3431458 58.6568542,43 57,43 Z M43,40 C43,39.4477153 43.4477153,39 44,39 L46,39 C46.5522847,39 47,39.4477153 47,40 L47,43 L43,43 L43,40 Z M24,28 C21.2399468,28.0033061 19.0033061,30.2399468 19,33 C19,33.5522847 18.5522847,34 18,34 C17.4477153,34 17,33.5522847 17,33 C17.0000001,29.1340068 20.1340068,26.0000001 24,26.0000001 C27.8659932,26.0000001 30.9999999,29.1340068 31,33 L31,43 L29,43 L29,33 C28.9966939,30.2399468 26.7600532,28.0033061 24,28 Z M13,40 C13,39.4477153 13.4477153,39 14,39 L16,39 C16.5522847,39 17,39.4477153 17,40 L17,43 L13,43 L13,40 Z M58,47 C58,47.5522847 57.5522847,48 57,48 L24,48 C23.4477153,48 23,48.4477153 23,49 C23,49.5522847 23.4477153,50 24,50 L48.965,50 C48.7222012,52.0395745 47.2795821,53.734455 45.305,54.3 C43.392039,54.845892 41.7958397,56.1692863 40.905,57.948 L40.651,58.448 C40.4818989,58.7902243 40.1327209,59.0063266 39.751,59.005 L20.24,59.005 C19.8567023,59.0050204 19.5071178,58.7859475 19.34,58.441 L19.095,57.96 C18.2049634,56.1785739 16.6090053,54.8517524 14.695,54.302 C12.7194151,53.7365118 11.2761961,52.0406013 11.034,50 L18,50 C18.5522847,50 19,49.5522847 19,49 C19,48.4477153 18.5522847,48 18,48 L3,48 C2.44771525,48 2,47.5522847 2,47 L2,46 C2,45.4477153 2.44771525,45 3,45 L57,45 C57.5522847,45 58,45.4477153 58,46 L58,47 Z" id="Shape" fill="#A7A7A7"/>
            </g>
        </g>
    </g>
</svg>
