<?xml version="1.0" encoding="UTF-8"?>
<svg width="56px" height="60px" viewBox="0 0 56 60" version="1.1" xmlns="http://www.w3.org/2000/svg" xmlns:xlink="http://www.w3.org/1999/xlink">
    <!-- Generator: Sketch 51.1 (57501) - http://www.bohemiancoding.com/sketch -->
    <title>053 - Leaking Pipe</title>
    <desc>Created with Sketch.</desc>
    <defs></defs>
    <g id="Page-1" stroke="none" stroke-width="1" fill="none" fill-rule="evenodd">
        <g id="053---Leaking-Pipe" fill-rule="nonzero">
            <rect id="Rectangle-path" fill="#CAD9FC" x="3" y="6" width="23" height="10" rx="2"></rect>
            <path d="M24,6 L21,6 C22.1032019,6.0032948 22.9967052,6.89679813 23,8 L23,14 C22.9967052,15.1032019 22.1032019,15.9967052 21,16 L24,16 C25.1032019,15.9967052 25.9967052,15.1032019 26,14 L26,8 C25.9967052,6.89679813 25.1032019,6.0032948 24,6 Z" id="Shape" fill="#A4C2F7"></path>
            <path d="M24,16 L22.41,21.55 C22.2238915,22.22897 21.6840434,22.7535032 21,22.92 L8,22.92 C7.31595655,22.7535032 6.77610847,22.22897 6.59,21.55 L5,16 L24,16 Z" id="Shape" fill="#A4C2F7"></path>
            <path d="M21,22.92 C20.8362284,22.9772558 20.6634368,23.0043603 20.49,23 L8.51,23 C8.33656315,23.0043603 8.16377157,22.9772558 8,22.92 L21,22.92 Z" id="Shape" fill="#E8EDFC"></path>
            <rect id="Rectangle-path" fill="#CAD9FC" x="40" y="31" width="10" height="23" rx="2"></rect>
            <path d="M48,31 L45,31 C46.1032019,31.0032948 46.9967052,31.8967981 47,33 L47,52 C46.9967052,53.1032019 46.1032019,53.9967052 45,54 L48,54 C49.1032019,53.9967052 49.9967052,53.1032019 50,52 L50,33 C49.9967052,31.8967981 49.1032019,31.0032948 48,31 Z" id="Shape" fill="#A4C2F7"></path>
            <path d="M40,33 L40,52 L34.45,50.41 C33.77103,50.2238915 33.2464968,49.6840434 33.08,49 L33.08,36 C33.2464968,35.3159566 33.77103,34.7761085 34.45,34.59 L40,33 Z" id="Shape" fill="#A4C2F7"></path>
            <path d="M33.08,36 L33.08,49 C33.0227442,48.8362284 32.9956397,48.6634368 33,48.49 L33,36.51 C32.9956397,36.3365632 33.0227442,36.1637716 33.08,36 Z" id="Shape" fill="#E8EDFC"></path>
            <path d="M33,48.49 C32.9956397,48.6634368 33.0227442,48.8362284 33.08,49 L22.5,49 C14.4941569,48.9944844 8.00551557,42.5058431 8,34.5 L8,22.92 C8.16377157,22.9772558 8.33656315,23.0043603 8.51,23 L20.49,23 C20.6634368,23.0043603 20.8362284,22.9772558 21,22.92 L21,34.5 C21,35.3284271 21.6715729,36 22.5,36 L33.08,36 C33.0227442,36.1637716 32.9956397,36.3365632 33,36.51 L33,48.49 Z" id="Shape" fill="#CAD9FC"></path>
            <path d="M21,22.92 C20.8362284,22.9772558 20.6634368,23.0043603 20.49,23 L8.51,23 C8.33656315,23.0043603 8.16377157,22.9772558 8,22.92 L21,22.92 Z" id="Shape" fill="#E8EDFC"></path>
            <path d="M33.08,36 L33.08,49 C33.0227442,48.8362284 32.9956397,48.6634368 33,48.49 L33,36.51 C32.9956397,36.3365632 33.0227442,36.1637716 33.08,36 Z" id="Shape" fill="#E8EDFC"></path>
            <path d="M55,34 L55,51 C55,51.5522847 54.5522847,52 54,52 L50,52 L50,33 L54,33 C54.5522847,33 55,33.4477153 55,34 Z" id="Shape" fill="#E8EDFC"></path>
            <path d="M24,2 L24,6 L5,6 L5,2 C5,1.44771525 5.44771525,1 6,1 L23,1 C23.5522847,1 24,1.44771525 24,2 Z" id="Shape" fill="#E8EDFC"></path>
            <path d="M11,54 C11,56.7614237 8.76142375,59 6,59 C3.23857625,59 1,56.7614237 1,54 C1,48.572 6,45 6,45 C6,45 11,48.572 11,54 Z" id="Shape" fill="#E8EDFC"></path>
            <path d="M6,45 C5.4660549,45.404964 4.96453192,45.8509852 4.5,46.334 C6.61108237,48.3427374 7.86495628,51.0890795 8,54 C7.9944634,56.1764172 6.57761472,58.097664 4.5,58.746 C6.01625578,59.2526858 7.68400908,58.993652 8.97514356,58.0509252 C10.266278,57.1081984 11.020882,55.5985387 11,54 C11,48.572 6,45 6,45 Z" id="Shape" fill="#CAD9FC"></path>
            <path d="M4,54 C4.13453097,51.0889555 5.38848807,48.3424312 7.5,46.334 C7.03546808,45.8509852 6.5339451,45.404964 6,45 L5.967,45.024 L5.902,45.074 L5.869,45.099 C5.759,45.184 5.579,45.329 5.348,45.531 L5.342,45.536 C5.265,45.603 5.185,45.676 5.098,45.755 L5.068,45.782 C3.623,47.112 1,50.064 1,54 C1.0055366,56.1764172 2.42238528,58.097664 4.5,58.746 C4.72424067,58.8197287 4.95350045,58.8772108 5.186,58.918 C5.45416522,58.9707743 5.72669693,58.9982283 6,59 C6.51007814,58.992879 7.01601378,58.9072072 7.5,58.746 C5.42238528,58.097664 4.0055366,56.1764172 4,54 Z" id="Shape" fill="#FFFFFF"></path>
            <path d="M11,34.5 L11,22.92 C10.3159566,22.7535032 9.77610847,22.22897 9.59,21.55 L8,16 C6.89679813,15.9967052 6.0032948,15.1032019 6,14 L6,8 C6.0032948,6.89679813 6.89679813,6.0032948 8,6 L8,2 C8,1.44771525 8.44771525,1 9,1 L6,1 C5.44771525,1 5,1.44771525 5,2 L5,6 C3.89679813,6.0032948 3.0032948,6.89679813 3,8 L3,14 C3.0032948,15.1032019 3.89679813,15.9967052 5,16 L6.59,21.55 C6.77610847,22.22897 7.31595655,22.7535032 8,22.92 L8,34.5 C8.00551557,42.5058431 14.4941569,48.9944844 22.5,49 L25.5,49 C17.4941569,48.9944844 11.0055156,42.5058431 11,34.5 Z" id="Shape" fill="#FFFFFF"></path>
            <rect id="Rectangle-path" fill="#FFFFFF" x="7" y="22.92" width="2" height="8"></rect>
            <path d="M8.02,27.92 C7.46771527,27.9227614 7.01776148,27.4772847 7.01500006,26.925 C7.01223863,26.3727153 7.45771527,25.9227615 8.01,25.92 L8.02,25.92 C8.57228475,25.92 9.02,26.3677153 9.02,26.92 C9.02,27.4722847 8.57228475,27.92 8.02,27.92 Z" id="Shape" fill="#428DFF"></path>
            <path d="M54,32 L50.816,32 C50.3937454,30.8056491 49.2667854,30.0052514 48,30 L42,30 C40.6516155,30.0055709 39.4726167,30.91007 39.118,32.211 L34.176,33.624 C33.4351771,33.8396579 32.8059275,34.3324567 32.419,35 L22.5,35 C22.2238576,35 22,34.7761424 22,34.5 L22,23.581 C22.6675433,23.1940725 23.1603421,22.5648229 23.376,21.824 L24.788,16.882 C26.0893266,16.5277587 26.9943053,15.348668 27,14 L27,8 C26.9947486,6.73321457 26.1943509,5.60625455 25,5.184 L25,2 C25,0.8954305 24.1045695,6.76353751e-17 23,0 L6,0 C4.8954305,-6.76353751e-17 4,0.8954305 4,2 L4,5.184 C2.80564913,5.60625455 2.00525139,6.73321457 2,8 L2,14 C2.00569466,15.348668 2.91067342,16.5277587 4.212,16.882 L5.624,21.825 C5.99639364,23.1099272 7.17120495,23.9956168 8.509,24 L20,24 L20,34.5 C20,35.8807119 21.1192881,37 22.5,37 L32,37 L32,48 L22.5,48 C19.272598,48.0001238 16.1530336,46.8382742 13.712,44.727 L16.555,42.832 C16.8330697,42.6464754 17.00005,42.3342785 17,42 L17,40 L19.586,40 L21.293,41.707 C21.6853789,42.0859722 22.3090848,42.0805524 22.6948186,41.6948186 C23.0805524,41.3090848 23.0859722,40.6853789 22.707,40.293 L20.707,38.293 C20.5195073,38.1054506 20.2651948,38.0000566 20,38 L16.414,38 L14.287,35.873 L15.832,33.555 C16.138518,33.0954991 16.0145009,32.4745181 15.555,32.168 C15.0954991,31.861482 14.474518,31.9854991 14.168,32.445 L12.168,35.445 C11.9034926,35.8416765 11.9558147,36.3699206 12.293,36.707 L15,39.414 L15,41.465 L12.27,43.284 C10.1605547,40.8436705 8.99982479,37.7256732 9,34.5 L9,30.92 C9,30.3677153 8.55228475,29.92 8,29.92 C7.44771525,29.92 7,30.3677153 7,30.92 L7,34.5 C7.00052477,38.4652335 8.52785491,42.2780082 11.265,45.147 L11.265,45.154 C11.3206486,45.234595 11.3880644,45.3063928 11.465,45.367 C14.3714451,48.3312535 18.3485881,50.0010408 22.5,50 L32.419,50 C32.8059275,50.6675433 33.4351771,51.1603421 34.176,51.376 L39.119,52.789 C39.4717155,54.0907822 40.6512861,54.996034 42,55 L48,55 C49.2667854,54.9947486 50.3937454,54.1943509 50.816,53 L54,53 C55.1045695,53 56,52.1045695 56,51 L56,34 C56,32.8954305 55.1045695,32 54,32 Z M25,14 C25,14.5522847 24.5522847,15 24,15 L20,15 L20,7 L24,7 C24.5522847,7 25,7.44771525 25,8 L25,14 Z M11,15 L11,7 L18,7 L18,15 L11,15 Z M6,2 L23,2 L23,5 L6,5 L6,2 Z M4,8 C4,7.44771525 4.44771525,7 5,7 L9,7 L9,15 L5,15 C4.44771525,15 4,14.5522847 4,14 L4,8 Z M7.547,21.275 L6.326,17 L22.674,17 L21.453,21.274 C21.3305608,21.7037572 20.9378586,22.0001208 20.491,22 L8.509,22 C8.06242116,22.0002482 7.66980913,21.7043607 7.547,21.275 Z M41,39 L49,39 L49,46 L41,46 L41,39 Z M42,32 L48,32 C48.5522847,32 49,32.4477153 49,33 L49,37 L41,37 L41,33 C41,32.4477153 41.4477153,32 42,32 Z M34,48.491 L34,36.509 C34.0003258,36.0625122 34.2965993,35.6703376 34.726,35.548 L39,34.326 L39,50.674 L34.725,49.452 C34.2959957,49.3292928 34.0001982,48.9372082 34,48.491 Z M48,53 L42,53 C41.4477153,53 41,52.5522847 41,52 L41,48 L49,48 L49,52 C49,52.5522847 48.5522847,53 48,53 Z M54,51 L51,51 L51,34 L54,34 L54,51 Z" id="Shape" fill="#428DFF"></path>
            <path d="M6.582,44.187 C6.23397529,43.9379184 5.76602471,43.9379184 5.418,44.187 C5.2,44.345 0,48.125 0,54 C4.93781043e-08,57.3137085 2.68629154,59.9999999 6,59.9999999 C9.31370846,59.9999999 12,57.3137085 12,54 C12,48.125 6.8,44.345 6.582,44.187 Z M6,58 C3.790861,58 2,56.209139 2,54 C2,50.228 4.765,47.375 6,46.29 C7.235,47.375 10,50.228 10,54 C10,56.209139 8.209139,58 6,58 Z" id="Shape" fill="#428DFF"></path>
        </g>
    </g>
</svg>