<?xml version="1.0" encoding="UTF-8"?>
<svg width="60px" height="60px" viewBox="0 0 60 60" version="1.1" xmlns="http://www.w3.org/2000/svg" xmlns:xlink="http://www.w3.org/1999/xlink">
    <!-- Generator: Sketch 47.1 (45422) - http://www.bohemiancoding.com/sketch -->
    <title>Tools - greyscale - 010 - Pipe Wrench</title>
    <desc>Created with Sketch.</desc>
    <defs></defs>
    <g id="Page-1" stroke="none" stroke-width="1" fill="none" fill-rule="evenodd">
        <g id="Tools---greyscale---010---Pipe-Wrench" fill-rule="nonzero">
            <g id="Colour" transform="translate(1.000000, 1.000000)">
                <path d="M56.72,17.31 L55.85,18.18 C55.4569862,18.5700109 54.8229638,18.5700109 54.42995,18.18 L46.63,10.39 C46.2567482,10.0109166 45.7469973,9.79745265 45.215,9.79745265 C44.6830027,9.79745265 44.1732518,10.0109166 43.8,10.39 L37,17.18 L32.75,12.93 L44.51,1.17 C46.0780675,-0.389991578 48.6118525,-0.389991578 50.17992,1.17 L53.30005,4.3 C53.345999,4.34413071 53.3893644,4.39087501 53.42993,4.44 C54.5808708,5.61125837 55.4138462,7.05687627 55.85,8.64 L57.49,14.36 C57.7861367,15.4102203 57.4916398,16.5384875 56.72,17.31 L56.72,17.31 Z" id="Shape" fill="#DBDCDE"></path>
                <path d="M51,2.33 C49.4902289,1.67965491 47.7367384,2.01213169 46.56982,3.17 L34.80994,14.93 L36.85986,16.98 L36.65991,17.18 L32.40991,12.93 L44.16991,1.17 C45.737973,-0.390002527 48.271767,-0.390002527 49.83983,1.17 L51,2.33 Z" id="Shape" fill="#FFFFFF"></path>
                <path d="M31.9,22.29 L31.13,23.06 L28.90991,20.84 L28.14001,21.61 L13.88,35.86 C13.3977107,36.3412186 13.0942891,36.972759 13.02,37.65 C12.8779199,37.5510719 12.7441433,37.440723 12.62,37.32005 C12.5124043,37.2165358 12.4152931,37.1026499 12.33008,36.98005 C11.9432809,36.4637656 11.7360431,35.835095 11.74,35.19 C11.7396416,34.39147 12.056131,33.625422 12.62,33.06 L26.88,18.81 L27.65,18.03 L31.9,22.29 Z" id="Shape" fill="#FFFFFF"></path>
                <path d="M31.13,23.06 L16.87,37.32 C15.8385969,38.3536039 14.2122335,38.4929853 13.02,37.64995 C13.0942891,36.972709 13.3977107,36.3411686 13.88,35.85995 L28.14,21.61 L28.9099,20.84 L31.13,23.06 Z" id="Shape" fill="#DBDCDE"></path>
                <path d="M51.59009,21.02 L43.80009,13.22 C43.5497356,12.976474 43.23912,12.8039099 42.90009,12.72 L49.19001,19.02 C49.5801242,19.4129518 49.5801242,20.0470482 49.19001,20.44 L47.78,21.85 C47.27745,22.3514674 46.5469291,22.5493168 45.86,22.37 L47.3401,23.85 C48.1260275,24.6300189 49.3940125,24.6300189 50.17994,23.85 L51.5901,22.44 C51.9799607,22.0469422 51.9799562,21.4130523 51.59009,21.02 L51.59009,21.02 Z" id="Shape" fill="#C0C0C0"></path>
                <path d="M3.25,55.04 C2.54105018,55.7489466 1.54515667,56.0919766 0.55,55.97 C0.7080003,56.4709873 0.99818973,56.92009 1.39,57.27 C2.65013887,58.3237121 4.51063676,58.2232627 5.65,57.04 L37.6699,25.02 L41.6699,21.02 C42.175996,20.5102207 42.92052,20.31834 43.60997,20.52 L42.10997,19.02 C41.3239676,18.2400116 40.0559724,18.2400116 39.26997,19.02 L4.74,53.55 L3.25,55.04 Z" id="Shape" fill="#C0C0C0"></path>
                <path d="M44.51,21.02 C44.2649619,20.7694165 43.9522137,20.5956675 43.61,20.52 L44.93995,21.85 C45.192459,22.1053238 45.5110178,22.2853689 45.86,22.37 L44.51,21.02 Z M4.5,53.4 C4.43994,53.38 4.37,53.36 4.31006,53.34 C4.18077921,53.32004 4.04920079,53.32004 3.91992,53.34 C3.84998,53.36 3.79004,53.38 3.72998,53.4 C3.66992,53.43 3.60998,53.46 3.56006,53.49 C3.50354344,53.5252469 3.45288224,53.5691094 3.40991,53.62 C3.21933441,53.8031365 3.11112363,54.0556957 3.10999,54.32 C3.11147395,54.4539033 3.13863137,54.5862787 3.18999,54.70995 C3.22429546,54.798784 3.27525931,54.8802447 3.34014,54.94995 L4.74,53.55 C4.72,53.53 4.69,53.51 4.66993,53.49 C4.61,53.46 4.56006,53.43 4.5,53.4 Z" id="Shape" fill="#DBDCDE"></path>
                <path d="M49.18994,20.44 L47.78,21.85 C47.27745,22.3514674 46.5469291,22.5493168 45.86,22.37 L44.51,21.02 C44.2649619,20.7694165 43.9522137,20.5956675 43.61,20.52 L42.11,19.02 C41.3239976,18.2400116 40.0560024,18.2400116 39.27,19.02 L4.74,53.55 C4.72,53.53 4.69,53.51 4.66993,53.49 C4.61,53.46 4.56006,53.43 4.5,53.4 C4.43994,53.38 4.37,53.36 4.31006,53.34 C4.18077921,53.32004 4.04920079,53.32004 3.91992,53.34 C3.84998,53.36 3.79004,53.38 3.72998,53.4 C3.66992,53.43 3.60998,53.46 3.56006,53.49 C3.50354344,53.5252469 3.45288224,53.5691094 3.40991,53.62 C3.21933441,53.8031365 3.11112363,54.0556957 3.10999,54.32 C3.11147395,54.4539033 3.13863137,54.5862787 3.18999,54.70995 C3.22429546,54.798784 3.27525931,54.8802447 3.34014,54.94995 L3.25,55.04 C2.54105018,55.7489466 1.54515667,56.0919766 0.55,55.97 C0.224714711,54.9858104 0.432881585,53.9033427 1.1,53.11 C1.15993,53.04 1.22,52.97 1.28005,52.91 L2.49005,51.71 L2.49005,51.7 L38.84015,15.35 L40.96,13.22 C41.4685614,12.7145877 42.210499,12.5233667 42.9,12.72 L49.18992,19.02 C49.5800397,19.4129463 49.5800487,20.0470427 49.18994,20.44 Z" id="Shape" fill="#DBDCDE"></path>
                <path d="M38.84009,26.69 C39.0273181,26.8768446 39.132534,27.1304905 39.132534,27.395 C39.132534,27.6595095 39.0273181,27.9131554 38.84009,28.1 L36.71,30.23 C36.3170396,30.6200176 35.6830404,30.6200176 35.29008,30.23 L24.65991,19.6 C23.4899891,18.4248713 23.4899891,16.5251287 24.65991,15.35 L29.63,10.39 C30.1900903,9.81987338 30.9557844,9.49872227 31.755,9.49872227 C32.5542156,9.49872227 33.3199097,9.81987338 33.88,10.39 L38.84009,15.35 C39.6199819,16.1321413 39.6199819,17.3978587 38.84009,18.18 C37.03538,19.9792812 36.5659722,22.7231129 37.66992,25.02 C37.9572141,25.6420248 38.3535191,26.2076086 38.84009,26.69 L38.84009,26.69 Z" id="Shape" fill="#C0C0C0"></path>
                <path d="M37,24.58 C37.3901524,24.972936 37.3901524,25.607064 37,26 L34.29,28.71 C34.1999099,28.7978236 34.0949229,28.8689301 33.97994,28.92 L24.65991,19.6 C23.4899891,18.4248713 23.4899891,16.5251287 24.65991,15.35 L29.63,10.39 C30.280477,9.73656524 31.1938607,9.41614434 32.11,9.52 L36.41993,13.83 C36.68493,14.095 38.97282,15.392 39.00001,17 C39.02129,18.25844 37.44284,19.70717 37.00001,21 C36.5301334,22.147079 36.5301298,23.4329184 37,24.58 L37,24.58 Z" id="Shape" fill="#DBDCDE"></path>
                <rect id="Rectangle-path" fill="#EBEBEB" transform="translate(31.749849, 17.475203) rotate(-135.000000) translate(-31.749849, -17.475203) " x="29.2442988" y="14.9717383" width="5.0111" height="5.00693" rx="2"></rect>
                <path d="M39.40991,16.65 C38.93991,16.27 38.52002,16.01005 38.41991,15.91 L34.11,11.6 C33.1938632,11.4961669 32.2804891,11.8165845 31.63,12.47 L26.65991,17.43 C25.6397639,18.453484 25.4927944,20.0582389 26.31006,21.25 L24.65991,19.6 C23.4899891,18.4248713 23.4899891,16.5251287 24.65991,15.35 L29.63,10.39 C30.1900903,9.81987338 30.9557844,9.49872227 31.755,9.49872227 C32.5542156,9.49872227 33.3199097,9.81987338 33.88,10.39 L38.84009,15.35 C39.1861853,15.6966444 39.3895402,16.1605826 39.40991,16.65 L39.40991,16.65 Z" id="Shape" fill="#FFFFFF"></path>
            </g>
            <g id="Outline" fill="#A7A7A7">
                <circle id="Oval" cx="19.67892" cy="28" r="1"></circle>
                <path d="M4.3418,59.99072 C5.47207661,59.9911126 6.55644495,59.5435637 7.35742,58.74609 L34.8772,31.22632 L35.58789,31.93701 C36.3701535,32.7176068 37.6366865,32.7176068 38.41895,31.93701 L40.54595,29.81055 C41.3254626,29.0276771 41.3250154,27.761812 40.54495,26.97949 C40.3085632,26.7380388 40.0978807,26.4727 39.91629,26.18774 L43.37991,22.72412 C43.7726003,22.3325217 44.4081197,22.3325217 44.80081,22.72412 L47.63481,25.55957 C48.8092846,26.7303212 50.7096055,26.7301021 51.88381,25.55908 L53.29787,24.14453 C54.0791223,23.3623502 54.0791223,22.0951698 53.29787,21.31299 L45.50295,13.51758 C45.2581057,13.2773605 44.9735022,13.0813667 44.66176,12.93829 L45.50588,12.09424 C45.9033397,11.7143538 46.5293203,11.7143538 46.92678,12.09424 L54.7217,19.89014 C55.5048835,20.6697885 56.7710673,20.6693414 57.5537,19.88914 L58.42479,19.01756 C59.455137,17.9880127 59.8478127,16.4815767 59.45116,15.08006 L57.81542,9.36326 C57.3004605,7.56028214 56.3345186,5.91828018 55.00878,4.59226 L51.88378,1.46726 C50.944613,0.527870215 49.6707218,6.71015559e-05 48.3423815,-2.47926609e-05 C47.0140412,-0.000116686878 45.740077,0.527510166 44.80078,1.46677 L43.38428,2.88327 L43.38281,2.88427 L35.58569,10.68187 L35.58398,10.68017 C33.9995742,9.16406007 31.5023858,9.16406007 29.91798,10.68017 L24.95798,15.64061 C24.2052596,16.3912447 23.7822099,17.4105764 23.7822099,18.47361 C23.7822099,19.5366436 24.2052596,20.5559753 24.95798,21.30661 L24.95871,21.30728 L22.97266,23.293 C22.717417,23.5450613 22.6167607,23.9145398 22.708886,24.2612339 C22.8010113,24.607928 23.0717993,24.8787045 23.4184973,24.9708151 C23.7651953,25.0629256 24.1346695,24.9622537 24.38672,24.707 L26.37272,22.72134 L29.21134,25.56015 L17.144,37.62769 C16.352212,38.3940406 15.0906904,38.3788872 14.317539,37.5937387 C13.5443875,36.8085902 13.5486593,35.5469848 14.32711,34.76709 L16.38672,32.707 C16.641963,32.4549387 16.7426193,32.0854602 16.650494,31.7387661 C16.5583687,31.392072 16.2875807,31.1212955 15.9408827,31.0291849 C15.5941847,30.9370744 15.2247105,31.0377463 14.97266,31.293 L12.91309,33.353 C12.164025,34.1074342 11.7426017,35.1267713 11.74023,36.18991 C11.7363487,37.2542909 12.1587221,38.27593 12.91309,39.02683 C13.4146334,39.5229632 14.0401587,39.8753721 14.72437,40.04727 L1.57129,53.20068 C0.794877488,53.9799947 0.37079955,55.0428359 0.39746,56.14258 C0.421910543,57.2436534 0.902582741,58.2851092 1.72461,59.01807 C2.44733749,59.6537282 3.37935085,60.0001008 4.3418,59.99072 Z M44.08887,14.93164 L51.88379,22.73047 L50.46973,24.145 C50.0770397,24.5365983 49.4415203,24.5365983 49.04883,24.145 L46.21483,21.30955 C45.0403554,20.1387988 43.1400345,20.1390179 41.96583,21.31004 L39.13063,24.1453 L39.12574,24.1237 C39.12062,24.08714 39.12062,24.05033 39.11622,24.0137 C39.0935354,23.8216017 39.0820826,23.628343 39.08192,23.43491 C39.08192,23.36264 39.08522,23.2905 39.08839,23.21835 C39.09547,23.0524033 39.1109333,22.8872033 39.13478,22.72275 C39.14454,22.65567 39.15187,22.58835 39.16407,22.52175 C39.2041802,22.2986258 39.2593599,22.0784751 39.32923,21.86281 C39.33741,21.83822 39.34923,21.81481 39.3578,21.79024 C39.4250995,21.5979871 39.5040628,21.4100181 39.59425,21.22738 C39.6266,21.16158 39.66285,21.09749 39.69813,21.03298 C39.7778367,20.8872333 39.8652,20.7451833 39.96022,20.60683 C40.00122,20.54714 40.04066,20.48665 40.08422,20.42849 C40.2248685,20.2382312 40.3788171,20.0581739 40.54491,19.88967 C40.6745023,19.7579405 40.7915816,19.6144612 40.89464,19.46108 C40.92772,19.41292 40.95482,19.36281 40.98464,19.31319 C41.0493321,19.206934 41.1072281,19.0966866 41.15798,18.98311 C41.18325,18.92598 41.20717,18.86928 41.22878,18.81099 C41.2720423,18.6925205 41.3078391,18.5714566 41.33596,18.44851 C41.34768,18.3984 41.36306,18.34957 41.37209,18.29897 C41.403438,18.1281052 41.4200192,17.954859 41.42165,17.78115 C41.42165,17.74868 41.41628,17.71676 41.4153,17.68435 C41.4119681,17.5411203 41.3983429,17.3983156 41.37453,17.25704 C41.36477,17.1996 41.35048,17.14357 41.33742,17.08663 C41.3099796,16.9675369 41.2752883,16.8502317 41.23354,16.73537 C41.21315,16.67937 41.19338,16.6241 41.16954,16.56923 C41.15525,16.53615 41.14646,16.50148 41.13084,16.46883 L42.66856,14.93123 C43.061077,14.5396093 43.6965792,14.5397927 44.08887,14.93164 L44.08887,14.93164 Z M42.6698,6.42554 L42.6709,6.4248 L46.21484,2.88135 C47.4051782,1.74413798 49.2793918,1.74413798 50.46973,2.88135 L53.59473,6.00635 C54.6799266,7.092014 55.4707323,8.43618234 55.89258,9.91211 L57.52832,15.62842 C57.7261627,16.3320865 57.5281918,17.0877327 57.01074,17.604 L56.13574,18.47559 L48.34082,10.68018 C47.1668854,9.50831421 45.2657546,9.50831421 44.09182,10.68018 L41.25515,13.51666 L41.25393,13.51758 L39.83793,14.93365 L36.9998,12.09589 L42.6698,6.42554 Z M26.37207,17.05469 L31.33207,12.09424 C32.1250844,11.3334927 33.3769456,11.3334927 34.16996,12.09424 L39.1309,17.05469 C39.5224983,17.4473803 39.5224983,18.0828997 39.1309,18.47559 C37.0284757,20.5707065 36.4794192,23.7655716 37.76176,26.44238 L37.76576,26.44938 L37.76856,26.45652 L37.77296,26.46196 C38.1108774,27.1802936 38.5702587,27.8349046 39.13087,28.39696 L37.002,30.523 L31.3471,24.86785 C31.3427,24.86327 31.34148,24.85711 31.33696,24.85259 C31.33244,24.84807 31.32634,24.84691 31.32183,24.84259 L26.37212,19.89259 C25.9945548,19.5169205 25.7822808,19.0062641 25.7822808,18.473645 C25.7822808,17.9410259 25.9945548,17.4303695 26.37212,17.0547 L26.37207,17.05469 Z M2.98535,54.61475 L18.55664,39.04321 C18.56274,39.03721 18.57007,39.03339 18.57617,39.02734 L30.62744,26.97705 L33.46289,29.8125 L5.94336,57.332 C5.18042104,58.1383185 3.92645023,58.2243406 3.06055,57.52976 C2.65078506,57.1607928 2.41065907,56.6396411 2.39643896,56.0884225 C2.38221884,55.5372039 2.59515439,55.0043643 2.98535,54.61476 L2.98535,54.61475 Z" id="Shape"></path>
                <path d="M4.41016,56.02979 C4.59402821,56.2176247 4.84654394,56.322355 5.10938,56.31979 C5.17673337,56.3231194 5.24420652,56.3163785 5.30957,56.29979 C5.37421139,56.2880191 5.4378697,56.271375 5.5,56.25 C5.55957,56.21973 5.60938,56.18994 5.66992,56.15967 C5.72210548,56.1191918 5.77198981,56.0758309 5.81934,56.02979 C5.90962536,55.9357642 5.98413748,55.8277781 6.04,55.71 C6.08787941,55.5855924 6.11141912,55.4531468 6.10934,55.31986 C6.10753125,55.0576063 6.00348954,54.806403 5.81934,54.61967 C5.77199237,54.5736263 5.72210789,54.5302653 5.66992,54.48979 C5.60938,54.46 5.55957,54.42969 5.5,54.3999 C5.43945,54.3799 5.37012,54.3599 5.30957,54.33984 C5.18045813,54.31982 5.04903187,54.31982 4.91992,54.33984 C4.84961,54.35984 4.79004,54.37984 4.72949,54.3999 C4.66992,54.42969 4.60938,54.45996 4.55957,54.48975 C4.50343023,54.5251647 4.4530432,54.5689654 4.41016,54.61963 C4.21922242,54.8026683 4.1106896,55.0553234 4.10938,55.31982 C4.11097062,55.4537802 4.13814811,55.5862022 4.18945,55.70996 C4.23826821,55.8316846 4.31367652,55.9409585 4.41016,56.02979 L4.41016,56.02979 Z" id="Shape"></path>
                <path d="M30.62988,21.31055 C31.8028836,22.4793549 33.7003163,22.4791358 34.87305,21.31006 L35.58594,20.59766 C36.7541247,19.4245092 36.7536776,17.52758 35.58494,16.35498 L34.8701,15.64111 C33.6830543,14.5071859 31.8142376,14.5069701 30.62693,15.64062 L29.915,16.352 C29.3522492,16.9146393 29.0360897,17.677809 29.0360897,18.47358 C29.0360897,19.269351 29.3522492,20.0325207 29.915,20.59516 L30.62988,21.31055 Z M31.3291,17.7666 L32.04102,17.05469 C32.2284849,16.8670202 32.4828913,16.7616118 32.7481516,16.7617038 C33.0134119,16.7617957 33.2677452,16.8673803 33.45508,17.05518 L34.16992,17.76904 C34.5603074,18.1597667 34.5607547,18.7927619 34.17092,19.18404 L33.459,19.89547 C33.068135,20.2857219 32.4351352,20.2859411 32.044,19.89596 L31.32915,19.18111 C31.1415646,18.9935313 31.0361797,18.739116 31.0361797,18.473835 C31.0361797,18.208554 31.1415646,17.9541387 31.32915,17.76656 L31.3291,17.7666 Z" id="Shape"></path>
            </g>
        </g>
    </g>
</svg>