<?xml version="1.0" encoding="UTF-8" standalone="no"?>
<svg width="54px" height="59px" viewBox="0 0 54 59" version="1.1" xmlns="http://www.w3.org/2000/svg" xmlns:xlink="http://www.w3.org/1999/xlink">
    <!-- Generator: Sketch 40.1 (33804) - http://www.bohemiancoding.com/sketch -->
    <title>90 - Leaky Pipe (households, furniture, belongings, greyscale)</title>
    <desc>Created with Sketch.</desc>
    <defs></defs>
    <g id="Page-1" stroke="none" stroke-width="1" fill="none" fill-rule="evenodd">
        <g id="Icons" transform="translate(-125.000000, -2038.000000)">
            <g id="90---Leaky-Pipe-(households,-furniture,-belongings,-greyscale)" transform="translate(126.000000, 2039.000000)">
                <path d="M13.9361,55.7838 L13.9361,55.7838 C12.3141,57.4058 9.6851,57.4058 8.0641,55.7838 L8.0641,55.7838 C6.4421,54.1618 6.4471,51.6258 8.0641,49.3878 L11.0001,45.2348 L13.9361,49.3878 C15.5521,51.9828 15.5581,54.1618 13.9361,55.7838" id="Fill-885" fill="#C9C9C9"></path>
                <path d="M11.0866,55.7838 L11.0866,55.7838 C10.2936,56.5768 9.0076,56.5768 8.2146,55.7838 L8.2146,55.7838 C6.5926,54.1618 6.5976,51.6258 8.2146,49.3878 L10.9996,45.2348 L11.0236,46.3728 C11.0586,48.0448 11.4576,49.6708 11.9966,51.2538 C12.6036,53.0378 12.3026,54.5678 11.0866,55.7838" id="Fill-886" fill="#E1E2E2"></path>
                <polygon id="Fill-887" fill="#E1E2E2" points="49 42 52 42 52 26 49 26"></polygon>
                <polygon id="Fill-888" fill="#C9C9C9" points="4 9 26 9 26 3 4 3"></polygon>
                <polygon id="Fill-889" fill="#C9C9C9" points="43 45 49 45 49 23 43 23"></polygon>
                <path d="M23,22.5261 L23,9.0001 L7,9.0001 L7,28.4321 C7,35.9251 13.075,42.0001 20.568,42.0001 L43,42.0001 L43,26.0001 L26.474,26.0001 C24.555,26.0001 23,24.4451 23,22.5261" id="Fill-890" fill="#E1E2E2"></path>
                <polygon id="Fill-891" fill="#E1E2E2" points="7 3 23 3 23 0 7 0"></polygon>
                <polygon id="Stroke-4461" stroke="#B4B4B4" stroke-width="2" stroke-linecap="round" stroke-linejoin="round" points="4 9 26 9 26 3 4 3"></polygon>
                <polygon id="Stroke-4462" stroke="#B4B4B4" stroke-width="2" stroke-linecap="round" stroke-linejoin="round" points="43 45 49 45 49 23 43 23"></polygon>
                <path d="M23,22.5261 L23,9.0001 L7,9.0001 L7,28.4321 C7,35.9251 13.075,42.0001 20.568,42.0001 L43,42.0001 L43,26.0001 L26.474,26.0001 C24.555,26.0001 23,24.4451 23,22.5261 L23,22.5261 Z" id="Stroke-4463" stroke="#B4B4B4" stroke-width="2" stroke-linecap="round" stroke-linejoin="round"></path>
                <polygon id="Stroke-4464" stroke="#B4B4B4" stroke-width="2" stroke-linecap="round" stroke-linejoin="round" points="7 3 23 3 23 0 7 0"></polygon>
                <path d="M12,39 L12,35" id="Stroke-4465" stroke="#B4B4B4" stroke-width="2" stroke-linecap="round" stroke-linejoin="round"></path>
                <path d="M12,35 L16,35" id="Stroke-4466" stroke="#B4B4B4" stroke-width="2" stroke-linecap="round" stroke-linejoin="round"></path>
                <path d="M16,35 L16,31" id="Stroke-4467" stroke="#B4B4B4" stroke-width="2" stroke-linecap="round" stroke-linejoin="round"></path>
                <path d="M16,31 L20,31" id="Stroke-4468" stroke="#B4B4B4" stroke-width="2" stroke-linecap="round" stroke-linejoin="round"></path>
                <path d="M13.9361,55.7838 L13.9361,55.7838 C12.3141,57.4058 9.6851,57.4058 8.0641,55.7838 L8.0641,55.7838 C6.4421,54.1618 6.4471,51.6258 8.0641,49.3878 L11.0001,45.2348 L13.9361,49.3878 C15.5521,51.9828 15.5581,54.1618 13.9361,55.7838 L13.9361,55.7838 Z" id="Stroke-4472" stroke="#B4B4B4" stroke-width="2" stroke-linecap="round" stroke-linejoin="round"></path>
                <polygon id="Stroke-4473" stroke="#B4B4B4" stroke-width="2" stroke-linecap="round" stroke-linejoin="round" points="49 42 52 42 52 26 49 26"></polygon>
                <path d="M4,41 L2,43" id="Stroke-4474" stroke="#B4B4B4" stroke-width="2" stroke-linecap="round" stroke-linejoin="round"></path>
                <path d="M3,38 L0,38" id="Stroke-4475" stroke="#B4B4B4" stroke-width="2" stroke-linecap="round" stroke-linejoin="round"></path>
                <path d="M4,35 L2,33" id="Stroke-4536" stroke="#B4B4B4" stroke-width="2" stroke-linecap="round" stroke-linejoin="round"></path>
            </g>
        </g>
    </g>
</svg>