<?xml version="1.0" encoding="UTF-8"?>
<svg xmlns="http://www.w3.org/2000/svg" xmlns:xlink="http://www.w3.org/1999/xlink" width="60px" height="60px" viewBox="0 0 60 60" version="1.1">
    <!-- Generator: Sketch 51.1 (57501) - http://www.bohemiancoding.com/sketch -->
    <title>006 - Sink and Mirror</title>
    <desc>Created with Sketch.</desc>
    <defs/>
    <g id="Page-1" stroke="none" stroke-width="1" fill="none" fill-rule="evenodd">
        <g id="006---Sink-and-Mirror" transform="translate(0.000000, -1.000000)" fill-rule="nonzero">
            <path d="M18.546,31.571 C12.7892866,26.3220752 11.3370554,17.8319029 15.0218904,10.9680153 C18.7067254,4.10412781 26.585532,0.623264738 34.1412823,2.52105267 C41.6970326,4.41884059 46.9959119,11.2095607 47,19 C47,31.887 32.639,41.444 19.014,32.462 L18.546,31.571 Z" id="Shape" fill="#CAD9FC"/>
            <circle id="Oval" fill="#E8EDFC" cx="30" cy="19" r="13"/>
            <path d="M30,2 C29.494,2 29,2.032 28.5,2.076 C37.2593443,2.84313638 43.9853033,10.1682326 44.0040137,18.9610854 C44.0227241,27.7539383 37.3280002,35.1075925 28.572,35.912 C34.7939003,36.444988 40.8065733,33.5212233 44.2295413,28.2982538 C47.6525092,23.0752843 47.9337945,16.3953506 44.9620334,10.9031055 C41.9902723,5.41086041 36.2446822,1.99196719 30,2 Z" id="Shape" fill="#A4C2F7"/>
            <rect id="Rectangle-path" fill="#E8EDFC" x="1" y="44" width="58" height="5" rx="2"/>
            <path d="M57,44 L54,44 C55.1032019,44.0032948 55.9967052,44.8967981 56,46 L56,47 C55.9967052,48.1032019 55.1032019,48.9967052 54,49 L57,49 C58.1032019,48.9967052 58.9967052,48.1032019 59,47 L59,46 C58.9967052,44.8967981 58.1032019,44.0032948 57,44 Z" id="Shape" fill="#CAD9FC"/>
            <path d="M50.0000053,49 L50,49.4 C50.003569,52.1221983 48.1984059,54.5154688 45.58,55.26 C43.9354919,55.7304113 42.5640388,56.8696607 41.8,58.4 L41.55,58.89 C41.21227,59.5696577 40.518944,59.9995973 39.76,60 L20.24,60 C19.481056,59.9995973 18.78773,59.5696577 18.45,58.89 L18.2,58.4 C17.4359612,56.8696607 16.0645081,55.7304113 14.42,55.26 C11.8048125,54.5107775 10.001826,52.1203927 10,49.4 L10,49 L50.0000053,49 Z" id="Shape" fill="#CAD9FC"/>
            <path d="M47,49 L47,49.4 C47.003569,52.1221983 45.1984059,54.5154688 42.58,55.26 C40.9354919,55.7304113 39.5640388,56.8696607 38.8,58.4 L38.55,58.89 C38.21227,59.5696577 37.518944,59.9995973 36.76,60 L39.76,60 C40.518944,59.9995973 41.21227,59.5696577 41.55,58.89 L41.8,58.4 C42.5640388,56.8696607 43.9354919,55.7304113 45.58,55.26 C48.1984059,54.5154688 50.003569,52.1221983 50,49.4 L50.0000053,49 L47,49 Z" id="Shape" fill="#A4C2F7"/>
            <path d="M28,44 L28,33 C28,30.790861 26.209139,29 24,29 C21.790861,29 20,30.790861 20,33 C20,34.1045695 19.1045695,35 18,35 C16.8954305,35 16,34.1045695 16,33 C16,28.581722 19.581722,25 24,25 C28.418278,25 32,28.581722 32,33 L32,44" id="Shape" fill="#E8EDFC"/>
            <path d="M18,40 L18,44 L12,44 L12,40 C12.0032948,38.8967981 12.8967981,38.0032948 14,38 L16,38 C17.1032019,38.0032948 17.9967052,38.8967981 18,40 Z" id="Shape" fill="#E8EDFC"/>
            <path d="M48,40 L48,44 L42,44 L42,40 C42.0032948,38.8967981 42.8967981,38.0032948 44,38 L46,38 C47.1032019,38.0032948 47.9967052,38.8967981 48,40 Z" id="Shape" fill="#E8EDFC"/>
            <path d="M16,32.9 C15.9767974,33.895212 16.6652774,34.7659985 17.639,34.973 C18.3351414,35.0986946 19.0452779,34.8418854 19.5,34.3 C19.1814676,33.9414758 19.0038118,33.4795706 19,33 C19.0000041,32.1670659 19.1323195,31.3394198 19.392,30.548 C19.5899424,29.9647701 19.4997956,29.3222419 19.149,28.816 C17.0969566,25.9546705 15.9954542,22.521089 16,19 C16.0012281,10.1947291 22.7287385,2.84915577 31.5,2.076 C31.005,2.032 30.506,2 30,2 C23.4593265,1.98871032 17.494288,5.73714118 14.6670622,11.6352198 C11.8398364,17.5332984 12.6536719,24.5311616 16.759,29.623 C16.274277,30.6483863 16.01544,31.765921 16,32.9 Z" id="Shape" fill="#FFFFFF"/>
            <path d="M3,49 L6,49 C4.89679813,48.9967052 4.0032948,48.1032019 4,47 L4,46 C4.0032948,44.8967981 4.89679813,44.0032948 6,44 L3,44 C1.89679813,44.0032948 1.0032948,44.8967981 1,46 L1,47 C1.0032948,48.1032019 1.89679813,48.9967052 3,49 Z" id="Shape" fill="#FFFFFF"/>
            <path d="M15,40 C15.0038609,39.0911669 15.6200161,38.2992021 16.5,38.072 C16.3372244,38.0261181 16.1691076,38.0019093 16,38 L14,38 C12.8967981,38.0032948 12.0032948,38.8967981 12,40 L12,44 L15,44 L15,40 Z" id="Shape" fill="#FFFFFF"/>
            <path d="M14.42,55.26 C16.0645081,55.7304113 17.4359612,56.8696607 18.2,58.4 L18.45,58.89 C18.78773,59.5696577 19.481056,59.9995973 20.24,60 L23.24,60 C22.481056,59.9995973 21.78773,59.5696577 21.45,58.89 L21.2,58.4 C20.4359612,56.8696607 19.0645081,55.7304113 17.42,55.26 C14.8048125,54.5107775 13.001826,52.1203927 13,49.4 L13,49 L10,49 L10,49.4 C10.001826,52.1203927 11.8048125,54.5107775 14.42,55.26 Z" id="Shape" fill="#FFFFFF"/>
            <path d="M13.968,10.841 L15.75,11.75 C14.6141917,13.9989405 14.0151794,16.4805628 14,19 L12,19 C12.015856,16.164694 12.6895295,13.3717557 13.968,10.841 Z" id="Shape" fill="#FFFFFF"/>
            <path d="M14.425,12.2 C14.9152321,12.4228637 15.4943153,12.2279421 15.75,11.754 C16.411616,10.442804 17.2567858,9.23262857 18.26,8.16 C18.756837,7.62082 19.2865127,7.11285228 19.846,6.639 C20.4195794,6.18216046 21.0207143,5.76103206 21.646,5.378 C26.8245204,2.20034525 33.3565943,2.23232252 38.5037554,5.46052585 C43.6509164,8.68872919 46.5236571,14.5552761 45.9176274,20.6007117 C45.3115977,26.6461473 41.3315287,31.8257286 35.646,33.968 C35.198979,34.1417984 34.9383023,34.6085001 35.0247436,35.0802644 C35.1111849,35.5520287 35.5203985,35.8959864 36,35.9 C36.1205199,35.8996475 36.2400274,35.8779804 36.353,35.836 C42.7607308,33.4326703 47.2501779,27.6021825 47.9360174,20.7930245 C48.621857,13.9838666 45.3853208,7.37519374 39.5855782,3.74228944 C33.7858355,0.109385149 26.4272393,0.0813665754 20.6,3.67 C19.8967672,4.1007638 19.2211191,4.57501996 18.577,5.09 C17.9467527,5.62237923 17.3502654,6.19348415 16.791,6.8 C15.6636803,8.00712835 14.7132201,9.36800696 13.968,10.842 C13.8386074,11.0809392 13.8143411,11.3629073 13.9010073,11.6204405 C13.9876735,11.8779737 14.1774751,12.0879028 14.425,12.2 Z" id="Shape" fill="#428DFF"/>
            <path d="M13.5,16.03 C12.9477153,16.0327614 12.4977614,15.5872847 12.495,15.035 C12.4922386,14.4827153 12.9377153,14.0327614 13.49,14.03 L13.5,14.03 C14.0522847,14.03 14.5,14.4777153 14.5,15.03 C14.5,15.5822847 14.0522847,16.03 13.5,16.03 Z" id="Shape" fill="#428DFF"/>
            <path d="M14.411,26.791 C14.7480489,26.7904895 15.0621646,26.6202249 15.2465603,26.3380894 C15.430956,26.0559539 15.4608201,25.6999106 15.326,25.391 C14.4450875,23.3758303 13.9935004,21.1992894 14,19 C14,18.4477153 13.5522847,18 13,18 C12.4477153,18 12,18.4477153 12,19 C11.9937124,21.4746911 12.5024989,23.9236092 13.494,26.191 C13.6531192,26.5555881 14.0132018,26.7911929 14.411,26.791 Z" id="Shape" fill="#428DFF"/>
            <path d="M39.911,27.479 C40.1252657,27.6363409 40.3933611,27.701894 40.6560549,27.6611765 C40.9187486,27.6204589 41.1544196,27.476822 41.311,27.262 C45.3824112,21.6874235 44.7849961,13.9776261 39.9034187,9.09679684 C35.0218413,4.21596762 27.3119523,3.61973431 21.738,7.692 C21.2920301,8.01784801 21.194652,8.64353005 21.5205,9.08949998 C21.846348,9.5354699 22.4720301,9.63284797 22.918,9.307 C27.695858,5.81795555 34.3033209,6.32991653 38.4867022,10.5132978 C42.6700835,14.6966791 43.1820445,21.304142 39.693,26.082 C39.367554,26.5280005 39.4651407,27.1533607 39.911,27.479 Z" id="Shape" fill="#428DFF"/>
            <path d="M20.09,10.522 C19.8756113,10.364763 19.6074331,10.2993724 19.3447306,10.3402789 C19.082028,10.3811854 18.8464294,10.5250213 18.69,10.74 C16.0906815,14.3248171 15.3287552,18.9234145 16.633,23.155 C16.7641326,23.5719758 17.1508909,23.8554636 17.588,23.855 C17.6897365,23.8557603 17.790964,23.8405762 17.888,23.81 C18.1414378,23.731663 18.3533659,23.5558383 18.4771456,23.3212195 C18.6009253,23.0866007 18.6264132,22.8124143 18.548,22.559 C17.4306125,18.9331079 18.0824421,14.9928717 20.308,11.92 C20.4646041,11.7057489 20.5296216,11.4380346 20.4887327,11.1758199 C20.4478437,10.9136053 20.304402,10.6783975 20.09,10.522 Z" id="Shape" fill="#428DFF"/>
            <path d="M31.293,10.293 C30.9026181,10.6834999 30.9026181,11.3165001 31.293,11.707 L37.293,17.707 C37.6853789,18.0859722 38.3090848,18.0805524 38.6948186,17.6948186 C39.0805524,17.3090848 39.0859722,16.6853789 38.707,16.293 L32.707,10.293 C32.3165001,9.90261806 31.6834999,9.90261806 31.293,10.293 Z" id="Shape" fill="#428DFF"/>
            <path d="M37.293,23.707 C37.6853789,24.0859722 38.3090848,24.0805524 38.6948186,23.6948186 C39.0805524,23.3090848 39.0859722,22.6853789 38.707,22.293 L26.707,10.293 C26.3146211,9.91402779 25.6909152,9.91944763 25.3051814,10.3051814 C24.9194476,10.6909152 24.9140278,11.3146211 25.293,11.707 L37.293,23.707 Z" id="Shape" fill="#428DFF"/>
            <path d="M57,43 L49,43 L49,40 C49,38.3431458 47.6568542,37 46,37 L44,37 C42.3431458,37 41,38.3431458 41,40 L41,43 L33,43 L33,33 C33,28.0294373 28.9705627,24 24,24 C19.0294373,24 15,28.0294373 15,33 C15,34.6568542 16.3431458,36 18,36 C19.6568542,36 21,34.6568542 21,33 C21,31.3431458 22.3431458,30 24,30 C25.6568542,30 27,31.3431458 27,33 L27,43 L19,43 L19,40 C19,38.3431458 17.6568542,37 16,37 L14,37 C12.3431458,37 11,38.3431458 11,40 L11,43 L3,43 C1.34314575,43 2.02906125e-16,44.3431458 0,46 L0,47 C2.02906125e-16,48.6568542 1.34314575,50 3,50 L9.049,50 C9.27822178,52.9371743 11.3138177,55.4202022 14.149,56.221 C15.5265284,56.6160417 16.6748728,57.5713626 17.314,58.854 L17.56,59.337 C18.0638153,60.3564044 19.1028924,61.001175 20.24,61 L39.76,61 C40.895809,61.0034392 41.934945,60.3613462 42.44,59.344 L42.695,58.844 C43.3335306,57.5661061 44.4787503,56.614598 45.852,56.221 C48.6769261,55.405088 50.7050731,52.9301759 50.95,50 L57,50 C58.6568542,50 60,48.6568542 60,47 L60,46 C60,44.3431458 58.6568542,43 57,43 Z M43,40 C43,39.4477153 43.4477153,39 44,39 L46,39 C46.5522847,39 47,39.4477153 47,40 L47,43 L43,43 L43,40 Z M24,28 C21.2399468,28.0033061 19.0033061,30.2399468 19,33 C19,33.5522847 18.5522847,34 18,34 C17.4477153,34 17,33.5522847 17,33 C17.0000001,29.1340068 20.1340068,26.0000001 24,26.0000001 C27.8659932,26.0000001 30.9999999,29.1340068 31,33 L31,43 L29,43 L29,33 C28.9966939,30.2399468 26.7600532,28.0033061 24,28 Z M13,40 C13,39.4477153 13.4477153,39 14,39 L16,39 C16.5522847,39 17,39.4477153 17,40 L17,43 L13,43 L13,40 Z M58,47 C58,47.5522847 57.5522847,48 57,48 L24,48 C23.4477153,48 23,48.4477153 23,49 C23,49.5522847 23.4477153,50 24,50 L48.965,50 C48.7222012,52.0395745 47.2795821,53.734455 45.305,54.3 C43.392039,54.845892 41.7958397,56.1692863 40.905,57.948 L40.651,58.448 C40.4818989,58.7902243 40.1327209,59.0063266 39.751,59.005 L20.24,59.005 C19.8567023,59.0050204 19.5071178,58.7859475 19.34,58.441 L19.095,57.96 C18.2049634,56.1785739 16.6090053,54.8517524 14.695,54.302 C12.7194151,53.7365118 11.2761961,52.0406013 11.034,50 L18,50 C18.5522847,50 19,49.5522847 19,49 C19,48.4477153 18.5522847,48 18,48 L3,48 C2.44771525,48 2,47.5522847 2,47 L2,46 C2,45.4477153 2.44771525,45 3,45 L57,45 C57.5522847,45 58,45.4477153 58,46 L58,47 Z" id="Shape" fill="#428DFF"/>
        </g>
    </g>
</svg>
