<?xml version="1.0" encoding="UTF-8"?>
<svg width="55px" height="60px" viewBox="0 0 55 60" version="1.1" xmlns="http://www.w3.org/2000/svg" xmlns:xlink="http://www.w3.org/1999/xlink">
    <!-- Generator: Sketch 41.1 (35376) - http://www.bohemiancoding.com/sketch -->
    <title>6 -Curved Pipe- (water, flow)</title>
    <desc>Created with Sketch.</desc>
    <defs></defs>
    <g id="Page-1" stroke="none" stroke-width="1" fill="none" fill-rule="evenodd">
        <g id="Icons" transform="translate(-723.000000, -350.000000)">
            <g id="6--Curved-Pipe--(water,-flow)" transform="translate(724.000000, 351.000000)">
                <path d="M16.8924,58 L5.1584,58 C4.5324,58 4.0254,57.493 4.0254,56.867 L4.0254,50 L18.0254,50 L18.0254,56.867 C18.0254,57.493 17.5184,58 16.8924,58" id="Fill-154" fill="#FFFFFF"></path>
                <path d="M16.8924,58 L5.1584,58 C4.5324,58 4.0254,57.493 4.0254,56.867 L4.0254,50 L18.0254,50 L18.0254,56.867 C18.0254,57.493 17.5184,58 16.8924,58 Z" id="Stroke-155" stroke="#0096E6" stroke-width="2" stroke-linecap="round" stroke-linejoin="round"></path>
                <polygon id="Fill-156" fill="#FFFFFF" points="4.025 44 18.025 44 18.025 14 4.025 14"></polygon>
                <polygon id="Stroke-157" stroke="#0096E6" stroke-width="2" stroke-linecap="round" stroke-linejoin="round" points="4.025 44 18.025 44 18.025 14 4.025 14"></polygon>
                <path d="M18.0252,8 L4.0252,8 L4.0252,1.133 C4.0252,0.507 4.5322,0 5.1582,0 L16.8922,0 C17.5182,0 18.0252,0.507 18.0252,1.133 L18.0252,8 Z" id="Fill-158" fill="#FFFFFF"></path>
                <path d="M18.0252,8 L4.0252,8 L4.0252,1.133 C4.0252,0.507 4.5322,0 5.1582,0 L16.8922,0 C17.5182,0 18.0252,0.507 18.0252,1.133 L18.0252,8 Z" id="Stroke-159" stroke="#0096E6" stroke-width="2" stroke-linecap="round" stroke-linejoin="round"></path>
                <path d="M20.8924,14 L1.1584,14 C0.5324,14 0.0254,13.493 0.0254,12.867 L0.0254,9.133 C0.0254,8.507 0.5324,8 1.1584,8 L20.8924,8 C21.5184,8 22.0254,8.507 22.0254,9.133 L22.0254,12.867 C22.0254,13.493 21.5184,14 20.8924,14" id="Fill-160" fill="#D0E8F9"></path>
                <path d="M20.8924,14 L1.1584,14 C0.5324,14 0.0254,13.493 0.0254,12.867 L0.0254,9.133 C0.0254,8.507 0.5324,8 1.1584,8 L20.8924,8 C21.5184,8 22.0254,8.507 22.0254,9.133 L22.0254,12.867 C22.0254,13.493 21.5184,14 20.8924,14 Z" id="Stroke-161" stroke="#0096E6" stroke-width="2" stroke-linecap="round" stroke-linejoin="round"></path>
                <path d="M47.3807,15.0869 L37.4817,5.1879 L42.3367,0.3319 C42.7787,-0.1111 43.4967,-0.1111 43.9397,0.3319 L52.2357,8.6289 C52.6787,9.0709 52.6787,9.7889 52.2357,10.2319 L47.3807,15.0869 Z" id="Fill-162" fill="#FFFFFF"></path>
                <path d="M47.3807,15.0869 L37.4817,5.1879 L42.3367,0.3319 C42.7787,-0.1111 43.4967,-0.1111 43.9397,0.3319 L52.2357,8.6289 C52.6787,9.0709 52.6787,9.7889 52.2357,10.2319 L47.3807,15.0869 Z" id="Stroke-163" stroke="#0096E6" stroke-width="2" stroke-linecap="round" stroke-linejoin="round"></path>
                <path d="M45.1649,21.3569 L31.2109,7.4029 C30.7689,6.9609 30.7689,6.2429 31.2109,5.8009 L33.8519,3.1599 C34.2939,2.7179 35.0119,2.7179 35.4539,3.1599 L49.4079,17.1139 C49.8509,17.5569 49.8509,18.2739 49.4079,18.7169 L46.7679,21.3569 C46.3249,21.7989 45.6069,21.7989 45.1649,21.3569" id="Fill-164" fill="#D0E8F9"></path>
                <path d="M45.1649,21.3569 L31.2109,7.4029 C30.7689,6.9609 30.7689,6.2429 31.2109,5.8009 L33.8519,3.1599 C34.2939,2.7179 35.0119,2.7179 35.4539,3.1599 L49.4079,17.1139 C49.8509,17.5569 49.8509,18.2739 49.4079,18.7169 L46.7679,21.3569 C46.3249,21.7989 45.6069,21.7989 45.1649,21.3569 Z" id="Stroke-165" stroke="#0096E6" stroke-width="2" stroke-linecap="round" stroke-linejoin="round"></path>
                <path d="M20.8924,50 L1.1584,50 C0.5324,50 0.0254,49.493 0.0254,48.867 L0.0254,45.133 C0.0254,44.507 0.5324,44 1.1584,44 L20.8924,44 C21.5184,44 22.0254,44.507 22.0254,45.133 L22.0254,48.867 C22.0254,49.493 21.5184,50 20.8924,50" id="Fill-166" fill="#D0E8F9"></path>
                <path d="M20.8924,50 L1.1584,50 C0.5324,50 0.0254,49.493 0.0254,48.867 L0.0254,45.133 C0.0254,44.507 0.5324,44 1.1584,44 L20.8924,44 C21.5184,44 22.0254,44.507 22.0254,45.133 L22.0254,48.867 C22.0254,49.493 21.5184,50 20.8924,50 Z" id="Stroke-167" stroke="#0096E6" stroke-width="2" stroke-linecap="round" stroke-linejoin="round"></path>
                <polygon id="Fill-168" fill="#FFFFFF" points="18.0252 44 43.1372 19.33 33.2382 9.43 18.0252 24.644"></polygon>
                <polygon id="Stroke-169" stroke="#0096E6" stroke-width="2" stroke-linecap="round" stroke-linejoin="round" points="18.0252 44 43.1372 19.33 33.2382 9.43 18.0252 24.644"></polygon>
            </g>
        </g>
    </g>
</svg>