<?xml version="1.0" encoding="UTF-8"?>
<svg xmlns="http://www.w3.org/2000/svg" xmlns:xlink="http://www.w3.org/1999/xlink" width="40px" height="60px" viewBox="0 0 40 60" version="1.1">
    <!-- Generator: Sketch 51.3 (57544) - http://www.bohemiancoding.com/sketch -->
    <title>021 - Boiler</title>
    <desc>Created with Sketch.</desc>
    <defs/>
    <g id="Page-1" stroke="none" stroke-width="1" fill="none" fill-rule="evenodd">
        <g id="021---Boiler" transform="translate(-1.000000, 0.000000)">
            <path d="M17,54.91 L17,58 C16.9984072,58.5516236 16.5516236,58.9984072 16,59 L12,59 C11.4483764,58.9984072 11.0015928,58.5516236 11,58 L11,54.45 L17,54.91 Z" id="Shape" fill="#DBDCDE" fill-rule="nonzero"/>
            <path d="M31,54.45 L31,58 C30.9984072,58.5516236 30.5516236,58.9984072 30,59 L26,59 C25.4483764,58.9984072 25.0015928,58.5516236 25,58 L25,54.91 L31,54.45 Z" id="Shape" fill="#DBDCDE" fill-rule="nonzero"/>
            <path d="M40,4.6 L40,51.4 C40.0013826,52.3598622 39.3220542,53.185959 38.38,53.37 C32.1580802,54.5494145 25.8317807,55.0888923 19.5,54.98 C14.1700908,54.9031741 8.85687135,54.3644913 3.62,53.37 C2.67794576,53.185959 1.99861742,52.3598622 2,51.4 L2,4.6 C1.99861742,3.64013783 2.67794576,2.81404102 3.62,2.63 C4.75,2.42 5.87,2.22 7,2.05 C8,1.9 9,1.77 10,1.65 L10,18 C9.99410567,23.4963096 14.0537395,28.149932 19.5,28.89 C19.9962079,28.9671237 20.4978496,29.0039108 21,29 C23.9178857,29.001646 26.7167352,27.8432494 28.7799923,25.7799923 C30.8432494,23.7167352 32.001646,20.9178857 32,18 L32,1.65 C34.14,1.9 36.26,2.23 38.38,2.63 C39.3220542,2.81404102 40.0013826,3.64013783 40,4.6 Z" id="Shape" fill="#D8D8D8" fill-rule="nonzero"/>
            <path d="M37,4.6 L37,51.4 C37.0013826,52.3598622 36.3220542,53.185959 35.38,53.37 C30.1431286,54.3644913 24.8299092,54.9031741 19.5,54.98 C14.1700908,54.9031741 8.85687135,54.3644913 3.62,53.37 C2.67794576,53.185959 1.99861742,52.3598622 2,51.4 L2,4.6 C1.99861742,3.64013783 2.67794576,2.81404102 3.62,2.63 C4.75,2.42 8.87,2.22 10,2.05 L10,18 C9.99835398,20.9178857 11.1567506,23.7167352 13.2200077,25.7799923 C15.2832648,27.8432494 18.0821143,29.001646 21,29 C21.5021504,29.0039108 22.0037921,28.9671237 22.5,28.89 C27.9462605,28.149932 32.0058943,23.4963096 32,18 L32,1.65 C33,1.77 31,1.9 32,2.05 C33.13,2.22 34.25,2.42 35.38,2.63 C36.3220542,2.81404102 37.0013826,3.64013783 37,4.6 Z" id="Shape" fill="#EBEBEB" fill-rule="nonzero"/>
            <path d="M32,1.65 L32,18 C32.001646,20.9178857 30.8432494,23.7167352 28.7799923,25.7799923 C26.7167352,27.8432494 23.9178857,29.001646 21,29 C20.4978496,29.0039108 19.9962079,28.9671237 19.5,28.89 C14.0537395,28.149932 9.99410567,23.4963096 10,18 L10,1.65 C17.3075628,0.780554668 24.6924372,0.780554668 32,1.65 Z" id="Shape" fill="#C0C0C0" fill-rule="nonzero"/>
            <path d="M29,1.65 L29,18 C29.0058943,23.4963096 24.9462605,28.149932 19.5,28.89 C14.0537395,28.149932 9.99410567,23.4963096 10,18 L10,1.65 C13.1539025,1.27718958 16.3245918,1.06358525 19.5,1.01 C22.6754082,1.06358525 25.8460975,1.27718958 29,1.65 Z" id="Shape" fill="#DBDCDE" fill-rule="nonzero"/>
            <path d="M28,18 C28.0013544,19.8569303 27.2642914,21.6381947 25.9512431,22.9512431 C24.6381947,24.2642914 22.8569303,25.0013544 21,25 C20.4958296,24.9983662 19.9931714,24.9447493 19.5,24.84 C16.2880535,24.1341856 13.9998669,21.2885825 13.9998669,18 C13.9998669,14.7114175 16.2880535,11.8658144 19.5,11.16 C19.9931714,11.0552507 20.4958296,11.0016338 21,11 C22.8569303,10.9986456 24.6381947,11.7357086 25.9512431,13.0487569 C27.2642914,14.3618053 28.0013544,16.1430697 28,18 Z" id="Shape" fill="#EBEBEB" fill-rule="nonzero"/>
            <ellipse id="Oval" fill="#FFFFFF" fill-rule="nonzero" cx="19.5" cy="18" rx="5.5" ry="6.84"/>
            <rect id="Rectangle-path" fill="#C0C0C0" fill-rule="nonzero" x="15" y="34" width="12" height="6" rx="1"/>
            <rect id="Rectangle-path" fill="#DBDCDE" fill-rule="nonzero" x="15" y="34" width="9" height="6" rx="1"/>
            <path d="M10,1.65 C9,1.77 8,1.9 7,2.05 C5.87,2.22 4.75,2.42 3.62,2.63 C2.67794576,2.81404102 1.99861742,3.64013783 2,4.6 L2,51.4 C1.99861742,52.3598622 2.67794576,53.185959 3.62,53.37 C6.0684,53.8364 8.5306,54.19 11,54.4543 L11,58 C11.0015928,58.5516236 11.4483764,58.9984072 12,59 L15,59 C14.4483764,58.9984072 14.0015928,58.5516236 14,58 L14,54.4543 C11.5306,54.1904 9.0684,53.8364 6.62,53.37 C5.67794576,53.185959 4.99861742,52.3598622 5,51.4 L5,4.6 C4.99861742,3.64013783 5.67794576,2.81404102 6.62,2.63 C7.75,2.42 8.87,2.22 10,2.05 C11,1.9 12,1.77 13,1.65 C16.1,1.287 19.2066667,1.07543333 22.32,1.0153 C21.38,1.0012 20.44,0.9965 19.5,1.01 C16.3245918,1.06358525 13.1539025,1.27718958 10,1.65 Z" id="Shape" fill="#FFFFFF" fill-rule="nonzero"/>
            <polygon id="Shape" fill="#FFFFFF" fill-rule="nonzero" points="3 4.6 3 17.6 3 51.4 1 51.4 1 17.6 1 4.6"/>
            <path d="M2,9.6 C2.55162365,9.59840721 2.99840721,9.15162365 3,8.6 L3,4.6 L1,4.6 L1,8.6 C1.00159279,9.15162365 1.44837635,9.59840721 2,9.6 Z" id="Shape" fill="#A7A7A7" fill-rule="nonzero"/>
            <path d="M1,51.4 L3,51.4 L3,16.6 C3,16.0477153 2.55228475,15.6 2,15.6 C1.44771525,15.6 1,16.0477153 1,16.6 L1,51.4 Z" id="Shape" fill="#A7A7A7" fill-rule="nonzero"/>
            <path d="M3,12.6 C2.9960411,12.3352892 2.89249776,12.0817865 2.71,11.89 L2.56,11.77 C2.50424402,11.732172 2.44371601,11.701908 2.38,11.68 C2.32333992,11.6511067 2.26266403,11.6308814 2.2,11.62 C2.13387794,11.6087024 2.06704987,11.6020196 2,11.6 C1.73523302,11.6036835 1.48163379,11.7072663 1.29,11.89 C1.04739543,12.1238004 0.940984779,12.4653022 1.00784056,12.7955292 C1.07469634,13.1257562 1.30555974,13.3989756 1.62,13.52 C1.74022231,13.571241 1.86932274,13.59842 2,13.6 C2.26603534,13.6027011 2.52196165,13.4982118 2.71008674,13.3100867 C2.89821183,13.1219616 3.00270108,12.8660353 3,12.6 Z" id="Shape" fill="#A7A7A7" fill-rule="nonzero"/>
            <path d="M2,4.6 C1.99743301,3.6404357 2.67614266,2.81401997 3.6179,2.63 C15.1041055,0.457099893 26.8958945,0.457099893 38.3821,2.63 C39.3238573,2.81401997 40.002567,3.6404357 40,4.6 L40,51.4 C40.002567,52.3595643 39.3238573,53.18598 38.3821,53.37 C26.8958945,55.5429001 15.1041055,55.5429001 3.6179,53.37 C2.67614266,53.18598 1.99743301,52.3595643 2,51.4" id="Shape" stroke="#A7A7A7" stroke-width="2" stroke-linecap="round" stroke-linejoin="round"/>
            <path d="M32,1.65 L32,18 C32,24.0751322 27.0751322,29 21,29 C14.9248678,29 10,24.0751322 10,18 L10,1.65" id="Shape" stroke="#A7A7A7" stroke-width="2" stroke-linecap="round" stroke-linejoin="round"/>
            <circle id="Oval" stroke="#A7A7A7" stroke-width="2" stroke-linecap="round" stroke-linejoin="round" cx="21" cy="18" r="7"/>
            <path d="M23,15 L21,18" id="Shape" stroke="#A7A7A7" stroke-width="2" stroke-linecap="round" stroke-linejoin="round"/>
            <path d="M17,54.91 L17,58 C16.9984072,58.5516236 16.5516236,58.9984072 16,59 L12,59 C11.4483764,58.9984072 11.0015928,58.5516236 11,58 L11,54.45" id="Shape" stroke="#A7A7A7" stroke-width="2" stroke-linecap="round" stroke-linejoin="round"/>
            <path d="M31,54.45 L31,58 C30.9984072,58.5516236 30.5516236,58.9984072 30,59 L26,59 C25.4483764,58.9984072 25.0015928,58.5516236 25,58 L25,54.91" id="Shape" stroke="#A7A7A7" stroke-width="2" stroke-linecap="round" stroke-linejoin="round"/>
            <rect id="Rectangle-path" stroke="#A7A7A7" stroke-width="2" stroke-linecap="round" stroke-linejoin="round" x="15" y="34" width="12" height="6" rx="1"/>
            <path d="M6,32 L6,33" id="Shape" stroke="#A7A7A7" stroke-width="2" stroke-linecap="round" stroke-linejoin="round"/>
            <path d="M6,49 L6,37" id="Shape" stroke="#A7A7A7" stroke-width="2" stroke-linecap="round" stroke-linejoin="round"/>
            <path d="M13,44 L15,44" id="Shape" stroke="#A7A7A7" stroke-width="2" stroke-linecap="round" stroke-linejoin="round"/>
            <path d="M13,48 L15,48" id="Shape" stroke="#A7A7A7" stroke-width="2" stroke-linecap="round" stroke-linejoin="round"/>
            <path d="M27,44 L29,44" id="Shape" stroke="#A7A7A7" stroke-width="2" stroke-linecap="round" stroke-linejoin="round"/>
            <path d="M27,48 L29,48" id="Shape" stroke="#A7A7A7" stroke-width="2" stroke-linecap="round" stroke-linejoin="round"/>
        </g>
    </g>
</svg>
