<?xml version="1.0" encoding="UTF-8"?>
<svg width="60px" height="60px" viewBox="0 0 60 60" version="1.1" xmlns="http://www.w3.org/2000/svg" xmlns:xlink="http://www.w3.org/1999/xlink">
    <!-- Generator: Sketch 47.1 (45422) - http://www.bohemiancoding.com/sketch -->
    <title>Tools - webby - 010 - Pipe Wrench</title>
    <desc>Created with Sketch.</desc>
    <defs></defs>
    <g id="Page-1" stroke="none" stroke-width="1" fill="none" fill-rule="evenodd">
        <g id="Tools---webby---010---Pipe-Wrench" fill-rule="nonzero">
            <g id="Colour" transform="translate(1.000000, 1.000000)">
                <path d="M31.8988,22.287 L16.86912,37.31667 C15.6949461,38.4908439 13.7912339,38.4908439 12.61706,37.31667 C11.4428861,36.1424961 11.4428861,34.2387839 12.61706,33.06461 L27.64675,18.03492 L31.8988,22.287 Z" id="Shape" fill="#C6E2F7"></path>
                <path d="M37.00291,17.18287 L43.79881,10.38697 C44.1747143,10.011061 44.6845527,9.79987709 45.216165,9.79987709 C45.7477773,9.79987709 46.2576157,10.011061 46.63352,10.38697 L54.429,18.1824 C54.61695,18.3703567 54.8718689,18.4759502 55.137675,18.4759502 C55.4034811,18.4759502 55.6584,18.3703567 55.84635,18.1824 L56.71802,17.31073 C57.4911873,16.537966 57.7865991,15.4078167 57.49048,14.35555 L55.85348,8.63655 C55.3867603,6.99697847 54.5085279,5.50398964 53.30224,4.29946 L50.1769,1.17417 C48.611333,-0.391387856 46.073057,-0.391387856 44.50749,1.17417 L43.09014,2.59153 L40.96414,4.71753 L43.09014,2.59153 L32.75085,12.93082 L37.00291,17.18287 Z" id="Shape" fill="#C6E2F7"></path>
                <path d="M51.59009,21.02 L43.80009,13.22 C43.0099472,12.4500415 41.7501428,12.4500415 40.96,13.22 L38.84013,15.35 L1.28,52.91 C0.69587806,53.4923026 0.376816127,54.2891242 0.397618372,55.1136495 C0.418420618,55.9381749 0.777257646,56.7178935 1.39,57.27 C2.65013887,58.3237121 4.51063676,58.2232627 5.65,57.04 L37.6699,25.02 L41.6699,21.02 C42.4559444,20.2400283 43.7239456,20.2400283 44.50999,21.02 L47.34007,23.85 C48.1259975,24.6300189 49.3939825,24.6300189 50.17991,23.85 L51.59007,22.44 C51.979939,22.0469504 51.9799479,21.4130606 51.59009,21.02 Z M5.04,54.71 C4.98426436,54.8277528 4.90998592,54.9357942 4.82,55.03 C4.77247175,55.0761631 4.72233973,55.1195674 4.66985,55.16 C4.60992,55.19 4.55999,55.22 4.49993,55.25 C4.43792266,55.2712828 4.37443942,55.2879942 4.30999,55.3 C4.24465791,55.3165348 4.17723237,55.323275 4.10992,55.32 C3.84683481,55.3225501 3.5940582,55.2178403 3.40984,55.03 C3.31350845,54.9411195 3.23833119,54.8317708 3.18984,54.71 C3.13852996,54.5863023 3.11142681,54.4539097 3.11,54.32 C3.11113363,54.0556957 3.21934441,53.8031365 3.40992,53.62 C3.45289224,53.5691094 3.50355344,53.5252469 3.56007,53.49 C3.61,53.46 3.66993,53.43 3.72999,53.4 C3.79005,53.38 3.84999,53.36 3.91993,53.34 C4.04921079,53.32004 4.18078921,53.32004 4.31007,53.34 C4.37001,53.36 4.43995,53.38 4.50001,53.4 C4.56007,53.43 4.61001,53.46 4.66993,53.49 C4.72241704,53.5304359 4.77254887,53.5738401 4.82008,53.62 C5.00398258,53.8068128 5.10796104,54.0578645 5.11,54.32 C5.11200078,54.4532949 5.08823196,54.5857212 5.04,54.71 Z" id="Shape" fill="#C6E2F7"></path>
                <path d="M29.62529,10.387 L24.66455,15.3477 C24.0997218,15.9110429 23.7822795,16.6759919 23.7822795,17.47373 C23.7822795,18.2714681 24.0997218,19.0364171 24.66455,19.59976 L35.2947,30.2299 C35.686752,30.61969 36.319998,30.61969 36.71205,30.2299 L38.83805,28.1039 C39.2278345,27.7118458 39.2278345,27.0786042 38.83805,26.68655 C38.3534302,26.2044544 37.9576078,25.6406878 37.66876,25.02114 C36.5656154,22.7247152 37.0345883,19.9818801 38.83805,18.18243 C39.6176026,17.3983148 39.6176026,16.1318452 38.83805,15.34773 L33.87735,10.387 C33.3140136,9.82215953 32.5490622,9.50470872 31.75132,9.50470872 C30.9535778,9.50470872 30.1886264,9.82215953 29.62529,10.387 L29.62529,10.387 Z" id="Shape" fill="#FFFFFF"></path>
                <rect id="Rectangle-path" fill="#C6E2F7" transform="translate(31.749849, 17.475203) rotate(-135.000000) translate(-31.749849, -17.475203) " x="29.2442988" y="14.9717383" width="5.0111" height="5.00693" rx="2"></rect>
            </g>
            <g id="Layer_12" fill="#1081E0">
                <path d="M4.3418,59.99072 C5.47207661,59.9911126 6.55644495,59.5435637 7.35742,58.74609 L34.8772,31.22632 L35.58789,31.93701 C36.3701535,32.7176068 37.6366865,32.7176068 38.41895,31.93701 L40.54595,29.81055 C41.3254626,29.0276771 41.3250154,27.761812 40.54495,26.97949 C40.3085632,26.7380388 40.0978807,26.4727 39.91629,26.18774 L43.37991,22.72412 C43.7726003,22.3325217 44.4081197,22.3325217 44.80081,22.72412 L47.63481,25.55957 C48.8092846,26.7303212 50.7096055,26.7301021 51.88381,25.55908 L53.29981,24.14355 C54.0783382,23.3604661 54.0778913,22.0955237 53.29881,21.31299 L45.50291,13.51758 C45.2580669,13.2772983 44.9733617,13.0813548 44.66148,12.93848 L45.50584,12.09424 C45.9032997,11.7143538 46.5292803,11.7143538 46.92674,12.09424 L54.72166,19.89014 C55.5048435,20.6697885 56.7710273,20.6693414 57.55366,19.88914 L58.42475,19.01756 C59.455097,17.9880127 59.8477727,16.4815767 59.45112,15.08006 L57.81538,9.36326 C57.3004205,7.56028214 56.3344786,5.91828018 55.00874,4.59226 L51.88374,1.46726 C50.944573,0.527870215 49.6706818,6.71015559e-05 48.3423415,-2.47926609e-05 C47.0140012,-0.000116686878 45.740037,0.527510166 44.80074,1.46677 L43.38424,2.88327 L43.38277,2.88427 L35.58565,10.68187 L35.58394,10.68017 C33.9995342,9.16406007 31.5023458,9.16406007 29.91794,10.68017 L24.95794,15.64061 C24.2052196,16.3912447 23.7821699,17.4105764 23.7821699,18.47361 C23.7821699,19.5366436 24.2052196,20.5559753 24.95794,21.30661 L24.9594,21.30808 L12.91016,33.35742 C11.8877542,34.3655789 11.487816,35.8463796 11.8636556,37.23218 C12.2394952,38.6179804 13.3328082,39.6938 14.72449,40.04724 L1.57129,53.20068 C0.794877488,53.9799947 0.37079955,55.0428359 0.39746,56.14258 C0.421910543,57.2436534 0.902582741,58.2851092 1.72461,59.01807 C2.44733749,59.6537282 3.37935085,60.0001008 4.3418,59.99072 Z M42.668,14.93213 C43.0605553,14.5403963 43.6960746,14.5401771 44.0889,14.93164 L51.8848,22.73047 L50.4698,24.14502 C50.0771097,24.5366183 49.4415903,24.5366183 49.0489,24.14502 L46.2149,21.30957 C45.0404254,20.1388188 43.1401045,20.1390379 41.9659,21.31006 L39.1307,24.14532 L39.12581,24.12372 C39.12069,24.08716 39.12069,24.05035 39.11629,24.01372 C39.0936054,23.8216217 39.0821526,23.628363 39.08199,23.43493 C39.08199,23.36266 39.08529,23.29052 39.08846,23.21837 C39.09554,23.0524233 39.1110033,22.8872233 39.13485,22.72277 C39.14461,22.65569 39.15194,22.58837 39.16414,22.52177 C39.2042502,22.2986458 39.2594299,22.0784951 39.3293,21.86283 C39.33748,21.83824 39.3493,21.81483 39.35787,21.79026 C39.4251695,21.5980071 39.5041328,21.4100381 39.59432,21.2274 C39.62667,21.1616 39.66292,21.09751 39.6982,21.033 C39.7779067,20.8872533 39.86527,20.7452033 39.96029,20.60685 C40.00129,20.54716 40.04073,20.48667 40.08429,20.42851 C40.2249385,20.2382512 40.3788871,20.0581939 40.54498,19.88969 C40.6745723,19.7579605 40.7916516,19.6144812 40.89471,19.4611 C40.92779,19.41294 40.95489,19.36283 40.98471,19.31321 C41.0494021,19.206954 41.1072981,19.0967066 41.15805,18.98313 C41.18332,18.926 41.20724,18.8693 41.22885,18.81101 C41.2721123,18.6925405 41.3079091,18.5714766 41.33603,18.44853 C41.34775,18.39842 41.36313,18.34959 41.37216,18.29899 C41.403508,18.1281252 41.4200892,17.954879 41.42172,17.78117 C41.42172,17.7487 41.41635,17.71678 41.41537,17.68437 C41.4120381,17.5411403 41.3984129,17.3983356 41.3746,17.25706 C41.36484,17.19962 41.35055,17.14359 41.33749,17.08665 C41.3100496,16.9675569 41.2753583,16.8502517 41.23361,16.73539 C41.21322,16.67939 41.19345,16.62412 41.16961,16.56925 C41.15532,16.53617 41.14653,16.5015 41.13091,16.46885 L41.39397,16.20585 L42.668,14.93213 Z M42.66983,6.42554 L42.67093,6.4248 L46.21487,2.88135 C47.4052082,1.74413798 49.2794218,1.74413798 50.46976,2.88135 L53.59476,6.00635 C54.6799566,7.092014 55.4707623,8.43618234 55.89261,9.91211 L57.52835,15.62842 C57.7261927,16.3320865 57.5282218,17.0877327 57.01077,17.604 L56.13577,18.47559 L48.34085,10.68018 C47.1669154,9.50831421 45.2657846,9.50831421 44.09185,10.68018 L41.25769,13.514 L41.25391,13.517 L41.25391,13.51749 L39.83791,14.93356 L36.99978,12.0958 L42.66983,6.42554 Z M26.37207,17.05469 L31.33207,12.09424 C32.1250844,11.3334927 33.3769456,11.3334927 34.16996,12.09424 L39.1309,17.05469 C39.5224983,17.4473803 39.5224983,18.0828997 39.1309,18.47559 C37.0284757,20.5707065 36.4794192,23.7655716 37.76176,26.44238 L37.76576,26.44938 L37.76856,26.45652 L37.77296,26.46196 C38.1108774,27.1802936 38.5702587,27.8349046 39.13087,28.39696 L37.002,30.523 L26.37207,19.89258 C25.9945048,19.5169105 25.7822308,19.0062541 25.7822308,18.473635 C25.7822308,17.9410159 25.9945048,17.4303595 26.37207,17.05469 Z M14.32422,37.60986 C13.5429658,36.8250114 13.5429658,35.5563286 14.32422,34.77148 L26.37354,22.72223 L29.2113,25.56018 L17.16064,37.611 C16.3762915,38.3920584 15.1079404,38.3915486 14.32422,37.60986 Z M2.98535,54.61475 L18.57471,39.02515 L18.57617,39.02393 L30.625,26.97461 L33.46289,29.8125 L5.94336,57.332 C5.18042104,58.1383185 3.92645023,58.2243406 3.06055,57.52976 C2.65078506,57.1607928 2.41065907,56.6396411 2.39643896,56.0884225 C2.38221884,55.5372039 2.59515439,55.0043643 2.98535,54.61476 L2.98535,54.61475 Z" id="Shape"></path>
                <path d="M4.41016,56.02979 C4.59402821,56.2176247 4.84654394,56.322355 5.10938,56.31979 C5.17673337,56.3231194 5.24420652,56.3163785 5.30957,56.29979 C5.37421139,56.2880191 5.4378697,56.271375 5.5,56.25 C5.55957,56.21973 5.60938,56.18994 5.66992,56.15967 C5.72210548,56.1191918 5.77198981,56.0758309 5.81934,56.02979 C5.90962536,55.9357642 5.98413748,55.8277781 6.04,55.71 C6.08787941,55.5855924 6.11141912,55.4531468 6.10934,55.31986 C6.10753125,55.0576063 6.00348954,54.806403 5.81934,54.61967 C5.77199237,54.5736263 5.72210789,54.5302653 5.66992,54.48979 C5.60938,54.46 5.55957,54.42969 5.5,54.3999 C5.43945,54.3799 5.37012,54.3599 5.30957,54.33984 C5.18045813,54.31982 5.04903187,54.31982 4.91992,54.33984 C4.84961,54.35984 4.79004,54.37984 4.72949,54.3999 C4.66992,54.42969 4.60938,54.45996 4.55957,54.48975 C4.50343023,54.5251647 4.4530432,54.5689654 4.41016,54.61963 C4.21922242,54.8026683 4.1106896,55.0553234 4.10938,55.31982 C4.11097062,55.4537802 4.13814811,55.5862022 4.18945,55.70996 C4.23826821,55.8316846 4.31367652,55.9409585 4.41016,56.02979 L4.41016,56.02979 Z" id="Shape"></path>
                <path d="M30.62988,21.31055 C31.8028836,22.4793549 33.7003163,22.4791358 34.87305,21.31006 L35.58594,20.59766 C36.7541231,19.4246997 36.753676,17.5278794 35.58494,16.35547 L34.8701,15.64062 C33.6976336,14.4707067 31.7993964,14.4707067 30.62693,15.64062 L29.915,16.352 C29.3522492,16.9146393 29.0360897,17.677809 29.0360897,18.47358 C29.0360897,19.269351 29.3522492,20.0325207 29.915,20.59516 L30.62988,21.31055 Z M31.3291,17.7666 L32.04102,17.05469 C32.4320906,16.664744 33.0649494,16.664744 33.45602,17.05469 L34.16989,17.76904 C34.5602774,18.1597667 34.5607247,18.7927619 34.17089,19.18404 L33.45897,19.89547 C33.068105,20.2857219 32.4351052,20.2859411 32.04397,19.89596 L31.32912,19.18111 C31.1415346,18.9935313 31.0361497,18.739116 31.0361497,18.473835 C31.0361497,18.208554 31.1415346,17.9541387 31.32912,17.76656 L31.3291,17.7666 Z" id="Shape"></path>
            </g>
        </g>
    </g>
</svg>