<?xml version="1.0" encoding="UTF-8"?>
<svg xmlns="http://www.w3.org/2000/svg" xmlns:xlink="http://www.w3.org/1999/xlink" width="58px" height="60px" viewBox="0 0 58 60" version="1.1">
    <!-- Generator: Sketch 51.3 (57544) - http://www.bohemiancoding.com/sketch -->
    <title>029 - Gas Heater</title>
    <desc>Created with Sketch.</desc>
    <defs/>
    <g id="Page-1" stroke="none" stroke-width="1" fill="none" fill-rule="evenodd">
        <g id="029---Gas-Heater" transform="translate(0.000000, 1.000000)">
            <path d="M54,13 L54.0000002,20 L50,20 L50,14 C49.9984072,13.4483764 49.5516236,13.0015928 49,13 L47,13 C46.8236827,13.000181 46.6507747,13.0485952 46.5,13.14 C46.1900157,13.3150936 45.9987997,13.6439852 46,14 L46,20 L41.9999998,20 L42,13 C41.9997081,11.9390446 42.4210417,10.9214593 43.1712505,10.1712505 C43.9214593,9.42104175 44.9390446,8.99970812 46,9 L50,9 C51.0609554,8.99970812 52.0785407,9.42104175 52.8287495,10.1712505 C53.5789583,10.9214593 54.0002919,11.9390446 54,13 Z" id="Shape" fill="#C0C0C0" fill-rule="nonzero"/>
            <path d="M51,13 L51.0000002,20 L50,20 L50,14 C49.9984072,13.4483764 49.5516236,13.0015928 49,13 L47,13 C46.8236827,13.000181 46.6507747,13.0485952 46.5,13.14 C46.3492253,13.0485952 46.1763173,13.000181 46,13 L47,13 C46.4483764,13.0015928 46.0015928,13.4483764 46,14 L46,20 L41.9999998,20 L42,13 C41.9997081,11.9390446 42.4210417,10.9214593 43.1712505,10.1712505 C43.9214593,9.42104175 44.9390446,8.99970812 46,9 L47,9 C48.0609554,8.99970812 49.0785407,9.42104175 49.8287495,10.1712505 C50.5789583,10.9214593 51.0002919,11.9390446 51,13 Z" id="Shape" fill="#DBDCDE" fill-rule="nonzero"/>
            <path d="M55,54 L54.19,57.24 C54.0814465,57.6872451 53.6802277,58.0016022 53.22,58 L42.78,58 C42.3197723,58.0016022 41.9185535,57.6872451 41.81,57.24 L41,54 L45,52 L51,52 L55,54 Z" id="Shape" fill="#C0C0C0" fill-rule="nonzero"/>
            <path d="M52,54 L51.19,57.24 C51.0814465,57.6872451 50.6802277,58.0016022 50.22,58 L42.78,58 C42.3197723,58.0016022 41.9185535,57.6872451 41.81,57.24 L41,54 L45,52 L48,52 L52,54 Z" id="Shape" fill="#DBDCDE" fill-rule="nonzero"/>
            <path d="M12,53 L12,56 C11.9967598,57.1032246 11.1032246,57.9967598 10,58 L7,58 C5.89677542,57.9967598 5.0032402,57.1032246 5,56 L5,53 L12,53 Z" id="Shape" fill="#C0C0C0" fill-rule="nonzero"/>
            <path d="M29,52 L29,56 C28.9967598,57.1032246 28.1032246,57.9967598 27,58 L24,58 C22.8967754,57.9967598 22.0032402,57.1032246 22,56 L22,52 L29,52 Z" id="Shape" fill="#C0C0C0" fill-rule="nonzero"/>
            <path d="M9,53 L9,56 C9,57.1045695 8.1045695,58 7,58 C5.8954305,58 5,57.1045695 5,56 L5,53 L9,53 Z" id="Shape" fill="#DBDCDE" fill-rule="nonzero"/>
            <path d="M26,52 L26,56 C26,57.1045695 25.1045695,58 24,58 C22.8954305,58 22,57.1045695 22,56 L22,52 L26,52 Z" id="Shape" fill="#DBDCDE" fill-rule="nonzero"/>
            <path d="M4,11 L30,11 C31.6568542,11 33,12.3431458 33,14 L33,52 C33,53.1045695 32.1045695,54 31,54 L3,54 C1.8954305,54 1,53.1045695 1,52 L1,14 C1,12.3431458 2.34314575,11 4,11 Z" id="Shape" fill="#D8D8D8" fill-rule="nonzero"/>
            <path d="M4,11 L27,11 C28.6568542,11 30,12.3431458 30,14 L30,52 C30,53.1045695 29.1045695,54 28,54 L3,54 C1.8954305,54 1,53.1045695 1,52 L1,14 C1,12.3431458 2.34314575,11 4,11 Z" id="Shape" fill="#EBEBEB" fill-rule="nonzero"/>
            <path d="M26,11 L26,34 C25.9996135,38.9704026 21.9704026,42.9996135 17,43 C16.4975785,43.0006081 15.9959348,42.9604766 15.5,42.88 C11.1692895,42.1445487 8.00051067,38.3927147 8,34 L8,11 L26,11 Z" id="Shape" fill="#C0C0C0" fill-rule="nonzero"/>
            <path d="M23,11 L23,34 C22.9994893,38.3927147 19.8307105,42.1445487 15.5,42.88 C11.1692895,42.1445487 8.00051067,38.3927147 8,34 L8,11 L23,11 Z" id="Shape" fill="#DBDCDE" fill-rule="nonzero"/>
            <circle id="Oval" fill="#EBEBEB" fill-rule="nonzero" cx="7.5" cy="47.5" r="2.5"/>
            <circle id="Oval" fill="#EBEBEB" fill-rule="nonzero" cx="26.5" cy="47.5" r="2.5"/>
            <rect id="Rectangle-path" fill="#D8D8D8" fill-rule="nonzero" x="39" y="18" width="18" height="36" rx="2"/>
            <rect id="Rectangle-path" fill="#EBEBEB" fill-rule="nonzero" x="39" y="18" width="15" height="36" rx="2"/>
            <rect id="Rectangle-path" fill="#D8D8D8" fill-rule="nonzero" x="39" y="25" width="18" height="22"/>
            <rect id="Rectangle-path" fill="#EBEBEB" fill-rule="nonzero" x="39" y="25" width="15" height="22"/>
            <path d="M46.3059,41 C46.1181927,41.0034879 45.9334337,40.9529854 45.7736,40.8545 C44.8176387,40.2108277 44.1865077,39.1854132 44.0425242,38.0419777 C43.8985407,36.8985422 44.2557561,35.7486733 45.0223,34.8881 C45.8151,34.1064 46.8671,33.6847 47.6833,32.9318 C48.4358127,32.2735132 48.9089895,31.3530518 49.0064,30.358 C49.0158,30.2388667 49.0204333,30.1195333 49.0203,30 C49.0203,28.0425 54.768,35.6644 50.3244,40.6772 C50.1333036,40.8855414 49.8626935,41.0028882 49.58,41 L46.3059,41 Z" id="Shape" fill="#EBEBEB" fill-rule="nonzero"/>
            <path d="M7,58 L10,58 C8.89677542,57.9967598 8.0032402,57.1032246 8,56 L8,54 L6,54 C4.8954305,54 4,53.1045695 4,52 L4,14 C4,12.3431458 5.34314575,11 7,11 L4,11 C2.34314575,11 1,12.3431458 1,14 L1,52 C1,53.1045695 1.8954305,54 3,54 L5,54 L5,56 C5.0032402,57.1032246 5.89677542,57.9967598 7,58 Z" id="Shape" fill="#FFFFFF" fill-rule="nonzero"/>
            <polygon id="Shape" fill="#FFFFFF" fill-rule="nonzero" points="2 14 2 27 2 52 0 52 0 27 0 14"/>
            <path d="M1,19 C1.55162365,18.9984072 1.99840721,18.5516236 2,18 L2,14 L0,14 L0,18 C0.00164740056,18.5516009 0.448399067,18.9983526 1,19 Z" id="Shape" fill="#A7A7A7" fill-rule="nonzero"/>
            <path d="M0,52 L2,52 L2,26 C2,25.4477153 1.55228475,25 1,25 C0.44771525,25 0,25.4477153 0,26 L0,52 Z" id="Shape" fill="#A7A7A7" fill-rule="nonzero"/>
            <path d="M2,22 C1.9960411,21.7352892 1.89249776,21.4817865 1.71,21.29 L1.56,21.17 C1.50424402,21.132172 1.44371601,21.101908 1.38,21.08 C1.32333992,21.0511067 1.26266403,21.0308814 1.2,21.02 C1.13387126,21.0087518 1.06704662,21.0020694 1,21 C0.735233018,21.0036835 0.481633787,21.1072663 0.29,21.29 C-0.0874522704,21.688085 -0.0874522704,22.311915 0.29,22.71 C0.385660077,22.8003288 0.497657849,22.8716001 0.62,22.92 C0.740222313,22.971241 0.869322743,22.99842 1,23 C1.26469083,22.9959431 1.51815919,22.8924138 1.71,22.71 C1.89241381,22.5181592 1.99594314,22.2646908 2,22 Z" id="Shape" fill="#A7A7A7" fill-rule="nonzero"/>
            <path d="M1,14 C1,12.3431458 2.34314575,11 4,11 L30,11 C31.6568542,11 33,12.3431458 33,14 L33,52 C33,53.1045695 32.1045695,54 31,54 L3,54 C1.8954305,54 1,53.1045695 1,52" id="Shape" stroke="#A7A7A7" stroke-width="2" stroke-linecap="round" stroke-linejoin="round"/>
            <path d="M8,11 L26,11 L26,34 C26,38.9705627 21.9705627,43 17,43 C12.0294373,43 8,38.9705627 8,34 L8,11 Z" id="Shape" stroke="#A7A7A7" stroke-width="2" stroke-linecap="round" stroke-linejoin="round"/>
            <circle id="Oval" stroke="#A7A7A7" stroke-width="2" stroke-linecap="round" stroke-linejoin="round" cx="7.5" cy="47.5" r="2.5"/>
            <circle id="Oval" stroke="#A7A7A7" stroke-width="2" stroke-linecap="round" stroke-linejoin="round" cx="26.5" cy="47.5" r="2.5"/>
            <path d="M15,48 L19,48" id="Shape" stroke="#A7A7A7" stroke-width="2" stroke-linecap="round" stroke-linejoin="round"/>
            <path d="M12,15 L22,15" id="Shape" stroke="#A7A7A7" stroke-width="2" stroke-linecap="round" stroke-linejoin="round"/>
            <path d="M12,19 L22,19" id="Shape" stroke="#A7A7A7" stroke-width="2" stroke-linecap="round" stroke-linejoin="round"/>
            <path d="M12,23 L22,23" id="Shape" stroke="#A7A7A7" stroke-width="2" stroke-linecap="round" stroke-linejoin="round"/>
            <path d="M12,27 L22,27" id="Shape" stroke="#A7A7A7" stroke-width="2" stroke-linecap="round" stroke-linejoin="round"/>
            <path d="M12,31 L22,31" id="Shape" stroke="#A7A7A7" stroke-width="2" stroke-linecap="round" stroke-linejoin="round"/>
            <path d="M12,35 L22,35" id="Shape" stroke="#A7A7A7" stroke-width="2" stroke-linecap="round" stroke-linejoin="round"/>
            <path d="M15,39 L19,39" id="Shape" stroke="#A7A7A7" stroke-width="2" stroke-linecap="round" stroke-linejoin="round"/>
            <path d="M5,54 L12,54 L12,56 C12,57.1045695 11.1045695,58 10,58 L7,58 C5.8954305,58 5,57.1045695 5,56 L5,54 Z" id="Shape" stroke="#A7A7A7" stroke-width="2" stroke-linecap="round" stroke-linejoin="round"/>
            <path d="M22,54 L29,54 L29,56 C29,57.1045695 28.1045695,58 27,58 L24,58 C22.8954305,58 22,57.1045695 22,56 L22,54 Z" id="Shape" stroke="#A7A7A7" stroke-width="2" stroke-linecap="round" stroke-linejoin="round"/>
            <rect id="Rectangle-path" stroke="#A7A7A7" stroke-width="2" stroke-linecap="round" stroke-linejoin="round" x="39" y="18" width="18" height="36" rx="2"/>
            <path d="M41,54 L55,54 L54.1894,57.2425 C54.078135,57.6876296 53.6782249,57.9999305 53.2194,58 L42.7808,58 C42.3219751,57.9999305 41.922065,57.6876296 41.8108,57.2425 L41,54 Z" id="Shape" stroke="#A7A7A7" stroke-width="2" stroke-linecap="round" stroke-linejoin="round"/>
            <path d="M46,9 L50,9 C52.209139,9 54,10.790861 54,13 L54,18 L42,18 L42,13 C42,10.790861 43.790861,9 46,9 Z" id="Shape" stroke="#A7A7A7" stroke-width="2" stroke-linecap="round" stroke-linejoin="round"/>
            <rect id="Rectangle-path" stroke="#A7A7A7" stroke-width="2" stroke-linecap="round" stroke-linejoin="round" x="39" y="25" width="18" height="22"/>
            <path d="M50,18 L50,14 C50,13.4477153 49.5522847,13 49,13 L47,13 C46.4477153,13 46,13.4477153 46,14 L46,18" id="Shape" stroke="#A7A7A7" stroke-width="2" stroke-linecap="round" stroke-linejoin="round"/>
            <path d="M46.3059,41 C46.1181927,41.0034879 45.9334337,40.9529854 45.7736,40.8545 C44.8176387,40.2108277 44.1865077,39.1854132 44.0425242,38.0419777 C43.8985407,36.8985422 44.2557561,35.7486733 45.0223,34.8881 C45.8151,34.1064 46.8671,33.6847 47.6833,32.9318 C48.4358127,32.2735132 48.9089895,31.3530518 49.0064,30.358 C49.0158,30.2388667 49.0204333,30.1195333 49.0203,30 C49.0203,28.0425 54.768,35.6644 50.3244,40.6772 C50.1333036,40.8855414 49.8626935,41.0028882 49.58,41 L46.3059,41 Z" id="Shape" stroke="#A7A7A7" stroke-width="2" stroke-linecap="round" stroke-linejoin="round"/>
            <path d="M30,11 L30,9 C30.0000001,4.02943733 34.0294373,1.89660819e-07 39,1.89660819e-07 C43.9705627,1.8966082e-07 47.9999999,4.02943733 48,9" id="Shape" stroke="#A7A7A7" stroke-width="2" stroke-linecap="round" stroke-linejoin="round"/>
        </g>
    </g>
</svg>
